<?xml version="1.0" encoding="utf-8"?>
<!-- Generator: Adobe Illustrator 26.5.0, SVG Export Plug-In . SVG Version: 6.00 Build 0)  -->
<svg version="1.1" id="Слой_1" xmlns="http://www.w3.org/2000/svg" xmlns:xlink="http://www.w3.org/1999/xlink" x="0px" y="0px"
	 viewBox="0 0 206 268" style="enable-background:new 0 0 206 268;" xml:space="preserve">
<style type="text/css">
	.st0{fill:#161616;}
</style>
<path class="st0" d="M81.1,155.4c-1,0.6-1.6,1.8-2.5,2.6c-17.5,16.4-32.9,34.6-46.5,54.3c-12.5,18.2-23,37.1-31.4,56.7
	c3.2,0,6.4,0,9.6,0c14.6-30.2,33.8-58.4,57-84.8c0.3,0.1,0.6,0.3,0.9,0.5c-0.4,0.7-0.9,1.6-1.4,2.3c-12.2,19.2-21.4,39.9-27.8,61.8
	c-1.9,6.7-3.6,13.5-5,20.2c26.6,0,53.2-0.1,79.8-0.1c3.9,0,7.9,0,11.8,0c-2.2-8.9-4.1-17.8-5.5-26.9c-1.7-10.3-2.8-20.6-4.3-30.9
	l1.2-0.2c1.2,7.9,2.2,15.9,3.8,23.7c2.3,11.7,5.4,23.1,9.2,34.3c2.5,0,5,0,7.6,0c-0.8-2.8-1.7-5.6-2.4-8.5
	c-6.7-25.7-8.5-51.6-3.3-77.8c2.8-14.1,7.1-27.5,15.1-39.6c0.2-0.4,0.4-0.9,0.6-1.4c-27.1-22.5-43.4-51.4-51.7-85.1
	c10.4,22.2,24.1,42.1,42.2,58.8c18.2,16.7,39,28.3,63.3,33.6c-0.7-0.7-1.6-1.2-2.5-1.6c-14-6.6-27.3-14.4-39.6-23.9
	c-35.6-27.6-55.9-64.9-67.6-107.6c-1.4-5.1-2.6-10.3-4-15.6c-0.3,0.4-0.5,0.4-0.6,0.6c-1.2,4.2-2.4,8.4-3.5,12.6
	c-8,29.8-15,59.6-12.9,90.8c1.1,15.6,3.7,30.8,7.7,45.8c-1.2-17.1-2.2-34.2-0.9-51.1c2.3,14.8,4.3,29.8,7.1,44.7
	C85.7,148.7,86.1,152.5,81.1,155.4z"/>
</svg>
