<svg width="10" height="10" viewBox="0 0 10 10" fill="none" xmlns="http://www.w3.org/2000/svg">
<g clip-path="url(#clip0_15_150)">
<path d="M8.74996 2.08333L1.24996 2.08334C1.17403 2.08357 1.0996 2.10452 1.03468 2.14391C0.969765 2.1833 0.916822 2.23965 0.881549 2.3069C0.846277 2.37414 0.830012 2.44974 0.834505 2.52554C0.838997 2.60134 0.864078 2.67448 0.907048 2.73709L4.65705 8.15375C4.81246 8.37834 5.18663 8.37834 5.34246 8.15375L9.09246 2.73709C9.13587 2.67461 9.16132 2.60143 9.16606 2.5255C9.1708 2.44958 9.15464 2.3738 9.11933 2.30642C9.08403 2.23903 9.03093 2.1826 8.96581 2.14328C8.90069 2.10395 8.82604 2.08322 8.74996 2.08333Z" fill="white"/>
</g>
<defs>
<clipPath id="clip0_15_150">
<rect width="10" height="10" fill="white" transform="translate(10 10) rotate(180)"/>
</clipPath>
</defs>
</svg>
