<svg width="627" height="650" viewBox="0 0 627 650" fill="none" xmlns="http://www.w3.org/2000/svg">
<path d="M620.623 442.604V434.649L618.931 435.901L618.054 436.59C616.488 434.711 614.547 433.145 612.417 431.955L394.999 306.428C385.164 300.728 370.194 300.038 361.612 305.05L30.1291 496.41C28.939 497.099 27.8741 497.914 26.9346 498.853L24.3037 496.536V504.491C24.1158 508.312 26.9346 512.446 32.5094 515.64L249.99 641.293C259.825 646.931 274.795 647.557 283.377 642.671L614.797 451.248C618.743 448.93 620.685 445.861 620.497 442.478L620.623 442.604ZM372.637 10.3979L365.809 5.88794C363.053 4.07143 359.357 4.13407 355.286 6.45169L23.8653 197.812C15.2838 202.761 8.33092 216.04 8.33092 227.378V478.496C8.33092 484.321 10.1474 488.518 13.0915 490.585V490.647L13.4673 490.898L20.796 495.659L22.8631 490.647L23.8026 490.146L355.286 298.786C363.867 293.837 370.82 280.558 370.82 269.22V18.1025C370.82 16.6618 370.695 15.2837 370.444 13.9057L372.637 10.3979Z" fill="#C5C5D1"/>
<path d="M362.677 303.734L31.194 495.22C22.6751 499.981 15.8475 494.844 15.8475 483.319V232.264C15.8475 220.863 22.7378 207.584 31.2566 202.698L362.677 11.3374C371.196 6.38897 378.211 11.6506 378.211 23.0508V274.169C378.211 285.632 371.196 298.786 362.677 303.734Z" fill="#232323"/>
<path d="M364.055 278.992L29.8159 471.981V227.378L364.055 34.4512V278.867V278.992Z" fill="#191919"/>
<path d="M614.86 443.042L283.314 634.466C274.795 639.414 259.825 638.788 249.928 633.088L32.5094 507.497C22.6752 501.86 21.5477 493.153 30.1291 488.267L361.55 296.907C370.131 291.958 385.102 292.522 394.936 298.285L612.417 423.937C622.314 429.45 623.379 438.219 614.86 443.042Z" fill="#EAEAEF"/>
<path d="M502.424 492.339L368.628 569.509C364.744 571.827 357.979 571.514 353.532 568.946L282.374 527.855C277.927 525.287 277.426 521.403 281.247 519.085L414.98 441.977C418.926 439.66 425.629 439.973 430.076 442.541L501.296 483.632C505.806 486.263 506.307 490.084 502.424 492.339Z" fill="#D5D5E2"/>
<path d="M480.625 395.437L200.756 556.919C196.81 559.237 189.92 558.924 185.41 556.293L71.1574 490.272C66.6474 487.641 66.1463 483.757 70.0925 481.44L349.774 319.958C353.72 317.64 360.61 317.953 365.12 320.584L479.373 386.605C483.883 389.236 484.384 393.182 480.5 395.437H480.625Z" fill="#D0D0DD"/>
<path d="M372.699 331.358L90.6379 494.218C88.9467 494.97 87.0049 494.907 85.3763 493.967L75.3541 488.142C73.7882 487.328 73.6003 485.887 74.9783 485.135L357.04 322.275C358.731 321.523 360.673 321.586 362.301 322.526L372.323 328.351C373.889 329.103 374.077 330.543 372.699 331.358Z" fill="#333333"/>
<path d="M468.035 520.839L416.672 550.53C412.725 552.848 412.725 556.543 416.672 558.861L417.173 559.112L483.006 521.09L482.505 520.839C478.558 518.459 472.107 518.459 468.098 520.839H468.035Z" fill="#C5C5D1"/>
<path d="M400.198 393.057H400.135V393.245H400.198L400.135 393.307V394.873L414.792 403.392L454.443 380.466V378.775H454.38V378.524L439.722 370.068L400.135 392.994L400.198 393.057ZM187.101 493.028L172.381 501.609V501.797H172.444V503.363L187.101 511.882L201.759 503.426V501.734L201.696 501.672V501.484L187.101 493.028ZM195.62 535.559L180.963 544.015V545.895L195.62 554.413L210.278 545.895V544.015L195.62 535.497V535.559ZM214.286 524.785L199.566 533.242V533.43L199.629 533.492V535.183L214.161 543.64L228.881 535.183V533.492L228.819 533.43V533.242L214.286 524.723V524.785ZM233.767 513.51L219.11 521.967V523.846L233.767 532.365L248.424 523.846V521.967L233.767 513.51ZM252.934 502.486L238.152 510.942V511.13L238.214 511.193V512.759L252.872 521.278L267.592 512.759V511.13H267.529V510.88L252.997 502.361L252.934 502.486ZM404.645 414.855L389.987 423.311V423.499L390.05 423.562V425.253L404.582 433.772L419.302 425.253V423.562H419.24V423.311L404.645 414.73V414.855ZM423.061 404.269L408.341 412.725V412.913L408.403 412.976V414.542L423.061 423.06L437.718 414.542V412.976H437.655V412.725L423.123 404.206V404.269H423.061ZM441.727 393.432L427.069 401.889V403.768L441.727 412.287L456.384 403.768V401.889L441.727 393.432ZM385.853 425.754L257.006 500.043V501.922L271.663 510.441L400.511 436.027V434.147L385.853 425.629V425.754ZM226.25 470.415L211.593 478.871V479.059L211.656 479.122H211.593V480.813L226.25 489.269L240.908 480.813V478.934L226.25 470.415ZM245.794 459.14L231.136 467.534V467.722L231.199 467.784V469.476L245.731 477.932L260.451 469.476V467.784L260.388 467.722V467.534L245.731 459.015V459.14H245.794ZM265.462 447.803L250.805 456.259V458.075L265.462 466.594L280.12 458.138V456.447L280.057 456.384H280.12V456.196L265.462 447.803ZM285.005 436.465L270.348 444.984V446.738L285.005 455.257L299.663 446.8V444.921L285.131 436.402L285.005 436.465ZM304.549 425.253L289.891 433.584V433.772L289.954 433.834V435.526L304.486 444.044L319.143 435.526V433.646L304.486 425.128V425.253H304.549ZM324.217 413.853L309.497 422.309V422.497L309.56 422.559V424.251L324.092 432.769L338.812 424.251V422.559H338.749V422.309L324.217 413.79V413.853ZM343.76 402.578L329.103 410.909V412.913L343.76 421.369L358.418 412.913V411.222H358.292L358.355 411.159V410.971L343.698 402.452V402.578H343.76ZM363.303 391.303L348.646 399.759V401.575L363.303 410.094L377.961 401.638V399.634L363.303 391.24V391.303ZM219.235 497.475L204.577 505.994V507.81L219.235 516.329L233.892 507.873V505.869L219.235 497.35V497.475ZM238.778 486.137L224.121 494.656V494.719L224.183 494.782L224.121 494.844V496.41L238.778 504.929L253.435 496.41V494.531L238.778 486.075V486.137ZM258.384 474.863L243.727 483.319V483.507L243.789 483.569V485.261L258.321 493.779L273.041 485.261V483.569H272.979V483.319L258.384 474.8V474.863ZM277.927 463.588L263.27 472.044H263.332V473.923L277.99 482.379L292.647 473.923V472.232H292.522L292.585 472.044V471.981L277.99 463.525L277.927 463.588ZM297.533 452.313L282.876 460.769V462.585L297.533 471.042L312.19 462.585V460.581L297.533 452.313ZM317.139 440.975L302.544 449.431V449.619H302.607L302.544 449.682V451.248L317.201 459.767L331.859 451.31V449.306L317.201 440.85L317.139 440.975ZM336.745 429.638L322.025 438.156V438.344H322.087V440.036L336.619 448.554L351.34 440.098V438.407L351.277 438.344V438.156L336.745 429.638ZM356.351 418.3L341.693 426.819V428.635L356.351 437.154L371.008 428.635V426.944H370.945L371.008 426.881V426.694L356.351 418.175V418.3ZM375.894 406.962L361.236 415.481V417.298L375.894 425.817L390.551 417.298V415.481L375.894 406.962ZM395.437 395.75L380.842 404.144V404.332L380.905 404.394V406.085L395.437 414.542L410.157 406.085V404.394L410.094 404.332V404.144L395.437 395.625V395.75ZM382.909 379.903L368.252 388.421V388.609H368.315V390.3L382.847 398.819L397.567 390.363V388.672L397.504 388.609V388.359L382.909 379.903ZM390.864 375.393L387.858 377.146V377.209L388.046 377.272L387.858 377.334V378.9L402.578 387.419L405.522 385.728L417.173 378.963L433.897 369.317V367.312L419.24 358.793L402.515 368.502L390.739 375.267L390.864 375.393ZM385.29 355.849V357.666L399.822 366.185L414.479 357.666V355.787L399.947 347.33L385.29 355.787V355.849ZM475.426 390.864L460.957 382.283L446.237 390.802V390.99H446.299V392.681L460.957 401.2L475.614 392.743V391.177L475.552 391.115V390.864H475.426ZM160.605 504.365V502.549L145.948 494.03L120.266 508.875V510.754L134.923 519.273L160.605 504.428V504.365ZM182.779 514.137V512.32L168.122 503.864L139.684 520.338V522.217L154.341 530.673L182.779 514.262V514.137ZM213.911 519.211V517.457L199.253 508.938L159.666 531.864V533.68L174.323 542.199L213.911 519.273V519.211ZM164.99 501.797L179.71 493.341V491.775H179.647V491.524L165.115 483.006L150.395 491.462V491.65L150.458 491.712V493.466L165.115 501.922L164.99 501.797ZM184.658 490.522L199.316 482.066V480.5L199.191 480.437H199.253V480.187L184.658 471.668L170.001 480.187V482.066L184.658 490.585V490.522ZM204.202 479.247L218.859 470.791V468.975L204.202 460.456L189.669 468.975V470.791L204.327 479.31L204.202 479.247ZM223.87 467.972L238.527 459.453V457.95L238.465 457.762V457.574L223.87 449.118L209.213 457.512V457.7L209.275 457.762V459.453L223.87 467.972ZM243.413 456.635L258.071 448.116V446.55H258.008V446.299L243.476 437.781L228.756 446.237V446.425L228.819 446.487V448.241L243.476 456.76V456.635H243.413ZM262.957 445.36L277.614 436.841V435.024L262.957 426.506L248.299 434.962V436.966L262.957 445.36ZM282.5 434.022L297.157 425.566V423.687L282.5 415.231L267.842 423.687V423.875H267.905L267.842 424.063V425.629L282.5 434.085V434.022ZM302.106 422.685L316.826 414.228V412.662L316.763 412.6V412.349L302.106 403.83L287.448 412.475V412.662H287.511V414.228L302.043 422.747L302.106 422.685ZM321.649 411.41L336.369 402.891V401.388L336.306 401.325L336.369 401.262V401.074L321.711 392.618L306.991 401.137H307.054V402.953L321.711 411.472L321.649 411.41ZM341.317 400.135L355.975 391.616V389.799L341.317 381.281L326.66 389.737V391.741L341.317 400.26V400.135ZM360.861 388.735L375.518 380.278V378.462L360.861 369.943L346.203 378.399V378.587L346.266 378.65V380.404L360.798 388.86V388.735H360.861ZM380.466 377.522L395.124 369.003V367.437L395.061 367.375V367.187L380.529 358.731L365.809 367.187V367.375L365.872 367.437V369.129L380.466 377.522ZM221.302 492.025V490.146L206.644 481.69L191.987 490.146V492.025L206.644 500.544L221.302 492.025ZM367.751 360.359L393.495 345.514V343.885H393.433L393.495 343.823V343.635L378.838 335.116L353.093 349.899H353.156V351.903L367.813 360.422L367.751 360.359ZM348.771 371.321L363.429 362.865V360.986L348.771 352.467L334.114 360.986V362.865L348.771 371.384V371.321ZM329.228 382.596L343.886 374.14V372.574L343.823 372.511H343.886V372.261L329.228 363.804L314.571 372.261V374.265L329.228 382.721V382.596ZM309.622 393.934L324.28 385.477V383.911H324.217V383.661L309.748 375.142L295.027 383.598V383.786L295.09 383.849V385.54L309.748 393.996L309.622 393.934ZM290.016 405.271L304.674 396.752V394.998L290.016 386.542L275.359 394.998V395.186L275.422 395.249L275.359 395.312V396.878L290.016 405.396V405.271ZM270.411 416.483L285.068 408.027V406.211L270.411 397.755L255.753 406.273V408.152L270.411 416.671V416.483ZM250.867 427.884L265.525 419.427V417.861L265.462 417.799V417.548L250.93 409.092L236.273 417.611V419.427L250.93 427.946V427.884H250.867ZM231.261 439.159L245.982 430.702V429.199L245.919 429.136V428.823L231.387 420.492L216.729 428.948V429.136H216.792V430.828L231.324 439.347L231.261 439.159ZM211.656 450.559L226.313 442.04V440.223L211.656 431.705L196.998 440.161V440.349L197.061 440.411H196.998V442.165L211.656 450.559ZM192.05 461.834L206.77 453.315V451.498L192.112 442.98L177.455 451.436V453.44L192.05 461.834ZM172.569 473.109L187.227 464.59V463.086L187.164 462.899V462.711L172.632 454.192L157.849 462.711V462.899L157.912 462.961V464.652L172.569 473.109ZM152.901 484.384L167.621 475.927H167.558V474.048L152.901 465.529L138.243 474.048V474.236H138.306V475.99L152.838 484.509L152.901 484.384ZM133.357 495.721L148.015 487.265V485.386L133.357 476.93L118.7 485.448V487.265L133.357 495.784V495.721ZM128.158 498.415V496.598L113.501 488.079L98.9689 496.661V496.849H99.0315L98.9689 496.911V498.415L113.626 506.933L128.284 498.477L128.158 498.415Z" fill="#262628"/>
<path d="M145.885 494.093L120.266 508.938L134.923 517.394L160.605 502.611L145.948 494.093H145.885ZM168.184 503.989L139.684 520.338L154.341 528.857L182.779 512.383L168.122 503.864V503.989H168.184ZM199.253 509L159.666 531.926L174.323 540.382L213.911 517.582L199.253 509ZM400.135 393.057L414.792 401.513L454.443 378.587L439.722 370.131L400.135 393.057ZM164.99 483.131L150.332 491.587L165.053 500.043L179.71 491.587L165.053 483.131H164.99ZM184.658 471.793L170.001 480.312L184.658 488.768L199.316 480.312L184.658 471.793ZM204.202 460.456L189.669 468.974L204.327 477.431L218.984 468.974L204.327 460.456H204.202ZM223.87 449.181L209.15 457.637L223.807 466.156L238.527 457.7L223.807 449.181H223.87ZM243.413 437.906L228.631 446.299L243.351 454.818L258.008 446.299L243.351 437.843L243.413 437.906ZM262.957 426.568L248.299 435.024L262.957 443.543L277.614 435.024L262.957 426.568ZM282.5 415.293L267.842 423.624L282.5 432.08L297.157 423.624L282.5 415.231V415.293ZM302.106 403.956L287.448 412.537L302.106 420.993L316.888 412.537L302.231 404.018L302.106 403.956ZM321.649 392.618L306.991 401.137L321.711 409.593L336.369 401.137L321.711 392.618H321.649ZM341.317 381.343L326.66 389.799L341.317 398.318L355.975 389.799L341.317 381.343ZM360.861 370.068L346.328 378.524L360.986 387.043L375.643 378.524L360.986 370.068H360.861ZM380.466 358.793L365.809 367.187L380.529 375.643L395.186 367.187L380.466 358.793ZM187.101 493.028L172.381 501.609L187.101 510.065L201.759 501.609L187.101 493.09V493.028ZM195.62 552.472L210.278 543.953L195.62 535.559L180.963 544.015L195.62 552.472ZM214.286 541.635L228.944 533.179L214.224 524.785L199.566 533.242L214.224 541.698H214.286V541.635ZM233.767 530.423L248.424 521.904L233.767 513.448L219.11 521.904L233.767 530.423ZM252.934 519.398L267.592 510.88L252.934 502.423L238.214 510.88L252.934 519.398ZM404.645 431.767L419.365 423.248L404.645 414.855L389.987 423.311L404.645 431.767ZM423.061 421.181L437.718 412.662L423.061 404.206L408.341 412.662L423.061 421.181ZM441.727 410.345L456.384 401.826L441.727 393.37L427.069 401.826L441.727 410.345ZM460.832 399.32L475.552 390.864L460.832 382.283L446.112 390.802L460.832 399.258V399.32ZM271.663 508.562L400.511 434.21L385.853 425.754L257.006 500.043L271.663 508.562ZM206.644 481.69L191.987 490.146L206.644 498.665L221.302 490.146L206.644 481.69ZM226.25 470.415L211.593 478.871L226.25 487.39L240.908 478.871L226.25 470.415ZM245.794 459.14L231.136 467.534L245.794 475.99L260.514 467.534L245.794 459.14ZM265.462 447.803L250.805 456.259L265.462 464.715L280.12 456.259L265.462 447.803ZM285.005 436.465L270.348 444.984L285.005 453.44L299.663 444.984L285.131 436.402L285.005 436.465ZM304.549 425.253L289.891 433.584L304.549 442.103L319.206 433.584L304.549 425.128V425.253ZM324.217 413.853L309.497 422.309L324.154 430.828L338.874 422.309L324.217 413.853ZM343.76 402.578L329.103 410.909L343.76 419.365L358.418 410.909L343.76 402.452V402.578ZM363.303 391.303L348.646 399.759L363.303 408.215L377.961 399.759L363.303 391.303ZM219.235 497.475L204.577 505.994L219.235 514.45L233.892 505.994L219.235 497.475ZM238.778 486.137L224.121 494.656L238.778 503.112L253.435 494.656L238.778 486.137ZM258.384 474.862L243.727 483.319L258.384 491.838L273.167 483.319L258.509 474.862H258.384ZM277.927 463.588L263.27 472.044L277.99 480.563L292.647 472.044L277.99 463.588H277.927ZM297.533 452.313L282.876 460.769L297.533 469.162L312.19 460.706L297.533 452.313ZM317.139 440.975L302.544 449.431L317.201 457.887L331.859 449.431L317.201 440.975H317.139ZM336.745 429.637L322.025 438.156L336.682 446.613L351.402 438.156L336.745 429.637ZM356.351 418.3L341.693 426.819L356.351 435.338L371.008 426.819L356.351 418.425V418.3ZM375.894 406.962L361.236 415.481L375.894 424L390.551 415.481L375.894 407.025V406.962ZM395.437 395.75L380.842 404.144L395.5 412.6L410.22 404.144L395.437 395.75ZM382.909 379.902L368.252 388.421L382.909 396.878L397.629 388.421L382.909 379.902ZM417.047 377.146L433.897 367.437L419.24 358.919L402.515 368.628L390.739 375.392L387.795 377.146L402.515 385.603L405.459 383.911L417.173 377.146H417.047ZM399.822 347.33L385.29 355.787L399.947 364.305L414.604 355.787L399.947 347.33H399.822ZM378.9 335.241L353.156 350.024L367.876 358.543L393.558 343.697L378.9 335.241ZM348.771 352.592L334.114 361.111L348.771 369.567L363.429 361.111L348.771 352.592ZM329.228 363.93L314.508 372.386L329.165 380.842L343.823 372.386L329.103 363.93H329.228ZM309.622 375.142L294.902 383.661L309.622 392.18L324.28 383.661L309.622 375.205V375.142ZM290.016 386.542L275.359 395.061L290.016 403.58L304.674 395.061L290.016 386.605V386.542ZM270.411 397.817L255.753 406.336L270.411 414.792L285.068 406.336L270.411 397.817ZM250.867 409.092L236.21 417.611L250.867 426.067L265.525 417.611L250.867 409.092ZM231.261 420.492L216.729 428.948L231.387 437.405L246.107 428.948L231.387 420.492H231.261ZM211.656 431.767L196.998 440.223L211.656 448.742L226.313 440.223L211.656 431.767ZM192.05 443.042L177.58 451.498L192.238 460.017L206.895 451.498L192.238 443.042H192.05ZM172.569 454.38L157.849 462.773L172.569 471.292L187.227 462.836L172.569 454.38ZM152.901 465.655L138.306 474.173L152.963 482.63L167.683 474.173L152.901 465.655ZM133.357 476.93L118.7 485.448L133.357 493.905L148.015 485.448L133.357 476.93ZM113.564 488.142L98.9689 496.661L113.626 505.117L128.284 496.661L113.626 488.142H113.564Z" fill="#464649"/>
<path d="M74.9157 468.035L345.702 311.689L340.879 308.933L69.9672 465.216L74.9157 468.035Z" fill="#7D7D89"/>
<path d="M303.045 270.348C302.607 270.223 302.356 270.097 302.168 270.035C303.108 267.467 303.108 267.529 305.3 266.777C305.613 266.652 306.114 265.963 306.365 265.713C305.801 265.399 304.799 265.212 304.924 264.773C305.175 263.833 305.989 262.706 306.741 261.391C306.678 261.203 306.553 260.702 306.428 260.138C306.866 259.699 307.242 259.386 307.493 259.136C306.929 258.196 306.302 257.319 305.864 256.379C305.801 256.317 306.49 255.377 306.866 255.127C307.618 254.626 308.369 254.312 309.184 253.874C309.685 254.876 309.685 254.876 312.316 252.872C312.003 252.746 311.815 252.684 311.439 252.496C313.255 251.18 312.754 250.241 312.692 248.988C312.065 250.178 311.627 251.306 310.938 251.995C310.374 252.559 309.56 252.621 308.745 252.872C309.81 249.364 310.186 248.926 312.566 248.424C311.877 247.422 312.566 245.355 311.063 245.23C310.938 245.23 311 244.666 311.063 244.353C311.564 242.975 311.126 242.348 310.311 241.973C310.437 242.286 310.562 242.599 310.687 243.037C310.061 243.351 309.56 243.664 308.996 243.914C309.058 243.225 309.121 242.474 309.184 241.659C308.683 241.91 308.244 242.223 307.743 242.411C306.804 242.787 306.302 242.536 306.553 241.409C306.991 239.843 306.428 239.53 305.3 239.655C299.35 240.281 293.086 242.348 286.571 245.23C274.294 250.742 262.142 258.509 250.241 268.782C244.729 273.542 239.467 278.867 234.707 284.817C234.018 285.694 233.579 286.321 233.704 287.198C233.767 287.761 233.391 288.952 232.953 289.453C232.452 290.016 231.637 290.016 230.572 290.455C229.821 291.77 227.942 293.461 228.13 295.529C228.13 295.779 227.691 296.593 227.44 296.781C225.687 297.846 225.311 299.475 224.434 301.291C225.624 300.665 226.626 300.54 226.188 301.98C225.687 303.797 224.246 304.235 222.993 304.924C222.68 305.676 222.429 306.428 221.991 307.493C219.11 307.493 216.04 307.868 214.85 305.3C208.273 291.394 203.575 275.797 198.376 260.702C192.864 244.666 187.289 228.693 181.652 212.783C180.775 210.215 179.459 208.023 178.207 205.392C188.542 204.828 197.123 207.396 206.457 208.712C206.707 208.21 206.895 207.709 207.083 207.271C207.271 206.895 207.521 206.519 207.772 206.269C207.897 206.143 208.336 206.143 208.336 206.269C208.398 206.582 208.336 207.083 208.148 207.271C207.584 207.96 207.02 208.649 207.772 208.774C208.336 208.837 208.649 209.964 209.839 208.461C210.278 207.897 210.904 207.396 211.468 206.895C211.405 206.77 211.405 206.707 211.342 206.582C211.029 206.707 210.653 206.895 210.716 206.895C210.09 205.83 209.651 205.016 209.15 204.139C208.586 203.199 208.899 202.51 210.34 201.696C211.53 201.07 212.658 200.443 213.973 199.754C213.911 200.13 213.785 200.631 213.66 201.508C214.474 201.007 215.163 200.569 215.915 200.193C216.604 199.754 217.356 199.316 218.233 198.752C217.606 200.067 219.548 200.569 217.168 202.448C217.857 202.009 218.608 201.508 219.36 201.07C219.297 200.381 219.235 199.692 219.172 198.94C219.172 198.815 219.673 198.314 219.736 198.314C219.986 198.376 220.425 198.501 220.425 198.815C220.425 199.441 220.237 200.193 220.112 201.007C220.738 200.569 221.302 200.193 221.866 199.754C221.552 198.877 221.365 198.188 221.051 197.249C221.74 196.936 222.116 196.81 222.429 196.685C222.304 196.121 222.116 195.495 221.928 194.806C221.302 195.37 220.676 195.933 219.861 196.622C219.861 196.748 219.924 197.061 219.799 197.311C219.611 197.625 219.172 198.188 219.047 198.188C218.358 198.126 218.608 196.685 219.235 195.808C219.611 195.244 219.611 194.493 219.736 193.804C221.302 193.115 221.302 193.115 220.863 190.609C221.302 190.171 221.678 189.669 222.304 189.043C221.302 189.294 219.861 187.54 220.3 186.6C220.488 186.162 221.177 185.598 221.615 185.285C222.241 184.846 222.931 184.658 223.244 184.47C223.807 184.658 224.183 185.097 224.559 184.909C225.499 184.408 225.749 183.594 225.812 182.654C225.937 181.276 225.749 180.086 226 178.582C226.25 177.016 226.188 175.638 226.25 174.135C226.313 172.694 226.376 171.191 226.438 169.75C226.501 167.307 226.501 164.865 226.501 162.296C225.937 162.985 225.561 163.424 225.186 163.862C225.06 163.8 224.998 163.8 224.872 163.737C225.373 162.923 225.812 162.171 226.564 160.918C227.065 148.516 227.002 135.863 227.065 122.897C228.13 123.085 228.944 123.335 229.946 123.335C235.771 123.398 239.404 126.405 242.286 130.915C250.053 143.192 258.384 154.905 266.464 166.806C266.715 167.182 267.341 167.245 267.905 167.182C268.907 166.994 269.534 167.495 269.158 168.498C268.281 170.565 269.408 170.753 269.909 171.692C270.285 170.941 270.536 170.251 270.912 169.75C271.287 169.312 271.914 169.061 272.227 168.873C272.916 167.934 273.417 166.994 274.106 166.368C274.545 165.929 275.422 165.742 275.672 165.992C275.923 166.18 275.797 167.245 275.484 167.621C274.294 169.249 273.417 170.878 272.478 172.632C272.728 172.757 273.041 172.882 273.355 173.008C276.674 166.18 279.932 159.478 283.314 152.775C288.513 142.503 294.025 132.293 300.79 122.458C304.11 117.635 307.68 113 312.19 109.68C313.005 109.116 313.882 108.991 314.696 108.678C315.009 108.553 315.26 108.74 315.573 108.74C318.893 108.991 321.273 110.119 319.269 115.631C317.953 126.78 316.325 138.055 315.385 148.954C314.445 160.167 313.944 171.128 313.631 182.028C313.193 197.625 313.819 212.72 315.448 227.065C315.761 229.758 316.137 232.389 316.512 235.02C316.7 236.46 317.828 235.583 318.893 235.02C319.206 234.832 319.519 234.707 319.832 234.644C319.895 234.644 319.958 235.082 319.895 235.145C319.644 235.458 319.331 235.771 319.018 235.897C317.139 236.899 316.638 237.776 317.389 239.091C317.577 239.467 317.389 240.156 317.515 240.595C317.953 241.659 318.705 242.536 319.018 243.727C319.582 245.731 320.584 247.61 320.271 250.053C319.832 253.31 318.58 256.943 317.201 260.514C315.448 264.961 312.692 269.346 309.372 273.104C304.862 278.366 302.544 283.126 303.17 288.137C303.484 290.58 303.045 293.524 302.857 296.28C302.795 297.22 302.419 298.347 301.98 299.412C300.79 302.168 298.159 303.609 297.157 302.043C296.719 301.354 296.593 300.226 296.656 299.162C296.781 295.466 296.969 291.645 297.157 287.949C297.22 287.072 297.095 286.195 297.095 285.318C272.29 305.238 247.735 316.262 222.993 326.785C223.118 328.915 223.306 331.045 223.432 333.112C223.557 335.742 223.807 338.311 223.807 341.004C223.807 341.818 223.306 343.009 222.743 343.948C221.552 345.953 219.36 346.829 218.734 345.514C218.358 344.7 218.233 343.572 218.233 342.445C218.358 338.561 218.608 334.552 218.796 330.606C218.859 328.664 218.358 327.349 216.667 327.098C215.539 326.91 214.725 326.096 213.535 325.407C218.107 323.465 222.179 321.899 226.313 320.02C232.452 317.264 238.653 314.383 244.854 311.439C253.122 307.493 261.391 302.857 269.659 297.658C279.368 291.582 288.889 284.88 297.909 275.672C299.663 274.231 301.229 272.352 303.045 270.348ZM186.412 209.15C186.976 210.403 187.477 211.28 187.853 212.282C192.3 224.496 196.748 236.648 201.07 248.925C206.582 264.648 211.906 280.495 217.356 296.28C217.544 296.781 217.794 297.282 218.045 297.909C218.984 296.155 219.736 294.714 220.55 293.336C226.25 283.502 233.704 275.484 241.785 268.156C250.304 260.451 259.073 254.25 267.968 249.113C278.178 243.225 288.262 238.715 297.721 237.4C301.291 236.899 304.674 237.087 307.868 236.962C308.369 236.273 308.933 235.521 309.497 234.769C304.611 200.005 305.927 161.545 310.875 120.892C310.499 121.331 310.186 121.581 309.998 121.895C306.365 127.657 302.544 133.357 299.099 139.183C295.591 145.008 292.397 150.896 290.768 156.972C289.828 160.417 288.45 163.925 288.45 167.12C288.45 169.124 287.386 171.254 285.256 172.82C283.878 173.822 283.627 174.761 283.815 175.826C283.878 176.327 283.94 176.829 284.003 177.33C284.066 178.958 284.191 180.587 283.001 182.717C281.811 184.784 280.37 185.598 279.243 184.846C278.679 184.47 278.303 183.844 277.677 183.092C277.363 183.969 276.925 184.721 276.988 185.034C277.677 188.041 278.24 191.235 279.18 193.929C279.994 196.184 280.307 198.689 279.18 202.009C278.741 203.325 277.865 204.765 276.737 205.141C275.86 205.454 275.046 205.141 274.419 204.765C273.918 204.452 273.73 203.763 273.605 203.074C273.041 199.629 272.352 196.309 272.102 192.676C271.851 188.605 271.601 184.47 269.722 181.84C259.95 168.059 249.928 154.592 239.968 140.999C239.78 140.749 239.53 140.561 239.091 140.122C239.279 150.458 239.53 160.292 239.718 169.938C240.469 169.938 241.096 169.876 241.659 169.876C240.219 171.254 239.404 172.193 239.467 173.759C239.592 175.952 239.404 178.332 239.404 180.587C239.404 181.025 239.718 181.276 239.843 181.589C239.655 182.278 239.342 183.03 239.279 183.594C239.154 186.35 239.091 189.043 238.966 191.737C238.903 192.989 238.841 194.242 238.778 195.307C239.342 195.056 239.843 194.868 240.344 194.743C240.407 194.743 240.281 195.495 240.219 195.557C239.718 195.871 239.217 196.121 238.653 196.434C238.402 198.94 238.214 201.508 237.838 204.202C237.463 206.832 236.962 209.589 236.273 212.345C235.396 215.539 234.143 216.667 231.7 216.729C230.948 216.729 230.134 216.729 229.445 216.667C225.499 216.228 221.49 215.79 217.544 215.351C217.23 215.727 216.855 216.166 216.228 216.917C217.043 213.973 214.725 215.414 214.161 214.662C213.535 215.163 213.096 215.539 212.658 215.978C212.595 215.602 212.595 215.101 212.47 214.85C212.282 214.6 212.031 214.412 211.718 214.349C209.526 213.911 207.146 213.848 205.016 213.222C202.26 212.47 199.253 212.219 196.434 211.656C193.365 210.841 190.108 210.027 186.412 209.15ZM216.541 205.893C215.664 208.023 215.79 208.398 217.168 208.085C217.481 208.023 217.732 208.148 217.982 208.21C217.669 208.774 217.356 209.338 216.98 209.839C216.855 210.027 216.541 210.09 216.04 210.34C217.606 210.591 218.859 210.779 220.237 210.967C220.926 209.588 221.427 209.401 221.74 210.591C221.866 210.34 221.991 210.09 222.116 209.839C221.552 209.15 221.051 208.461 220.425 207.647C220.926 207.208 221.74 206.457 222.931 205.392C221.928 205.454 221.365 205.454 220.738 205.454C220.3 207.396 219.423 208.461 218.295 208.837C218.608 207.897 218.984 207.02 219.297 206.081C219.297 205.955 219.297 205.83 219.235 205.642C216.667 209.213 217.481 205.705 216.541 205.893ZM301.479 281.811C300.101 282.625 299.725 283.439 299.976 284.504C300.164 285.131 300.039 285.945 299.976 286.697C299.788 290.455 299.6 294.276 299.475 298.034C299.475 298.535 299.537 298.974 299.537 299.475C299.663 299.412 299.788 299.287 299.913 299.224C301.604 292.898 299.6 288.388 301.479 281.811ZM276.486 202.072C276.674 201.947 276.862 201.821 277.05 201.696C278.428 197.186 275.547 195.808 275.359 192.426C275.171 192.551 274.983 192.676 274.858 192.801C275.359 195.871 275.923 199.003 276.486 202.072ZM285.757 165.616C284.817 167.683 283.815 169.813 282.75 172.193C285.757 169.813 285.945 170.565 285.757 165.616ZM281.247 176.829C279.994 179.71 280.057 180.712 281.498 181.339C281.435 179.71 281.31 178.269 281.247 176.829ZM214.474 204.828C213.785 205.079 213.159 205.266 212.157 205.642C212.72 206.519 213.159 207.208 213.66 207.96C213.911 207.835 214.098 207.709 214.349 207.521C213.472 206.958 213.096 206.269 214.474 204.828ZM217.794 203.763C218.233 205.517 219.548 203.7 220.425 203.513C220.488 203.325 220.55 203.137 220.55 202.949C219.736 203.262 218.859 203.513 217.794 203.763Z" fill="#5B40AD" stroke="#5B40AD" stroke-width="0.8899" stroke-miterlimit="10"/>
<path d="M192.112 260.889C191.737 261.453 191.298 262.33 190.797 262.769C189.795 263.52 189.482 262.894 189.294 262.205C188.354 258.697 187.477 255.127 186.35 251.744C183.719 243.914 180.963 236.21 178.269 228.505C178.019 227.816 177.643 227.19 177.392 226.564C177.079 225.874 176.891 225.123 177.956 224.121C179.021 223.118 179.522 223.494 179.835 224.183C180.837 226.751 181.902 229.382 182.842 232.013C185.473 239.718 188.103 247.422 190.672 255.189C191.173 256.818 191.549 258.697 192.112 260.889Z" fill="#5B40AD" stroke="#5B40AD" stroke-width="0.8899" stroke-miterlimit="10"/>
<path d="M199.128 282.5C198.752 283.063 198.376 283.94 197.938 284.191C197.437 284.504 196.622 284.504 196.497 284.128C195.557 281.372 194.743 278.491 193.992 275.547C193.866 275.171 194.618 274.106 194.994 273.354C195.495 273.48 196.309 273.292 196.497 273.73C197.186 275.735 197.687 277.864 198.314 279.932C198.502 280.746 198.815 281.498 199.128 282.5Z" fill="#5B40AD" stroke="#5B40AD" stroke-width="0.8899" stroke-miterlimit="10"/>
<path d="M265.274 162.296C264.585 161.733 263.833 161.357 263.959 161.106C264.397 160.167 265.149 159.165 265.838 158.288C265.963 158.162 267.028 158.538 266.965 158.789C266.652 159.791 266.026 160.793 265.274 162.296Z" fill="#5B40AD" stroke="#5B40AD" stroke-width="0.8899" stroke-miterlimit="10"/>
<path d="M303.546 265.587C302.669 265.963 301.855 266.339 301.103 266.652C301.041 266.527 300.978 266.402 300.853 266.276C301.354 265.65 301.855 264.773 302.356 264.397C303.296 263.833 303.734 264.272 303.546 265.587Z" fill="#5B40AD" stroke="#5B40AD" stroke-width="0.8899" stroke-miterlimit="10"/>
<path d="M214.85 196.372C215.351 196.622 215.852 196.873 216.416 197.123C216.103 197.562 215.79 198 215.539 198.439C215.101 198.063 214.6 197.75 214.161 197.374C214.349 197.061 214.6 196.685 214.85 196.372Z" fill="#5B40AD" stroke="#5B40AD" stroke-width="0.8899" stroke-miterlimit="10"/>
<path d="M211.781 200.506C211.342 200.193 210.904 199.88 210.465 199.629C210.716 199.316 211.029 199.003 211.28 198.689C211.593 199.128 211.906 199.504 212.219 199.942C212.094 200.13 211.969 200.318 211.781 200.506Z" fill="#5B40AD" stroke="#5B40AD" stroke-width="0.8899" stroke-miterlimit="10"/>
<path d="M270.035 239.968C272.728 238.527 275.422 237.087 278.178 235.709C279.117 235.208 280.057 235.02 279.869 236.273C279.744 237.463 278.867 237.964 277.99 238.465C273.041 241.033 268.156 243.413 263.207 246.232C248.863 254.438 236.022 266.276 224.935 281.999C223.118 284.567 221.427 287.198 219.736 289.828C219.047 290.893 218.358 291.958 217.481 291.645C216.541 291.269 217.168 290.142 217.919 289.014C226.751 274.858 237.212 262.769 249.677 252.809C256.38 247.36 263.207 243.601 270.035 239.968Z" fill="#5B40AD" stroke="#5B40AD" stroke-width="0.8899" stroke-miterlimit="10"/>
<path d="M291.52 231.763C295.403 230.071 298.285 230.071 301.166 230.009C301.542 230.009 301.855 230.948 301.605 231.324C301.291 231.888 300.414 232.765 299.913 232.89C298.723 233.203 297.658 233.078 296.468 233.266C294.902 233.579 293.274 233.955 291.582 234.456C290.705 234.707 289.828 234.895 290.142 233.704C290.392 232.953 291.269 232.138 291.52 231.763Z" fill="#5B40AD" stroke="#5B40AD" stroke-width="0.8899" stroke-miterlimit="10"/>
<path d="M141.438 365.308C138.807 369.317 135.738 374.015 132.23 379.464C128.096 377.272 124.087 375.079 120.266 373.012C116.445 370.883 112.499 369.066 108.427 367.438C104.418 365.809 100.222 364.431 95.8996 363.241C91.5775 362.051 87.3181 360.86 82.996 359.608C84.6246 356.037 86.0027 353.031 87.1302 350.525C80.1147 333.675 72.9112 316.387 65.5825 298.723C66.4595 297.533 67.6496 295.967 69.0277 294.025C70.4057 292.083 71.9717 290.33 73.6629 288.638C77.3586 285.193 80.3026 281.435 82.4323 277.489C84.562 273.48 86.7544 269.534 88.8841 265.525C93.582 257.57 98.4051 249.614 103.354 241.722C104.168 240.595 105.609 239.029 107.613 237.149C107.926 243.852 109.054 249.802 111.058 254.876C113.063 260.012 115.38 264.773 118.074 269.158C120.767 273.605 123.335 278.115 125.716 282.75C122.584 287.511 119.514 292.271 116.445 296.969C109.805 294.965 104.982 291.081 101.976 285.256C98.9689 279.493 96.6513 272.979 94.96 265.713C91.327 271.851 87.2555 278.804 82.7455 286.571C88.383 303.609 94.271 321.586 100.472 340.44C104.857 341.693 110.056 343.134 116.069 344.825C115.505 339.626 114.879 335.241 114.127 331.608C113.564 329.479 113.25 327.474 113.25 325.595C113.25 322.588 114.127 319.707 115.944 316.951C117.76 314.195 120.767 310.875 125.027 307.117C130.288 325.846 135.738 345.201 141.438 365.308Z" fill="white"/>
<path d="M229.069 336.557C225.499 341.944 221.928 347.331 218.421 352.843C209.714 349.46 200.694 347.143 191.173 345.952C181.714 344.762 172.131 343.823 162.484 343.196C156.346 342.633 150.082 342.758 143.63 343.447C137.178 344.199 130.476 345.827 123.398 348.458C119.953 349.836 116.508 351.59 112.937 353.657C109.43 355.661 105.922 357.791 102.351 359.921L100.597 360.923C99.5326 361.55 98.4678 362.176 97.3403 362.928L96.6512 362.051C97.904 360.485 99.0941 358.919 100.347 357.29C101.537 355.661 102.852 354.221 104.168 352.968C108.803 348.458 113.501 344.136 118.199 340.064C122.897 335.993 127.845 332.485 132.982 329.541L133.984 328.977C139.058 326.159 143.881 324.217 148.391 323.152C152.901 322.025 157.411 321.21 161.795 320.584C169.5 319.394 176.766 319.081 183.719 319.582C190.672 320.083 197.311 321.085 203.763 322.651C204.452 322.651 205.454 322.526 206.77 322.213C204.139 315.51 199.88 310.938 194.054 308.495C187.164 305.425 180.211 302.419 173.133 299.6C161.482 294.589 149.706 289.766 137.805 285.193C132.982 283.69 127.532 282.437 121.456 281.497C121.393 280.871 121.393 280.182 121.393 279.556C121.393 276.173 122.145 272.728 123.711 269.158C125.277 265.587 127.219 262.017 129.536 258.446C131.854 254.876 134.297 251.306 136.803 247.861C134.735 242.035 133.733 237.087 133.733 232.953C133.733 228.505 135.111 224.308 137.867 220.425C140.623 216.541 145.133 211.781 151.335 206.143C152.212 207.584 152.775 209.213 153.214 211.029C154.341 225.749 159.791 236.272 169.563 242.662C173.446 245.418 177.518 248.612 181.777 252.308C178.77 257.068 175.513 262.205 172.005 267.717C165.616 266.84 159.728 265.274 154.341 263.082C148.954 260.889 144.257 257.757 140.122 253.623C138.744 258.634 137.617 262.769 136.677 266.026C148.954 270.348 160.981 274.67 172.694 278.992C182.153 282.249 191.298 285.882 200.193 289.954C203.826 291.708 207.146 293.9 210.09 296.656C213.034 299.349 215.351 302.795 217.105 306.866C220.237 313.882 223.306 320.897 226.376 327.913C227.19 330.23 227.816 332.798 228.255 335.555C228.505 335.93 228.819 336.244 229.069 336.557Z" fill="#5B40AD"/>
<path d="M309.873 122.521L102.414 242.348C101.036 243.163 99.9085 244.916 99.9085 246.295V384.225C99.9085 385.603 101.036 386.104 102.414 385.289L309.873 265.525C311.251 264.71 312.378 262.956 312.378 261.578V123.648C312.378 122.27 311.251 121.769 309.873 122.521Z" fill="white"/>
<path d="M102.414 242.348L309.873 122.584C311.251 121.769 312.378 122.27 312.378 123.648V130.915L99.9085 253.561V246.295C99.9085 244.917 101.036 243.1 102.414 242.348Z" fill="#4884A6"/>
<path d="M166.806 215.163L100.848 253.185V385.352L166.806 347.268V215.163Z" fill="white"/>
<path d="M158.789 228.317L112.875 254.813C111.434 255.628 110.306 257.444 110.306 258.885V263.896C110.306 265.337 111.497 265.775 112.875 264.961L158.789 238.465C160.229 237.65 161.357 235.834 161.357 234.393V229.382C161.357 228.004 160.229 227.503 158.789 228.317Z" fill="#E6EBEF"/>
<path d="M166.806 281.56L96.0875 322.4V338.937L166.806 298.097V281.56Z" fill="#239ED9"/>
<path d="M151.397 247.547L118.575 266.527V268.218L151.397 249.239V247.547Z" fill="#E6EBEF"/>
<path d="M151.397 259.824L118.575 278.804V280.495L151.397 261.516V259.824Z" fill="#E6EBEF"/>
<path d="M161.357 258.697L119.765 282.75V282.938L161.357 258.885V258.697Z" fill="#E6EBEF"/>
<path d="M111.058 291.081C113.689 289.578 115.819 286.195 115.819 283.502C115.819 280.809 113.689 279.932 111.058 281.498C108.365 283.063 106.298 286.383 106.298 289.077C106.298 291.77 108.427 292.585 111.058 291.081Z" fill="#5B40AD"/>
<path d="M151.397 277.551L118.575 296.531V298.222L151.397 279.242V277.551Z" fill="#E6EBEF"/>
<path d="M161.357 276.424L119.765 300.477V300.665L161.357 276.612V276.424Z" fill="#E6EBEF"/>
<path d="M111.058 308.808C113.689 307.304 115.819 303.922 115.819 301.229C115.819 298.535 113.689 297.658 111.058 299.224C108.365 300.79 106.298 304.11 106.298 306.803C106.298 309.497 108.427 310.311 111.058 308.808Z" fill="#282233"/>
<path d="M152.838 293.962L114.002 316.45V318.391L152.901 295.967V293.962H152.838Z" fill="#E6EBEF"/>
<path d="M161.357 294.338L114.002 321.649V321.837L161.357 294.464V294.338Z" fill="#E6EBEF"/>
<path d="M104.105 331.17C107.112 329.416 109.555 325.595 109.555 322.588C109.555 319.582 107.112 318.579 104.105 320.333C101.099 322.087 98.6557 325.908 98.6557 328.915C98.6557 331.921 101.099 332.924 104.105 331.17Z" fill="#DB9300"/>
<path d="M151.397 313.067L118.575 332.047V333.738L151.397 314.759V313.067Z" fill="#E6EBEF"/>
<path d="M161.357 311.877L119.765 335.93V336.118L161.357 312.065V311.877Z" fill="#E6EBEF"/>
<path d="M111.058 344.261C113.689 342.758 115.819 339.375 115.819 336.682C115.819 334.051 113.689 333.112 111.058 334.678C108.365 336.243 106.298 339.563 106.298 342.257C106.298 344.888 108.427 345.827 111.058 344.261Z" fill="#678499"/>
<path d="M151.397 330.794L118.575 349.773V351.465L151.397 332.485V330.794Z" fill="#E6EBEF"/>
<path d="M161.357 329.604L119.765 353.657V353.845L161.357 329.792V329.604Z" fill="#E6EBEF"/>
<path d="M111.058 361.988C113.689 360.485 115.819 357.102 115.819 354.409C115.819 351.715 113.689 350.838 111.058 352.404C108.365 353.97 106.298 357.29 106.298 359.984C106.298 362.677 108.427 363.554 111.058 361.988Z" fill="#E6EBEF"/>
<path d="M118.575 272.916C126.217 268.469 132.418 258.697 132.418 251.118C132.418 243.539 126.217 240.908 118.575 245.292C110.933 249.74 104.732 259.511 104.732 267.091C104.669 274.733 110.87 277.363 118.575 272.916Z" fill="url(#paint0_linear_69_47)"/>
<path fill-rule="evenodd" clip-rule="evenodd" d="M110.933 263.332C114.942 259.261 117.698 256.505 119.013 255.189C122.834 251.368 123.648 250.617 124.15 250.366C124.275 250.304 124.525 250.178 124.713 250.241C124.839 250.304 124.901 250.366 124.901 250.491C124.964 250.617 124.964 250.805 124.901 251.055C124.713 253.31 123.836 259.198 123.335 261.892C123.147 263.082 122.772 263.583 122.396 263.834C121.581 264.397 120.955 264.084 120.203 264.084C119.013 264.021 118.262 263.896 117.134 263.771C115.756 263.646 116.696 262.643 117.447 261.391C117.635 261.077 121.206 255.816 121.268 255.44C121.268 255.377 121.268 255.252 121.206 255.252C121.143 255.189 121.018 255.315 120.892 255.377C120.767 255.503 118.825 257.883 115.004 262.643C114.441 263.332 113.939 263.834 113.501 264.084C113 264.397 112.06 264.648 111.309 264.836C110.432 265.024 109.743 265.337 109.805 264.773C109.993 264.397 110.306 263.959 110.933 263.332Z" fill="white"/>
<path d="M181.84 303.17C185.159 301.229 187.853 296.969 187.853 293.649C187.853 290.33 185.159 289.202 181.84 291.081C178.52 293.023 175.826 297.282 175.826 300.602C175.826 303.922 178.457 305.112 181.84 303.17Z" fill="#DB9300"/>
<path d="M181.84 297.22C182.842 296.656 183.656 295.403 183.656 294.401C183.656 293.399 182.842 293.085 181.84 293.649C180.837 294.213 180.023 295.466 180.023 296.468C180.023 297.47 180.837 297.783 181.84 297.22Z" stroke="white" stroke-width="0.6644" stroke-miterlimit="10"/>
<path d="M181.84 305.425C183.844 304.298 185.473 301.73 185.473 299.725C185.473 297.721 183.844 297.032 181.84 298.222C179.835 299.349 178.207 301.918 178.207 303.922C178.207 305.926 179.835 306.615 181.84 305.425Z" stroke="white" stroke-width="0.6644" stroke-miterlimit="10"/>
<path d="M181.84 228.568C185.159 226.626 187.853 222.367 187.853 219.047C187.853 215.727 185.159 214.6 181.84 216.479C178.52 218.421 175.826 222.68 175.826 226C175.826 229.32 178.457 230.51 181.84 228.568Z" fill="#DB9300"/>
<path d="M181.84 222.555C182.842 221.991 183.656 220.738 183.656 219.736C183.656 218.734 182.842 218.42 181.84 218.984C180.837 219.548 180.023 220.801 180.023 221.803C180.023 222.805 180.837 223.118 181.84 222.555Z" stroke="white" stroke-width="0.6644" stroke-miterlimit="10"/>
<path d="M181.84 230.823C183.844 229.695 185.473 227.127 185.473 225.123C185.473 223.118 183.844 222.429 181.84 223.62C179.835 224.747 178.207 227.315 178.207 229.32C178.207 231.324 179.835 231.95 181.84 230.823Z" stroke="white" stroke-width="0.6644" stroke-miterlimit="10"/>
<path d="M289.703 131.791L299.287 126.279C299.287 126.279 300.226 125.59 300.289 124.588C300.352 123.586 300.289 114.879 300.289 114.879C300.289 114.879 299.913 110.995 295.654 113.25C291.833 115.317 287.699 120.329 287.699 120.329L287.949 132.856L289.703 131.791Z" fill="white" stroke="#C4C4C4" stroke-width="0.6644" stroke-miterlimit="10"/>
<path d="M187.916 227.064L288.576 168.936C288.576 168.936 289.139 169.186 289.515 167.621C289.828 166.055 289.515 120.579 289.515 120.579C289.515 120.579 289.265 116.883 295.654 113.125C295.027 113.501 198.376 169.312 198.376 169.312C198.376 169.312 195.307 170.314 193.992 177.142L194.179 216.228C194.179 216.228 193.365 223.056 187.916 227.064Z" fill="white" stroke="#C4C4C4" stroke-width="0.6644" stroke-miterlimit="10"/>
<path d="M283.94 158.914L200.506 207.083V207.897L283.94 159.728V158.914Z" fill="#D6DFE5"/>
<path d="M283.94 153.59L200.506 201.759V202.573L283.94 154.404V153.59Z" fill="#D6DFE5"/>
<path d="M283.94 148.328L200.506 196.497V197.311L283.94 149.08V148.328Z" fill="#D6DFE5"/>
<path d="M283.94 143.066L200.506 191.235V192.05L283.94 143.881V143.066Z" fill="#D6DFE5"/>
<path d="M283.94 137.805L200.506 185.974V186.788L283.94 138.619V137.805Z" fill="#D6DFE5"/>
<path d="M283.94 132.48L200.506 180.649V181.464L283.94 133.295V132.48Z" fill="#D6DFE5"/>
<path d="M283.94 127.219L200.506 175.388V176.202L283.94 128.033V127.219Z" fill="#D6DFE5"/>
<path d="M234.769 191.862L200.506 211.656V212.47L234.769 192.676V191.862Z" fill="#D6DFE5"/>
<path d="M242.536 162.797L242.474 166.242L241.785 166.681L241.722 163.361L242.536 162.797ZM242.098 167.871C241.973 167.934 241.847 167.996 241.785 167.871C241.722 167.808 241.659 167.746 241.659 167.558C241.659 167.433 241.722 167.307 241.785 167.119C241.847 166.994 241.973 166.806 242.098 166.744C242.223 166.681 242.348 166.618 242.411 166.744C242.474 166.806 242.536 166.869 242.536 167.057C242.536 167.119 242.474 167.245 242.474 167.37C242.474 167.495 242.411 167.558 242.286 167.621C242.286 167.683 242.223 167.808 242.098 167.871Z" fill="white"/>
<path d="M292.271 227.691L292.209 231.136L291.52 231.575L291.457 228.255L292.271 227.691ZM291.833 232.765C291.708 232.827 291.582 232.89 291.52 232.765C291.457 232.702 291.394 232.639 291.394 232.451C291.394 232.326 291.457 232.201 291.52 232.013C291.582 231.888 291.708 231.7 291.833 231.637C291.958 231.574 292.083 231.512 292.146 231.637C292.209 231.7 292.271 231.762 292.271 231.95C292.271 232.013 292.209 232.138 292.209 232.264C292.146 232.389 292.146 232.451 292.021 232.514C292.021 232.639 291.896 232.702 291.833 232.765Z" fill="white"/>
<path d="M293.336 210.779L211.029 258.321C209.651 259.136 208.586 258.634 208.586 257.256V228.129C208.586 226.751 209.714 224.998 211.029 224.246L293.336 176.703C294.714 175.889 295.779 176.39 295.779 177.768V205.266C295.779 205.893 297.596 207.396 300.101 206.895C298.974 207.772 294.025 210.34 293.336 210.779Z" fill="#DDEBBD" stroke="#C4C4C4" stroke-width="0.6644" stroke-miterlimit="10"/>
<path d="M194.681 297.345L276.988 249.802C278.366 248.988 279.43 247.673 279.43 246.796V228.129C279.43 227.253 278.303 227.19 276.988 227.942L194.681 275.484C193.302 276.298 192.238 277.614 192.238 278.491V296.092C192.238 296.531 190.421 299.162 187.916 301.229C188.98 300.79 193.929 297.783 194.681 297.345Z" fill="white" stroke="#C4C4C4" stroke-width="0.6644" stroke-miterlimit="10"/>
<path d="M293.336 270.661L211.029 318.204C209.651 319.018 208.586 318.893 208.586 318.016V299.349C208.586 298.472 209.714 297.094 211.029 296.343L293.336 248.8C294.714 247.986 295.779 248.111 295.779 248.988V266.589C295.779 267.028 297.596 267.592 300.101 266.715C298.974 267.592 294.025 270.222 293.336 270.661Z" fill="#DDEBBD" stroke="#C4C4C4" stroke-width="0.6644" stroke-miterlimit="10"/>
<path d="M268.97 240.908L200.443 280.433V281.247L268.97 241.722V240.908Z" fill="#D6DFE5"/>
<path d="M286.07 192.551L217.544 232.138V232.953L286.07 193.428V192.551Z" fill="#C9D6A2"/>
<path d="M286.07 197.437L217.544 237.024V237.838L286.07 198.313V197.437Z" fill="#C9D6A2"/>
<path d="M254.751 220.55L217.606 242.035V242.85L254.751 221.365V220.55Z" fill="#C9D6A2"/>
<path d="M234.707 265.274L200.443 285.005V285.82L234.707 266.026V265.274Z" fill="#D6DFE5"/>
<path d="M221.051 295.028C217.481 297.095 214.6 301.667 214.6 305.175C214.6 308.683 217.544 309.998 221.051 307.931C224.622 305.864 227.566 301.291 227.566 297.721C227.566 294.151 224.622 292.96 221.051 295.028ZM219.611 304.862V299.725H223.995L219.611 304.862Z" fill="#3CB54A"/>
<path d="M290.33 261.14L232.765 294.401C232.514 294.526 232.326 294.84 232.326 295.027C232.326 295.278 232.514 295.341 232.765 295.215L290.33 261.954C290.58 261.829 290.768 261.516 290.768 261.328C290.705 261.015 290.517 261.015 290.33 261.14Z" fill="#C9D6A2"/>
<path d="M242.787 290.079C243.351 289.766 243.852 289.014 243.852 288.388C243.852 287.761 243.413 287.573 242.787 287.949C242.161 288.325 241.722 289.014 241.722 289.64C241.722 290.267 242.223 290.392 242.787 290.079Z" fill="#3CB54A"/>
<path d="M242.599 288.638L232.639 294.401C232.389 294.526 232.201 294.84 232.201 295.027C232.201 295.278 232.389 295.341 232.639 295.215L242.599 289.453C242.85 289.327 243.037 289.014 243.037 288.826C243.037 288.576 242.85 288.513 242.599 288.638Z" fill="#3CB54A"/>
<path d="M602.332 446.988C596.757 446.299 592.623 444.107 588.802 441.539C588.176 441.1 587.612 440.662 586.986 440.223C585.42 439.159 583.666 438.156 581.536 437.405C579.219 436.528 576.901 435.651 574.583 434.774C572.892 434.085 571.201 433.459 569.51 432.77C568.946 432.519 568.319 432.268 567.756 432.08C566.19 431.517 565.062 431.517 564.561 432.08C564.06 432.644 563.684 433.208 563.183 433.772C562.682 434.335 561.68 434.461 559.988 434.085C557.107 433.459 554.915 433.709 554.351 434.711C553.787 435.839 555.165 437.405 557.733 438.658C558.423 438.971 559.237 439.284 560.051 439.597C562.181 440.286 563.371 441.226 563.872 442.228C564.498 443.481 563.308 444.483 561.116 444.483C560.427 444.483 559.425 444.358 558.61 444.044C555.98 443.105 553.662 441.789 553.349 440.349C553.161 439.472 553.098 438.595 552.973 437.718C552.722 436.027 551.47 435.275 547.899 434.586C545.268 434.085 544.266 434.398 544.579 435.651C544.705 436.277 545.018 436.966 545.268 437.593C545.394 437.906 545.519 438.219 545.582 438.47C545.644 438.783 545.77 439.221 545.018 439.159C544.266 439.096 543.327 438.783 542.512 438.532C542.324 438.47 542.074 438.156 542.074 437.969C541.886 437.279 541.823 436.59 541.635 435.901C541.322 434.774 540.069 434.085 537.752 433.834C536.937 433.772 536.186 433.709 535.434 433.646C534.056 433.521 532.615 433.145 531.237 432.519C529.734 431.83 529.358 431.141 530.298 430.828C530.423 430.765 530.611 430.702 530.799 430.702C532.052 430.389 531.989 429.826 530.548 428.886C528.607 427.633 524.786 426.756 523.032 427.132C522.092 427.32 521.967 427.884 522.343 428.51C522.531 428.886 522.844 429.262 523.032 429.638C523.47 430.452 522.844 430.953 521.528 430.953C520.276 430.953 518.898 430.577 518.146 429.951C517.394 429.324 517.332 428.51 518.209 428.322C519.399 428.072 520.088 427.571 520.276 426.881C520.401 426.506 520.401 426.13 520.213 425.691C519.712 424.501 517.895 423.562 515.452 423.123C515.139 423.061 514.889 423.061 514.638 422.998C512.884 421.495 511.381 420.868 509.377 420.743C507.998 420.68 506.934 420.806 506.182 421.181C505.305 421.683 504.491 422.246 503.426 422.685C502.361 423.123 501.234 423.562 499.918 423.812C498.54 424.125 496.661 423.937 494.594 423.123C492.401 422.309 490.522 420.931 490.272 419.929C490.084 418.926 491.337 418.175 493.404 418.363C495.095 418.488 496.849 418.801 498.603 419.052C500.231 419.302 501.923 419.615 503.551 419.803C505.242 419.991 506.934 420.117 507.372 419.302C507.811 418.425 507.184 417.423 505.493 416.296C503.426 414.918 500.858 413.915 498.164 413.038C497.037 412.663 495.909 412.349 495.032 412.099C495.784 411.723 496.849 411.472 497.35 410.971C497.851 410.533 498.039 409.906 497.976 409.217C497.914 408.654 498.352 408.403 499.292 408.34C500.544 408.278 502.048 408.466 503.551 408.967C505.556 409.593 507.497 410.345 509.439 411.034C511.13 411.66 512.822 412.349 514.513 412.976C515.64 413.414 516.768 413.665 517.833 413.665C519.336 413.727 520.213 413.289 519.649 412.475C519.273 411.848 518.584 411.159 517.707 410.533C515.954 409.343 513.636 408.842 511.819 409.03C511.506 409.092 511.193 409.155 510.817 409.217C508.813 409.593 506.37 409.092 503.99 407.839C498.603 404.958 498.54 401.137 503.864 400.886C506.495 400.761 509.314 401.074 512.508 402.139C512.571 402.139 512.634 402.202 512.696 402.202C513.949 402.515 515.202 402.828 515.766 402.39C516.329 401.951 515.64 401.262 514.763 400.573C513.699 399.822 512.383 399.321 510.88 398.882C507.247 397.88 504.804 396.377 503.175 394.56C502.424 393.683 502.612 393.245 503.551 393.119C504.553 392.994 506.683 393.37 507.748 393.934C508.813 394.56 509.815 395.312 510.692 396.001C511.945 396.94 512.947 397.942 514.2 398.882C515.077 399.571 516.329 400.135 517.707 400.511C518.835 400.824 519.086 400.824 518.835 400.26C518.459 399.383 518.083 398.444 517.332 397.504C515.202 394.998 512.133 392.618 507.811 390.489C504.867 389.048 502.361 387.419 500.795 385.665C499.104 383.786 499.229 381.594 502.925 381.155C506.119 380.78 510.379 382.032 513.01 384.162C515.139 385.853 516.267 387.482 516.329 388.985C516.392 390.301 516.392 391.553 516.329 392.806C516.267 394.122 516.768 395.562 517.645 397.003C518.772 398.945 522.217 400.385 525.537 400.448C527.166 400.448 528.356 400.135 529.17 399.634C529.421 399.446 529.609 399.321 529.859 399.133C530.548 398.694 531.488 398.819 532.678 399.571C533.618 400.197 534.369 400.824 535.246 401.388C535.685 401.701 536.123 402.014 536.624 402.327C537.313 402.766 537.94 402.891 538.128 402.515C538.378 402.139 538.441 401.638 538.316 401.2C538.128 400.26 538.128 399.446 539.882 399.258C542.011 399.007 545.394 400.01 547.273 401.45C548.025 402.014 548.588 402.703 549.027 403.267C549.528 403.956 548.964 404.394 548.025 404.52C546.772 404.707 545.456 404.833 544.141 404.958C543.89 404.958 543.702 405.021 543.452 405.021C542.011 405.271 542.074 405.772 543.702 406.649C544.016 406.837 544.642 407.025 545.018 407.025C546.521 407.088 548.025 407.464 549.59 408.09C550.906 408.654 552.221 409.155 553.537 409.719C555.541 410.595 557.232 410.846 558.61 410.47C559.487 410.22 560.239 409.906 560.928 409.593C561.868 409.092 562.682 408.528 563.684 408.027C564.498 407.589 565.689 407.401 567.38 407.651C568.131 407.777 568.507 407.965 568.758 408.34C569.384 409.28 569.008 409.906 567.63 410.094C566.064 410.345 564.311 410.408 562.557 410.533C560.364 410.595 558.423 410.846 557.107 411.535C556.919 411.66 556.731 411.723 556.543 411.848C555.729 412.412 556.481 413.289 558.297 413.915C560.051 414.542 561.617 414.73 562.995 414.604C563.308 414.542 563.559 414.542 563.809 414.479C564.749 414.98 564.812 415.293 563.997 415.356C563.183 415.419 562.306 415.356 561.492 415.419C560.803 415.419 560.114 415.419 559.487 415.481C558.36 415.607 558.109 416.045 558.861 416.734C559.425 417.235 560.051 417.799 560.865 418.3C562.118 419.114 563.684 419.553 565.25 419.678C567.442 419.803 569.134 419.553 570.888 419.302C571.639 419.24 572.391 419.114 573.205 419.114C574.583 419.114 575.961 419.553 576.65 420.242C577.465 420.993 577.089 421.745 575.899 421.87C575.084 421.933 574.145 421.808 573.08 421.557C570.574 420.868 568.257 420.555 566.19 420.68C563.496 420.806 562.118 421.62 562.494 423.186C562.745 424.188 563.12 425.253 563.747 426.318C564.812 428.072 567.192 429.7 569.823 431.329C572.14 432.707 574.709 434.022 577.402 435.212C580.221 436.465 582.977 437.092 585.67 437.217C588.364 437.342 590.932 437.405 593.688 437.655C599.639 438.219 605.652 441.288 606.779 444.295C607.343 445.798 606.404 446.675 604.211 447.051C603.46 446.988 602.896 446.988 602.332 446.988Z" fill="#382D5B"/>
<path d="M461.834 413.414C461.834 413.352 461.834 413.352 461.834 413.289C460.581 410.971 462.084 409.719 466.093 409.656C468.661 409.656 471.48 410.094 474.424 410.721C476.742 411.222 479.059 411.848 481.44 412.412C485.01 413.352 486.326 414.604 484.885 415.732C484.133 416.296 482.88 416.609 481.502 416.797C480.813 416.922 480.187 416.985 479.561 417.173C477.807 417.611 475.865 417.924 473.485 417.862C469.789 417.799 466.406 416.734 463.337 414.667C463.149 414.542 463.024 414.479 462.836 414.354C462.46 414.041 462.147 413.728 461.834 413.414Z" fill="#382D5B"/>
<path d="M490.397 410.971C487.015 410.47 483.757 410.032 480.563 409.468C478.621 409.155 476.617 408.654 474.737 407.777C473.297 407.15 472.107 406.461 471.292 405.71C470.29 404.77 470.541 404.081 472.044 404.018C474.236 403.893 476.554 404.394 478.872 405.584C482.442 407.464 486.2 409.28 490.397 410.971Z" fill="#382D5B"/>
<path d="M530.924 441.414C532.052 442.792 532.177 443.857 531.425 444.671C531.049 445.047 530.235 445.109 529.296 444.859C528.043 444.483 527.166 443.919 527.041 443.418C526.978 443.042 527.041 442.667 527.291 442.416C527.792 441.915 528.419 441.476 529.108 441.038C529.296 440.913 529.734 440.85 530.11 440.975C530.36 441.038 530.736 441.288 530.924 441.414Z" fill="#382D5B"/>
<path d="M527.792 391.115C528.857 392.242 528.669 393.307 527.291 393.307C525.976 393.307 523.721 392.305 522.844 391.365C521.904 390.363 522.593 389.674 524.472 389.737C525.788 389.799 526.978 390.301 527.792 391.115Z" fill="#382D5B"/>
<path d="M602.833 428.448C603.522 429.137 603.146 429.888 602.144 429.888C601.205 429.888 599.513 429.199 598.636 428.385C598.073 427.821 598.198 427.383 599.012 427.32C600.641 427.383 602.144 427.759 602.833 428.448Z" fill="#382D5B"/>
<path d="M362.113 8.39348C361.675 10.3979 360.485 12.2144 358.731 13.6551C358.355 13.9683 357.917 14.2815 357.478 14.5321C354.847 16.1607 352.154 17.4761 349.711 20.3574C346.579 24.1158 344.199 28.062 342.758 32.1961C341.818 34.8896 340.44 37.3951 338.561 39.9007C337.246 41.6545 335.868 43.3458 334.552 45.0997C331.922 48.5448 330.481 51.9899 330.105 55.435C329.667 59.3186 331.17 61.7615 332.047 64.7055C332.861 67.2737 333.613 69.8419 333.3 73.1617C333.049 76.3563 330.794 79.3629 327.537 81.1795C324.342 82.9333 322.651 82.3696 322.213 79.4256C321.962 77.6091 322.087 75.6673 322.213 73.6628C322.401 70.4683 322.902 67.1484 322.025 64.5176C321.336 62.5132 319.331 61.511 317.264 62.5132C314.571 63.8286 313.631 66.3341 312.692 68.7144C311.627 71.4705 310.687 74.2892 309.622 77.0453C308.432 80.1772 306.553 82.6201 303.484 84.1235C301.417 85.1257 299.35 86.0026 297.345 86.6917C293.963 87.7565 292.083 89.8862 291.019 93.5819C290.517 95.3984 290.392 97.0897 290.392 98.7183C290.392 107.425 291.394 115.443 293.587 122.709C294.777 126.655 295.842 130.789 295.654 135.738C295.466 140.373 292.271 146.136 287.949 149.205C283.439 152.462 279.681 152.337 277.614 148.892C275.547 145.384 276.424 140.31 277.363 135.174C279.493 123.648 280.307 112.749 279.493 102.664C279.117 98.2798 278.366 94.2083 275.422 91.9533C273.292 90.3247 269.22 92.7049 267.279 96.6512C266.464 98.2798 266.088 99.7831 265.838 101.349C265.274 104.982 265.963 107.863 266.464 110.87C267.028 114.127 268.156 116.946 267.842 120.767C267.592 123.711 266.276 125.903 263.708 127.97C258.948 131.729 256.317 131.416 255.878 126.906C255.44 122.646 256.505 117.635 257.131 112.875C257.632 109.179 256.755 106.548 253.999 105.796C250.491 104.857 248.675 102.539 248.926 98.0292C248.988 97.2149 248.8 96.5259 248.612 95.7742C248.299 94.2083 247.36 93.3313 245.919 93.0181C242.85 92.3918 239.404 95.3984 238.402 99.5325C237.838 101.85 237.838 103.917 238.465 105.608C239.279 107.863 239.968 110.181 240.093 112.937C240.156 115.819 238.34 119.013 235.584 120.767C232.452 122.771 230.322 122.208 230.009 119.264C229.758 117.197 230.197 114.754 230.51 112.436C231.074 108.49 231.7 104.23 228.192 103.479C224.81 102.664 222.116 100.973 219.861 98.7183C218.045 96.9644 215.602 96.5885 211.844 98.9688C210.841 99.5952 210.027 99.9084 209.275 99.971C207.96 100.096 207.083 99.4699 206.707 98.2171C205.893 95.2731 208.023 91.7027 212.094 89.3851C236.147 75.4167 260.2 61.511 284.254 47.5426C284.254 47.5426 336.995 17.0376 356.413 5.76266C357.603 5.07364 358.731 4.57253 359.733 4.63517C361.737 4.57253 362.614 6.13849 362.113 8.39348Z" fill="#382D5B"/>
<path d="M359.169 4.38462C359.796 2.69338 264.021 59.0681 209.275 90.7005C208.774 91.3895 208.148 92.3291 207.521 93.5819C207.208 94.2709 206.958 94.8347 206.832 95.1479C206.018 97.3402 206.269 99.8457 206.582 101.349C257.632 71.8463 308.745 42.4062 359.796 12.9035C360.422 12.2144 361.424 10.899 361.925 9.08251C362.113 8.33084 362.239 7.64182 362.239 7.07807C362.239 7.01543 362.364 5.63739 361.236 4.76045C360.359 4.1967 359.295 4.38462 359.169 4.38462Z" fill="#423066"/>
<defs>
<linearGradient id="paint0_linear_69_47" x1="104.669" y1="267.12" x2="132.385" y2="267.12" gradientUnits="userSpaceOnUse">
<stop stop-color="#3FA9DF"/>
<stop offset="1" stop-color="#259ED9"/>
</linearGradient>
</defs>
</svg>
