<svg width="140" height="140" viewBox="0 0 140 140" fill="none" xmlns="http://www.w3.org/2000/svg">
<g filter="url(#filter0_d_372_1349)">
<circle cx="70" cy="70" r="52" fill="#9B0000"/>
</g>
<g clip-path="url(#clip0_372_1349)">
<path d="M69.5 41.5C63.7644 41.5 58.1575 43.2008 53.3885 46.3874C48.6195 49.5739 44.9024 54.1031 42.7075 59.4022C40.5126 64.7012 39.9383 70.5322 41.0572 76.1576C42.1762 81.7831 44.9382 86.9504 48.9939 91.0061C53.0496 95.0618 58.2169 97.8238 63.8424 98.9428C69.4678 100.062 75.2988 99.4874 80.5978 97.2925C85.8969 95.0976 90.4261 91.3806 93.6126 86.6115C96.7992 81.8425 98.5 76.2357 98.5 70.5C98.5 62.8087 95.4447 55.4325 90.0061 49.9939C84.5676 44.5553 77.1913 41.5 69.5 41.5ZM65.8992 56C65.8992 55.0386 66.2811 54.1166 66.9609 53.4367C67.6407 52.7569 68.5628 52.375 69.5242 52.375C70.4856 52.375 71.4076 52.7569 72.0874 53.4367C72.7673 54.1166 73.1492 55.0386 73.1492 56V72.6508C73.1492 73.1269 73.0554 73.5983 72.8732 74.0381C72.6911 74.4779 72.4241 74.8775 72.0874 75.2141C71.7508 75.5507 71.3512 75.8177 70.9114 75.9999C70.4716 76.1821 70.0002 76.2758 69.5242 76.2758C69.0481 76.2758 68.5768 76.1821 68.137 75.9999C67.6971 75.8177 67.2975 75.5507 66.9609 75.2141C66.6243 74.8775 66.3573 74.4779 66.1751 74.0381C65.9929 73.5983 65.8992 73.1269 65.8992 72.6508V56ZM69.5 88.625C68.6779 88.625 67.8743 88.3812 67.1907 87.9245C66.5071 87.4677 65.9744 86.8186 65.6598 86.059C65.3451 85.2995 65.2628 84.4637 65.4232 83.6574C65.5836 82.8511 65.9795 82.1104 66.5608 81.5291C67.1421 80.9478 67.8828 80.5519 68.6891 80.3915C69.4954 80.2312 70.3312 80.3135 71.0907 80.6281C71.8502 80.9427 72.4994 81.4755 72.9562 82.159C73.4129 82.8426 73.6567 83.6462 73.6567 84.4683C73.6567 85.5708 73.2187 86.628 72.4392 87.4075C71.6597 88.1871 70.6024 88.625 69.5 88.625Z" fill="white"/>
</g>
<defs>
<filter id="filter0_d_372_1349" x="0.200001" y="0.200001" width="139.6" height="139.6" filterUnits="userSpaceOnUse" color-interpolation-filters="sRGB">
<feFlood flood-opacity="0" result="BackgroundImageFix"/>
<feColorMatrix in="SourceAlpha" type="matrix" values="0 0 0 0 0 0 0 0 0 0 0 0 0 0 0 0 0 0 127 0" result="hardAlpha"/>
<feOffset/>
<feGaussianBlur stdDeviation="8.9"/>
<feComposite in2="hardAlpha" operator="out"/>
<feColorMatrix type="matrix" values="0 0 0 0 0.607843 0 0 0 0 0 0 0 0 0 0 0 0 0 0.6 0"/>
<feBlend mode="normal" in2="BackgroundImageFix" result="effect1_dropShadow_372_1349"/>
<feBlend mode="normal" in="SourceGraphic" in2="effect1_dropShadow_372_1349" result="shape"/>
</filter>
<clipPath id="clip0_372_1349">
<rect width="87" height="87" fill="white" transform="translate(26 27)"/>
</clipPath>
</defs>
</svg>
