<svg width="1920" height="430" viewBox="0 0 1920 430" fill="none" xmlns="http://www.w3.org/2000/svg">
<path d="M173.184 350.158C167.146 355.959 160.141 362.725 152.17 370.217C142.75 359.584 133.572 349.433 124.876 339.766C116.181 329.858 107.002 320.432 97.8236 311.49C88.6451 302.549 78.9835 293.848 69.3219 285.39C59.4188 276.931 49.7572 268.472 39.8541 260.014C43.4772 253.972 46.6172 248.897 49.2741 244.788C33.3325 196.937 16.9078 148.119 0 97.8502C2.17386 96.4002 4.58926 94.2251 7.72928 91.5667C10.8693 88.9083 14.4924 86.9749 18.357 85.2832C26.8109 82.1414 33.574 77.5496 38.4048 71.2661C43.2356 64.9825 48.308 58.699 53.1388 52.4154C63.7665 40.3317 74.8774 28.7314 86.2297 17.131C88.1621 15.6809 91.3021 13.9892 95.8913 12.2975C96.6159 28.0063 99.0313 42.9901 103.621 57.2489C108.21 71.5077 113.524 85.5249 119.804 99.3003C126.084 113.076 131.881 126.609 137.195 140.385C129.948 147.152 122.944 153.919 116.181 160.686C100.964 147.394 90.0944 132.168 83.0897 115.009C76.3266 97.8502 71.0127 79.9663 66.9065 61.1157C58.6942 70.2994 49.2741 80.933 38.8879 92.7751C51.6895 139.177 65.2158 187.995 79.4666 239.23C89.6113 247.93 101.447 258.08 114.973 269.681C113.765 257.114 112.316 246.238 110.625 237.055C109.418 231.496 108.693 226.421 108.693 222.313C108.693 215.546 110.867 209.987 114.973 206.12C119.079 202.254 126.084 198.628 135.745 195.728C147.822 245.272 160.141 296.748 173.184 350.158Z" fill="#0F0F0F" fill-opacity="0.35"/>
<path d="M191.058 202.495C196.13 217.962 200.72 234.396 205.309 251.797C209.173 267.989 212.072 284.423 213.521 301.34C213.763 303.032 213.763 304.482 213.763 305.932C213.763 311.49 212.313 315.599 209.173 318.499C206.033 321.399 200.72 324.299 193.232 327.199C189.126 319.707 185.261 311.974 182.121 303.757C170.044 270.647 158.692 237.538 147.822 204.187C142.75 187.27 138.885 170.594 135.745 153.435C135.745 152.71 135.504 152.227 135.504 151.744C135.504 149.81 135.987 147.877 136.711 145.702C137.436 143.527 138.402 141.593 139.127 139.902C140.576 136.76 142.508 133.86 144.441 130.96C146.373 128.06 148.064 124.918 149.272 121.776C152.412 111.142 160.624 104.617 173.426 102.684C171.01 109.692 169.802 116.459 169.802 122.743C169.802 129.026 170.527 135.31 172.218 141.352C173.667 147.393 175.599 153.194 177.773 159.236C179.947 165.036 181.879 170.836 183.812 176.878C197.821 169.144 211.106 162.136 223.424 155.369C217.144 149.085 210.864 143.043 204.343 136.518C198.063 130.235 191.783 123.709 185.744 116.701C174.633 102.925 164.005 88.1833 153.378 72.7161C145.89 84.7998 138.402 96.4002 131.156 107.517C123.91 118.634 114.973 128.301 104.104 136.518C101.447 134.101 99.9974 131.685 99.9974 129.51C99.9974 127.335 100.722 125.401 102.171 123.468C103.621 121.776 105.07 120.084 106.036 118.393C111.591 108.967 116.664 99.3003 121.253 89.6333C125.842 79.7247 129.224 69.5743 131.398 58.699C132.605 53.6238 133.088 48.5487 133.088 43.4735C133.33 33.3232 136.711 25.1062 142.75 19.0644C148.788 13.0225 157.242 9.63908 167.629 9.15573C191.299 62.0824 228.98 103.892 280.669 134.343C282.843 133.86 284.775 132.651 287.191 131.201C289.365 129.51 292.022 128.06 294.679 126.368C297.335 124.918 300.475 124.193 304.099 124.193C305.548 124.193 307.239 124.434 309.171 124.918C309.171 126.368 309.412 127.818 309.895 129.51C310.137 130.96 310.379 132.41 310.379 133.376C310.379 134.101 310.379 134.826 310.137 135.551C307.722 144.977 306.031 154.644 304.823 164.069C303.857 173.494 303.374 183.161 303.374 192.587C303.374 204.67 303.857 216.996 304.823 229.079C305.789 241.163 306.755 253.489 307.48 265.572C309.171 289.74 310.862 313.666 312.794 337.833C313.277 342.908 314.243 347.742 315.209 353.058C315.934 356.684 316.176 360.067 316.176 363.209C316.176 370.459 314.002 376.501 309.654 380.851C305.306 385.201 298.302 388.826 288.64 391.726C279.703 361.517 273.181 331.308 269.075 300.615C264.969 270.164 262.795 239.471 262.795 208.779C262.795 201.287 262.795 193.553 263.037 186.061C239.849 191.378 215.695 196.695 191.058 202.495Z" fill="#0F0F0F" fill-opacity="0.35"/>
<path d="M315.934 212.404C315.934 200.562 315.934 190.17 316.176 180.986C316.176 174.461 315.934 168.178 315.451 162.136C314.968 149.81 313.76 137.485 311.828 125.401C309.896 113.317 305.789 101.717 299.268 90.8417C294.679 83.5915 289.365 76.5829 283.568 70.0577C277.771 63.5325 271.974 56.7656 266.418 50.2404C261.105 43.4735 256.274 36.2233 251.201 28.7314C258.206 23.6562 264.728 19.0644 271.008 14.4726C298.302 20.0311 320.04 35.0149 335.982 59.424C346.851 75.6162 352.89 93.7418 354.097 113.317C354.58 121.776 354.822 129.993 354.822 138.452C354.822 150.535 354.58 162.619 354.097 174.944C353.856 177.844 353.373 180.745 352.407 183.403C351.44 186.061 350.716 188.478 350.233 190.412C373.662 197.662 397.575 204.912 421.487 212.162C415.449 199.837 409.652 187.028 403.855 173.736C395.401 152.227 387.913 130.476 381.391 108.726C380.425 104.859 379.701 101.234 379.701 97.6086C379.701 89.15 382.599 81.4164 388.396 74.6495C394.193 67.8826 402.888 62.8075 414.482 59.424C415.207 64.7409 415.932 70.0577 416.415 75.3745C416.898 80.6914 418.347 85.7665 420.038 90.8417C426.318 105.826 432.598 120.809 439.361 135.793C446.124 150.777 452.646 165.519 458.926 180.503C466.655 198.87 474.384 217.479 482.355 235.846C490.084 254.214 497.089 273.064 503.127 291.915C505.784 300.132 507.234 308.59 507.234 317.532C507.234 323.091 506.509 328.891 505.301 334.45C504.094 340.008 501.92 345.567 499.021 350.883C497.814 352.333 497.331 353.783 497.331 355.234V355.717C497.814 357.892 498.055 359.825 498.055 361.759C498.055 367.317 496.606 372.151 493.949 375.776C491.05 379.401 487.669 382.784 483.563 385.684C479.457 388.585 475.35 391.485 471.244 394.626C453.612 374.809 434.289 358.375 413.275 345.325C392.261 332.274 369.797 321.641 346.368 313.182C322.939 304.724 298.785 297.232 273.906 290.706C273.423 287.806 273.182 285.39 273.182 283.456C273.182 280.314 274.389 278.139 276.563 276.448C278.979 274.998 283.568 273.306 290.331 272.098C294.679 271.856 299.026 271.856 303.374 271.856C362.068 271.856 416.173 288.773 466.172 322.366C461.341 306.899 456.993 293.123 453.129 280.798C405.545 256.389 359.653 233.913 315.934 212.404Z" fill="#0F0F0F" fill-opacity="0.35"/>
<path d="M441.535 25.3479C451.438 18.581 460.858 11.8141 469.795 5.53061C521.726 45.6486 572.691 84.7998 622.69 123.226C625.347 122.501 627.762 121.776 629.936 120.568C632.11 119.359 634.284 118.393 636.216 117.426C638.148 116.459 640.322 115.976 642.254 115.976C644.911 115.976 647.81 117.426 650.95 120.326C648.534 127.335 645.153 133.618 640.564 138.935C635.974 144.252 630.902 149.327 625.105 153.919C610.371 166.969 596.362 180.503 582.594 194.762C576.072 201.045 569.792 207.57 563.512 214.337C557.232 221.346 549.986 229.079 542.257 237.538C546.846 253.247 551.435 268.956 556.266 284.906C561.58 301.823 568.102 317.774 576.073 333.483C584.043 348.95 592.256 364.417 600.951 379.643C605.057 386.41 606.99 392.693 606.99 398.252C606.99 407.435 601.193 415.41 589.84 422.177C586.942 423.627 582.594 426.044 577.039 429.428C570.034 421.211 563.271 412.994 556.991 404.535C547.329 390.518 536.943 377.226 525.832 364.417C514.963 351.608 502.644 340.25 488.877 330.099C486.703 328.408 484.77 326.474 483.08 324.299C481.389 322.124 479.698 319.949 477.766 317.774C485.012 305.207 494.674 299.165 506.268 299.165C508.683 299.165 511.34 299.407 513.997 299.89C505.784 269.439 498.297 238.746 491.292 208.054C485.978 182.195 481.872 156.094 478.973 129.751C478.249 124.193 478.007 118.393 478.007 112.592C478.007 106.067 478.249 99.542 478.732 93.0167C478.973 90.1166 479.94 87.4582 481.147 84.7998C482.355 82.1414 483.563 79.7247 484.77 77.3079C471.244 60.6324 456.752 43.4735 441.535 25.3479ZM587.425 158.269C565.203 141.835 542.257 125.159 518.828 108.242C524.383 142.802 530.18 177.603 535.977 212.887C554.092 193.553 571.242 175.428 587.425 158.269Z" fill="#0F0F0F" fill-opacity="0.35"/>
<path d="M744.184 313.907C735.972 322.366 727.035 331.549 717.132 341.458C710.852 335.175 706.504 328.649 704.089 321.882C701.432 315.116 700.224 308.349 700.224 301.098C700.224 295.782 700.707 289.981 701.915 284.181C702.156 282.006 702.398 279.831 702.398 277.656C702.398 272.823 701.673 267.747 700.465 262.672C699.258 257.597 698.05 252.522 696.601 247.688C690.321 220.621 683.316 194.037 675.587 167.936C666.408 140.143 656.505 111.626 645.636 82.8664C623.656 94.4668 602.4 106.067 581.386 116.943C599.26 131.926 618.342 147.877 638.631 164.552C628.487 174.703 620.033 183.403 613.27 190.653C584.526 170.836 556.025 151.26 527.281 131.926C563.271 106.067 599.26 80.4497 635.008 54.8322C634.042 49.032 633.076 42.0234 631.868 33.8065C641.53 27.2813 651.674 20.5144 662.302 13.5059C668.099 21.2394 673.654 28.4897 678.968 35.0149C686.456 32.8398 694.185 30.4231 701.915 28.248C709.644 26.0729 717.373 24.8646 725.344 24.8646C731.141 24.8646 737.179 25.8313 742.976 27.7647C748.773 29.6981 754.812 33.0815 760.609 37.915C759.401 40.5734 757.952 42.9901 756.986 44.9235C755.778 46.6153 753.604 49.2737 750.223 52.8988C759.401 79.2413 768.58 106.067 778.241 133.618C784.521 129.993 789.835 125.401 794.666 119.843C799.497 114.284 804.569 109.209 810.124 104.375C815.68 99.542 822.443 96.4002 830.655 94.7085C828.965 99.542 827.274 103.167 825.341 105.825C813.023 121.051 802.154 137.243 792.492 153.919C782.831 170.594 773.652 187.753 765.198 205.154C760.609 214.579 756.503 224.246 753.121 234.396C749.498 244.547 746.358 254.455 743.218 264.606C742.735 266.056 742.493 267.506 742.493 268.956C742.493 271.372 742.735 273.789 743.218 276.206C743.701 278.623 743.943 281.039 744.184 283.456V313.907ZM732.349 202.012C742.976 185.82 753.846 169.869 764.473 153.677C763.749 153.194 763.266 152.71 762.783 152.469C760.367 154.16 757.227 156.335 753.363 158.994C744.184 143.527 735.972 127.818 728.967 112.109C721.962 96.1585 717.132 79.2413 714.475 61.1157C706.021 62.5658 698.05 63.7741 690.321 64.9825C704.33 110.659 718.339 156.335 732.349 202.012Z" fill="#0F0F0F" fill-opacity="0.35"/>
<path d="M769.787 75.8579C776.309 64.9825 786.212 58.699 799.255 56.7656C804.086 64.7408 808.917 72.9578 813.748 80.933C822.201 74.6495 829.931 67.3993 836.935 59.1823C843.699 50.7237 851.186 42.9901 859.157 35.7399C867.128 28.4897 877.273 23.4145 889.591 20.5144C890.557 23.6562 891.765 27.0396 892.973 30.1814C894.18 33.3232 894.905 36.7066 894.905 39.8484V40.3317C894.905 44.6819 894.663 49.2737 894.663 53.6238C894.663 76.0995 896.113 98.5753 899.494 120.568C902.634 142.56 906.257 164.794 910.122 187.028C915.194 218.204 919.542 249.38 923.648 280.556C925.822 296.265 928.237 313.907 930.894 333.483C926.547 337.591 920.025 343.633 911.33 351.85C872.683 303.999 835.486 258.08 799.738 213.854C799.738 211.921 799.98 209.987 799.98 207.812C799.98 192.103 798.289 176.636 794.907 162.136C791.526 147.394 787.42 132.893 783.072 118.876C778.241 104.375 773.893 90.1167 769.787 75.8579ZM862.78 57.974C849.012 71.5077 834.762 85.0415 820.028 99.0586C824.375 112.592 828.723 127.093 832.588 142.56C835.245 157.06 837.902 173.978 840.075 193.553C851.669 209.746 865.437 229.079 881.62 251.555C879.688 232.946 877.031 214.821 873.891 196.695C870.751 178.57 867.852 160.686 865.196 142.56C862.539 124.676 861.331 106.551 861.331 88.4249C861.089 78.2746 861.572 68.1243 862.78 57.974Z" fill="#0F0F0F" fill-opacity="0.35"/>
<path d="M1154.32 400.185C1146.11 407.677 1138.14 415.41 1129.92 423.386C1110.12 404.293 1089.34 386.893 1067.85 371.667C1046.35 356.442 1024.37 341.7 1002.39 327.441C988.381 318.016 974.13 310.04 959.396 303.274C944.662 296.507 929.204 291.431 913.262 288.048C905.533 286.84 897.562 286.115 889.35 286.115C881.379 286.115 873.166 286.115 865.196 286.356H861.089C858.674 286.356 856.259 286.356 853.602 286.598L851.911 283.698C854.809 281.765 857.466 279.831 860.365 277.656C863.022 275.481 865.92 274.031 869.06 272.823C879.688 268.714 890.316 264.847 901.185 261.947C912.054 258.805 923.165 257.355 935.001 257.355H937.174C948.768 257.597 959.638 259.53 970.024 263.156C980.41 266.539 990.555 270.647 1000.7 274.998C1018.33 282.49 1035 291.431 1050.7 301.582C1066.4 311.974 1081.86 323.091 1096.59 335.175C1098.04 336.141 1100.46 337.108 1103.35 338.075C1097.32 319.224 1087.65 303.274 1074.37 289.981C1058.67 273.789 1042.73 257.839 1026.54 242.13C999.975 215.304 972.922 188.72 945.87 162.619C935.001 152.952 922.441 142.802 908.431 132.651C908.431 131.201 908.19 129.51 908.19 128.06C908.19 120.326 909.88 113.559 913.504 107.517C917.127 101.475 921.474 95.9169 926.788 90.8417C932.102 85.7665 937.658 80.933 943.455 76.0995C938.865 60.149 936.45 47.582 936.45 38.1567C936.45 28.0063 939.59 20.2727 945.87 14.9559C952.15 9.63907 962.536 4.80559 976.787 0.213772C978.719 4.56391 980.169 9.15573 980.893 13.9892C983.55 49.032 995.869 80.4497 1018.33 107.759C1027.27 119.118 1036.45 131.926 1046.35 145.943C1039.59 152.952 1032.1 160.202 1024.13 168.178C1009.39 157.544 996.11 146.427 983.792 134.343C971.473 122.259 960.604 108.967 951.184 93.9835C948.044 103.65 945.387 111.626 943.455 117.909C971.473 144.01 999.009 169.628 1025.58 195.003C1047.08 214.821 1068.09 235.363 1088.38 256.389C1096.83 265.089 1104.32 274.514 1111.08 284.665C1117.85 294.815 1123.16 305.69 1127.27 317.291C1134.51 337.35 1141.52 357.65 1148.28 377.709C1150.21 383.993 1151.42 390.76 1152.63 397.527C1152.87 398.01 1153.59 398.977 1154.32 400.185Z" fill="#0F0F0F" fill-opacity="0.35"/>
<path d="M1212.53 117.668C1216.15 115.493 1219.53 113.317 1222.67 110.901C1225.81 108.484 1229.2 106.309 1232.58 104.617C1235.96 102.925 1239.82 101.959 1244.17 101.959C1245.14 101.959 1246.35 101.959 1247.55 102.2C1246.1 110.659 1242.72 117.668 1237.41 123.226C1232.09 128.785 1226.78 134.343 1221.47 140.385C1232.58 169.386 1243.69 198.387 1255.28 227.146C1266.88 255.905 1276.54 285.631 1284.99 316.082C1278.47 320.674 1271.71 325.508 1264.46 330.824C1237.89 279.106 1211.08 227.146 1184.27 174.944C1174.37 179.536 1164.46 184.128 1154.56 188.72C1159.15 207.329 1163.74 225.696 1167.85 244.063C1171.47 258.564 1174.61 273.064 1176.78 287.806V288.531C1176.78 291.19 1176.06 293.848 1174.61 296.507C1173.16 299.165 1171.47 301.824 1169.78 304.24C1168.57 305.932 1166.64 307.382 1164.22 308.832C1161.81 310.282 1159.15 311.732 1156.01 313.666C1139.59 273.064 1124.61 231.98 1110.84 190.17C1097.32 148.36 1086.69 105.1 1078.96 60.3907C1087.9 54.8322 1098.52 48.307 1110.6 40.8151C1116.88 54.1072 1121.47 67.3993 1124.85 80.933C1128.23 94.4668 1131.37 107.759 1134.51 121.051C1137.65 134.343 1142 147.152 1147.31 159.477C1151.9 156.819 1156.73 154.885 1161.81 154.16C1166.88 153.435 1169.78 151.019 1170.74 147.394C1165.91 132.893 1161.32 119.359 1156.73 106.792C1152.39 94.2252 1148.76 81.8998 1146.35 69.816C1145.62 66.1909 1145.38 62.8075 1145.38 59.1823C1145.38 47.8236 1148.76 38.1567 1155.77 30.1814C1162.53 22.2062 1171.95 17.6143 1183.79 16.406C1185.24 34.0482 1189.1 50.9654 1194.9 67.3993C1201.18 84.0748 1206.97 100.75 1212.53 117.668Z" fill="#0F0F0F" fill-opacity="0.35"/>
<path d="M1379.43 299.165C1375.57 302.307 1372.19 305.207 1368.81 307.865C1358.9 286.115 1351.17 263.397 1345.62 240.197C1340.06 216.754 1333.54 193.312 1326.3 169.628C1314.94 177.119 1303.83 184.37 1292.96 191.62C1294.65 206.362 1296.59 221.346 1298.76 236.571C1303.35 264.847 1307.46 293.123 1311.32 321.399C1313.98 343.875 1315.67 366.592 1316.39 389.31V390.035C1316.39 393.418 1315.43 397.285 1313.74 401.877C1312.04 406.468 1310.11 410.819 1308.18 414.927C1306.25 419.036 1305.04 421.936 1304.32 423.627C1296.59 385.201 1289.58 347.017 1283.3 309.557C1277.02 271.856 1269.29 234.88 1260.35 198.387C1254.8 197.662 1249 197.42 1243.45 197.42C1237.89 197.42 1232.58 196.453 1227.75 194.278C1222.92 192.345 1218.57 187.995 1214.95 181.47C1226.3 174.703 1238.37 167.211 1251.42 159.236C1248.04 141.835 1243.93 121.534 1239.58 98.3336C1270.02 77.0662 1300.21 56.0406 1330.16 35.0149C1338.61 33.3232 1346.83 31.6315 1354.31 30.1814C1355.04 33.0815 1355.52 35.9816 1355.76 38.64C1357.45 73.4411 1359.14 108.242 1361.08 143.043C1362.04 157.786 1364.7 181.47 1368.32 214.096C1372.19 246.722 1375.33 270.406 1377.98 285.148C1378.71 289.74 1379.19 294.332 1379.43 299.165ZM1273.4 93.2584C1277.5 113.801 1281.85 134.343 1285.96 154.885C1297.07 151.26 1308.18 147.394 1319.05 143.768C1316.88 119.601 1314.46 94.7085 1311.8 69.091C1299.24 77.0662 1286.44 85.0415 1273.4 93.2584Z" fill="#0F0F0F" fill-opacity="0.35"/>
<path d="M1420.74 202.495C1425.81 217.962 1430.4 234.396 1434.99 251.797C1438.85 267.989 1441.75 284.423 1443.2 301.34C1443.44 303.032 1443.44 304.482 1443.44 305.932C1443.44 311.49 1441.99 315.599 1438.85 318.499C1435.71 321.399 1430.4 324.299 1422.91 327.199C1418.81 319.707 1414.94 311.974 1411.8 303.757C1399.72 270.647 1388.37 237.538 1377.5 204.187C1372.43 187.27 1368.56 170.594 1365.42 153.435C1365.42 152.71 1365.18 152.227 1365.18 151.744C1365.18 149.81 1365.67 147.877 1366.39 145.702C1367.12 143.527 1368.08 141.593 1368.81 139.902C1370.26 136.76 1372.19 133.86 1374.12 130.96C1376.05 128.06 1377.74 124.918 1378.95 121.776C1382.09 111.142 1390.3 104.617 1403.1 102.684C1400.69 109.692 1399.48 116.459 1399.48 122.743C1399.48 129.026 1400.21 135.31 1401.9 141.352C1403.59 147.393 1405.28 153.194 1407.45 159.236C1409.63 165.036 1411.56 170.836 1413.49 176.878C1427.5 169.144 1440.79 162.136 1453.1 155.369C1446.82 149.085 1440.54 143.043 1434.02 136.518C1427.74 130.235 1421.46 123.709 1415.42 116.701C1404.31 102.925 1393.68 88.1833 1383.06 72.7161C1375.57 84.7998 1368.08 96.4002 1360.84 107.517C1353.59 118.634 1344.65 128.301 1333.78 136.518C1331.13 134.101 1329.68 131.685 1329.68 129.51C1329.68 127.335 1330.4 125.401 1331.85 123.468C1333.3 121.776 1334.75 120.084 1335.72 118.393C1341.27 108.967 1346.34 99.3003 1350.93 89.6333C1355.52 79.7247 1358.9 69.5743 1361.08 58.699C1362.28 53.6238 1362.77 48.5487 1362.77 43.4735C1363.01 33.3232 1366.39 25.1062 1372.43 19.0644C1378.47 13.0225 1386.92 9.63908 1397.31 9.15573C1420.98 62.0824 1458.66 103.892 1510.35 134.343C1512.52 133.86 1514.7 132.651 1516.87 131.201C1519.04 129.51 1521.7 128.06 1524.36 126.368C1527.01 124.918 1530.15 124.193 1533.78 124.193C1535.23 124.193 1536.92 124.434 1538.85 124.918C1538.85 126.368 1539.09 127.818 1539.57 129.51C1539.82 130.96 1540.06 132.41 1540.06 133.376C1540.06 134.101 1540.06 134.826 1539.82 135.551C1537.4 144.977 1535.47 154.644 1534.5 164.069C1533.54 173.494 1533.05 183.161 1533.05 192.587C1533.05 204.67 1533.54 216.996 1534.5 229.079C1535.47 241.163 1536.43 253.489 1537.16 265.572C1538.85 289.74 1540.54 313.666 1542.47 337.833C1542.96 342.908 1543.92 347.742 1544.89 353.058C1545.61 356.684 1545.85 360.067 1545.85 363.209C1545.85 370.459 1543.68 376.501 1539.33 380.851C1534.99 385.201 1527.98 388.826 1518.32 391.726C1509.38 361.517 1502.86 331.308 1498.75 300.615C1494.65 270.164 1492.47 239.471 1492.47 208.779C1492.47 201.287 1492.47 193.553 1492.72 186.061C1469.53 191.378 1445.37 196.695 1420.74 202.495Z" fill="#0F0F0F" fill-opacity="0.35"/>
<path d="M1586.92 203.462C1593.44 219.412 1599.48 235.846 1604.79 252.039C1610.1 268.472 1614.69 285.148 1617.83 302.548C1621.22 319.707 1622.91 337.35 1622.91 355.475C1622.91 363.692 1622.42 371.909 1621.7 380.126C1616.38 384.476 1608.9 390.518 1599.48 398.252C1597.3 388.343 1595.37 379.401 1594.16 371.909C1587.4 318.741 1573.39 267.747 1552.38 218.446C1533.54 173.978 1514.7 128.06 1495.61 80.933C1504.31 74.6495 1513.49 68.1243 1523.39 61.3574C1525.81 64.4992 1528.22 67.6409 1530.64 70.541C1533.05 73.4411 1534.99 76.5829 1536.44 79.7246C1550.2 111.626 1564.21 144.735 1578.46 178.811C1584.02 172.286 1589.09 166.002 1594.16 160.202C1583.78 150.052 1576.53 138.693 1572.67 126.126C1568.56 113.559 1566.39 100.509 1566.14 86.9749V84.5581C1566.14 64.7408 1571.46 46.1319 1582.09 28.4897C1584.74 24.6229 1588.12 21.4811 1592.47 18.8227C1596.82 16.1643 1601.41 13.5059 1606.48 10.8474C1605.27 20.2727 1604.07 29.4564 1603.1 38.64C1602.13 47.8236 1601.41 57.0073 1601.41 66.1909C1601.41 76.8246 1602.38 87.2166 1604.55 97.6086C1606.72 108.001 1610.59 118.151 1616.14 128.301C1621.22 120.568 1626.53 112.834 1631.84 105.342C1637.16 97.8502 1643.68 91.5667 1651.17 86.7332C1658.65 81.658 1668.32 78.758 1679.67 78.2746C1679.67 88.1833 1679.91 97.3669 1680.15 105.825C1680.15 110.901 1679.91 115.734 1679.43 120.568C1678.46 129.51 1677.49 138.452 1677.01 147.635C1676.29 156.577 1676.04 165.519 1676.04 174.703C1676.04 187.995 1677.25 201.287 1679.67 214.821C1687.16 254.697 1694.16 294.815 1700.44 334.933C1701.41 342.183 1702.13 350.4 1702.61 359.584C1697.78 363.209 1691.02 368.526 1682.57 375.051C1671.7 336.383 1661.07 298.682 1650.92 261.947C1642.23 230.046 1637.88 197.178 1637.88 163.827C1637.88 158.269 1637.88 152.71 1638.12 147.152C1621.22 165.519 1604.07 184.611 1586.92 203.462Z" fill="#0F0F0F" fill-opacity="0.35"/>
<path d="M1920 400.185C1911.79 407.677 1903.82 415.41 1895.6 423.386C1875.8 404.293 1855.03 386.893 1833.53 371.667C1812.03 356.442 1790.05 341.7 1768.07 327.441C1754.06 318.016 1739.81 310.04 1725.08 303.274C1710.34 296.507 1694.88 291.431 1678.94 288.048C1671.21 286.84 1663.24 286.115 1655.03 286.115C1647.06 286.115 1638.85 286.115 1630.88 286.356H1626.77C1624.36 286.356 1621.94 286.356 1619.28 286.598L1617.59 283.698C1620.49 281.765 1623.15 279.831 1626.05 277.656C1628.7 275.481 1631.6 274.031 1634.74 272.823C1645.37 268.714 1656 264.847 1666.87 261.947C1677.74 258.805 1688.85 257.355 1700.68 257.355H1702.86C1714.45 257.597 1725.32 259.53 1735.71 263.156C1746.09 266.539 1756.24 270.647 1766.38 274.998C1784.01 282.49 1800.68 291.431 1816.38 301.582C1832.08 311.974 1847.54 323.091 1862.27 335.175C1863.72 336.141 1866.14 337.108 1869.04 338.075C1863 319.224 1853.34 303.274 1840.05 289.981C1824.35 273.789 1808.41 257.839 1792.23 242.13C1765.66 215.304 1738.6 188.72 1711.55 162.619C1700.68 152.952 1688.12 142.802 1674.11 132.651C1674.11 131.201 1673.87 129.51 1673.87 128.06C1673.87 120.326 1675.56 113.559 1679.18 107.517C1682.81 101.475 1687.16 95.9169 1692.47 90.8417C1697.78 85.7665 1703.34 80.933 1709.14 76.0995C1704.55 60.149 1702.13 47.582 1702.13 38.1567C1702.13 28.0063 1705.27 20.2727 1711.55 14.9559C1717.83 9.63907 1728.22 4.80559 1742.47 0.213772C1744.4 4.56391 1745.85 9.15573 1746.57 13.9892C1749.23 49.032 1761.55 80.4497 1784.01 107.759C1792.95 119.118 1802.13 131.926 1812.03 145.943C1805.27 152.952 1797.78 160.202 1789.81 168.178C1775.08 157.544 1761.79 146.427 1749.47 134.343C1737.15 122.259 1726.29 108.967 1716.87 93.9835C1713.73 103.65 1711.07 111.626 1709.14 117.909C1737.15 144.01 1764.69 169.628 1791.26 195.003C1812.76 214.821 1833.77 235.363 1854.06 256.389C1862.51 265.089 1870 274.514 1876.76 284.665C1883.53 294.815 1888.84 305.69 1892.95 317.291C1900.19 337.35 1907.2 357.65 1913.96 377.709C1915.89 383.993 1917.1 390.76 1918.31 397.527C1918.55 398.01 1919.28 398.977 1920 400.185Z" fill="#0F0F0F" fill-opacity="0.35"/>
</svg>
