<svg width="95" height="80" viewBox="0 0 95 80" fill="none" xmlns="http://www.w3.org/2000/svg">
<path d="M83.9646 68.0354C83.823 67.8938 83.7522 67.823 83.646 67.7522C83.9646 67.0796 83.9646 67.0797 84.7434 67.2566C84.8496 67.292 85.0265 67.1504 85.0973 67.0797C84.885 66.8673 84.5664 66.5841 84.6018 66.4779C84.708 66.1947 84.9911 65.9823 85.2389 65.6991C85.2389 65.6283 85.1681 65.4159 85.1327 65.2035C85.2743 65.1327 85.4159 65.0973 85.4867 65.062C85.2743 64.6018 85.0973 64.2124 84.9203 63.7876C84.9203 63.7522 85.1327 63.5752 85.2743 63.5398C85.5221 63.5044 85.8053 63.5398 86.0531 63.5752C86.2301 64.0354 86.2301 64.0354 87.115 63.8584C87.0089 63.7522 86.9381 63.6814 86.8319 63.5752C87.469 63.469 87.292 63.0442 87.2566 62.6195C87.0442 62.9027 86.9027 63.1858 86.6549 63.3274C86.4779 63.3982 86.1593 63.2566 85.9115 63.1858C86.3009 62.1947 86.4071 62.1239 87.2212 62.4071C86.9734 61.9115 87.2212 61.3451 86.6903 61.0265C86.6549 60.9911 86.6549 60.8142 86.6903 60.708C86.8673 60.3186 86.7257 60.0354 86.4425 59.7522C86.4779 59.8938 86.5133 60.0354 86.5841 60.2124C86.3717 60.2124 86.1947 60.177 85.9823 60.177C86.0177 59.9646 86.0177 59.7168 86.0531 59.4336C85.8761 59.4336 85.7345 59.4336 85.5575 59.3982C85.2389 59.3628 85.0619 59.1504 85.1681 58.8319C85.3097 58.3717 85.0973 58.1593 84.7434 57.9823C82.6903 56.9912 80.4956 56.4602 78.2655 56.177C74.0177 55.6106 69.8407 55.8938 65.6991 57.0973C63.7876 57.6637 61.9823 58.4425 60.3186 59.5398C60.0708 59.7168 59.9292 59.8584 59.9646 60.177C60 60.3894 59.8584 60.7434 59.7168 60.8142C59.5398 60.885 59.2566 60.7434 58.9027 60.6726C58.6195 60.9911 57.9823 61.2035 58.0531 61.9469C58.0531 62.0531 57.9115 62.2301 57.8053 62.2301C57.2035 62.2655 57.0619 62.7611 56.7788 63.1858C57.2035 63.2212 57.5221 63.3628 57.3805 63.7876C57.2035 64.3186 56.708 64.177 56.2832 64.177C56.177 64.3894 56.0708 64.6018 55.9292 64.885C54.9381 64.3186 53.8761 63.823 53.4513 62.6903C51.1858 56.5664 49.5575 50.2301 47.7522 43.9646C45.8407 37.3097 43.9292 30.6903 41.9823 24.0708C41.6637 23.0089 41.2389 21.9823 40.7788 20.8496C44.354 22.7257 47.3274 25.3097 50.5487 27.646C50.6195 27.5044 50.6903 27.3982 50.7611 27.292C50.8319 27.2212 50.9027 27.115 51.0089 27.0796C51.0442 27.0442 51.1858 27.1504 51.1858 27.1858C51.1858 27.292 51.1858 27.469 51.115 27.5044C50.9027 27.6106 50.7257 27.7522 50.9735 27.9646C51.1858 28.1062 51.2566 28.5664 51.6814 28.2832C51.823 28.177 52.0354 28.1416 52.2478 28.0708C52.2478 28.0354 52.2124 27.9646 52.2124 27.9292C52.1062 27.9292 51.9646 27.8938 52 27.8938C51.7876 27.3982 51.646 27.0089 51.469 26.6195C51.2566 26.1947 51.3982 26.0177 51.8938 26.0177C52.2832 26.0177 52.708 26.0531 53.1327 26.0885C53.0973 26.1947 53.0619 26.3717 53.0265 26.6195C53.3097 26.6195 53.5575 26.6195 53.8053 26.5841C54.0531 26.5841 54.3009 26.5841 54.6195 26.5487C54.4071 26.8673 55.0796 27.4336 54.2655 27.6106C54.5133 27.6106 54.7611 27.5752 55.0088 27.5752C54.9734 27.3274 54.9734 27.0442 54.9381 26.7965C54.9381 26.7611 55.115 26.6549 55.115 26.6903C55.2212 26.7611 55.3628 26.9027 55.3628 27.0089C55.3628 27.2212 55.292 27.4336 55.2566 27.7168C55.469 27.6814 55.6814 27.646 55.8584 27.646C55.7522 27.292 55.6814 27.0089 55.5752 26.6195C55.823 26.6549 55.9292 26.6903 56.0354 26.6903C55.9646 26.4425 55.9292 26.2301 55.8584 25.9469C55.646 26.0177 55.4336 26.0885 55.1504 26.1593C55.1504 26.1947 55.1858 26.3009 55.115 26.3717C55.0442 26.4425 54.9027 26.5487 54.8319 26.5133C54.5841 26.3363 54.6903 25.9115 54.9027 25.7345C55.0442 25.6283 55.0089 25.3451 55.0796 25.1327C55.646 25.2035 55.646 25.2035 55.469 24.2478C55.6106 24.177 55.7522 24.1062 55.9646 24C55.6106 23.8938 55.115 23.0089 55.2566 22.7611C55.3274 22.6549 55.5398 22.5841 55.7168 22.5487C55.9292 22.5487 56.177 22.5841 56.2832 22.5841C56.4602 22.7611 56.6018 22.9735 56.7434 23.0089C57.0619 23.0442 57.1681 22.7965 57.1681 22.4779C57.2035 22.0177 57.1681 21.5575 57.2389 21.1327C57.3451 20.6372 57.3097 20.1416 57.3097 19.646C57.3451 19.1504 57.3451 18.6549 57.3805 18.1593C57.3805 17.3097 57.3805 16.4956 57.4159 15.5752C57.2389 15.6814 57.0973 15.7876 56.9557 15.8584C56.9204 15.823 56.885 15.7876 56.8496 15.7522C57.0266 15.5752 57.1681 15.3982 57.4513 15.115C57.6991 10.8319 57.6991 6.44248 57.6991 1.9823C58.0531 2.26549 58.3717 2.51327 58.6903 2.69026C60.708 3.8938 61.9823 5.62832 62.9734 7.78761C65.6637 13.5929 68.531 19.292 71.3628 25.0265C71.4336 25.2035 71.646 25.3451 71.8584 25.4159C72.2124 25.5575 72.4248 25.8407 72.2832 26.1239C72 26.6549 72.354 26.9735 72.531 27.3982C72.6726 27.2212 72.7434 27.0089 72.885 26.9381C73.0265 26.8673 73.2389 26.9027 73.3451 26.9027C73.5929 26.7257 73.7699 26.4779 73.9823 26.4071C74.1239 26.3363 74.4425 26.4425 74.5133 26.5841C74.5841 26.6903 74.5487 27.0442 74.4425 27.115C74.0177 27.4336 73.7345 27.8584 73.4159 28.2478C73.5221 28.354 73.6283 28.4602 73.7345 28.5664C74.9027 26.8673 76 25.2035 77.1681 23.5398C78.9734 21.0266 80.885 18.5841 83.2212 16.5664C84.3894 15.5752 85.5929 14.6549 87.1504 14.4071C87.4336 14.3717 87.7168 14.4779 88 14.5487C88.1062 14.5841 88.2124 14.6903 88.2832 14.7257C89.4159 15.469 90.2655 16.354 89.5575 17.8407C89.0973 21.4159 88.531 24.9912 88.2124 28.6018C87.8938 32.2832 87.7168 36 87.6106 39.6814C87.469 44.9912 87.6814 50.3363 88.2478 55.6106C88.354 56.6018 88.4956 57.5929 88.6018 58.5841C88.6726 59.115 89.0619 59.0443 89.4159 59.0443C89.5221 59.0443 89.6283 59.0442 89.7345 59.0796C89.7699 59.0796 89.7699 59.2566 89.7345 59.2566C89.6283 59.292 89.5221 59.3628 89.4159 59.3628C88.7434 59.3274 88.6018 59.5398 88.8496 60.1416C88.9204 60.2832 88.8496 60.531 88.885 60.6726C89.0266 61.1327 89.2743 61.5575 89.4159 62.0531C89.6283 62.8673 89.9469 63.7168 89.8407 64.4956C89.6991 65.5221 89.2743 66.5487 88.7788 67.5044C88.177 68.708 87.2212 69.6637 86.0885 70.3009C84.531 71.2212 83.7168 72.3894 83.9292 74.2655C84.0354 75.1504 83.8938 76.1062 83.823 77.0266C83.7876 77.3451 83.6814 77.6637 83.5044 77.9469C83.115 78.6549 82.1947 78.6549 81.8407 77.9115C81.6991 77.5929 81.6637 77.2035 81.6637 76.8142C81.6991 75.5398 81.7699 74.3009 81.8407 73.0266C81.8407 72.708 81.8407 72.4248 81.8053 72.1062C73.2389 74.0531 64.7434 72.9557 56.177 71.646C56.2124 72.4248 56.2832 73.1681 56.3186 73.9115C56.354 74.8319 56.4248 75.7876 56.4248 76.708C56.4248 76.9911 56.2478 77.3097 56.0708 77.5221C55.646 77.9823 54.9027 77.8407 54.6903 77.2743C54.5487 76.9204 54.5133 76.4956 54.5133 76.1416C54.5487 74.7965 54.6549 73.4867 54.6903 72.1416C54.7257 71.469 54.5487 70.9381 53.9469 70.5133C53.5575 70.2301 53.2743 69.7699 52.8496 69.3097C54.4425 69.5575 55.8584 69.8053 57.2743 70.0177C59.3982 70.3009 61.5575 70.5487 63.6814 70.7257C66.5487 71.0089 69.4159 71.0797 72.2832 70.9027C75.646 70.7257 78.9381 70.3009 82.0531 68.9204C82.7611 68.6726 83.3274 68.354 83.9646 68.0354ZM43.6106 23.5752C43.823 24.1062 43.9646 24.531 44.1062 24.9558C45.6283 30.0531 47.1858 35.1504 48.6726 40.2832C50.5841 46.8319 52.4248 53.3805 54.3009 59.9292C54.3717 60.1416 54.4425 60.354 54.5487 60.6372C54.8673 60.2124 55.1504 59.8938 55.4336 59.5752C57.4159 57.3097 59.9646 56.0354 62.7611 55.115C65.6991 54.1593 68.7434 53.7699 71.823 53.7699C75.3628 53.7699 78.8319 54.2301 82.1239 55.646C83.3628 56.177 84.531 56.9204 85.6283 57.5221C85.8053 57.3805 85.9823 57.2389 86.1947 57.0973C84.4956 44.0708 84.9557 31.0796 86.6903 17.9823C86.5487 18.0531 86.4779 18.0885 86.4071 18.1593C85.1327 19.4336 83.823 20.6372 82.6195 21.9469C81.4159 23.2566 80.2832 24.6726 79.7522 26.4425C79.4336 27.4336 78.9734 28.3894 78.9381 29.4867C78.9381 30.1947 78.5841 30.6903 77.8407 30.8319C77.3805 30.9027 77.2743 31.1858 77.3451 31.5752C77.3805 31.7522 77.4159 31.9646 77.4159 32.1416C77.4513 32.708 77.4867 33.3097 77.0619 33.8053C76.6372 34.2655 76.1416 34.3009 75.7876 33.8053C75.6106 33.5575 75.469 33.2743 75.2212 32.885C75.115 33.1327 74.9734 33.2743 74.9734 33.4159C75.2212 34.5841 75.3982 35.7876 75.7522 36.9558C76.0354 37.9115 76.1416 38.8319 75.7522 39.7522C75.6106 40.1062 75.292 40.4602 74.9027 40.354C74.5841 40.2832 74.3009 40 74.0885 39.7522C73.9115 39.5398 73.8407 39.2566 73.8053 39.0089C73.6283 37.6991 73.3805 36.4248 73.3097 35.115C73.2389 33.6637 73.1327 32.177 72.4956 30.8673C69.1327 24.1416 65.6637 17.4867 62.2301 10.7965C62.1593 10.6549 62.0531 10.5487 61.9115 10.3009C61.9823 13.9115 62.0531 17.3805 62.1239 20.7434C62.3717 20.885 62.5841 20.9912 62.7965 21.1327C62.3009 21.3097 62.0177 21.4513 62.0531 22.0177C62.0885 22.7965 62.0177 23.5752 62.0531 24.354C62.0531 24.4956 62.1593 24.6726 62.1947 24.7788C62.1239 24.9912 62.0177 25.1681 62.0177 25.3805C61.9823 26.3009 61.9469 27.2212 61.9115 28.1416C61.9115 28.5664 61.8761 28.9912 61.8407 29.3451C62.0531 29.3805 62.2301 29.4159 62.3717 29.4513L62.3363 29.6991C62.1593 29.6991 61.9823 29.6991 61.8053 29.6991C61.6991 30.5133 61.6637 31.3628 61.5221 32.2124C61.3805 33.0619 61.2389 33.9115 60.9557 34.6903C60.6726 35.646 60.2124 35.7522 59.3628 35.292C59.0796 35.1504 58.8319 34.9735 58.5841 34.7965C57.2035 33.8761 55.8584 32.9204 54.4779 31.9646C54.3717 32.0354 54.2301 32.1062 54.0177 32.2478C54.3009 31.3982 53.4867 31.4336 53.3097 31.0442C53.0973 31.115 52.9558 31.1504 52.8142 31.1858C52.7788 31.0442 52.8142 30.8673 52.7434 30.7611C52.6726 30.6195 52.5664 30.5133 52.4602 30.4425C51.7168 29.8407 50.8673 29.3451 50.1593 28.708C49.2035 27.8938 48.177 27.2212 47.1858 26.4425C46.0177 25.5221 44.885 24.6018 43.6106 23.5752ZM54.0177 28.4602C53.6991 29.0266 53.7699 29.2035 54.2301 29.3451C54.3363 29.3805 54.4071 29.4867 54.5133 29.5575C54.4071 29.6637 54.3009 29.8053 54.1593 29.9115C54.1239 29.9469 54.0177 29.9115 53.8407 29.9115C54.3717 30.3009 54.8319 30.6195 55.292 30.9735C55.5044 30.6195 55.7168 30.6549 55.7876 31.1504C55.823 31.0796 55.8938 31.0443 55.9292 30.9735C55.7522 30.6195 55.5752 30.2655 55.3274 29.8761C55.5044 29.8053 55.7876 29.7345 56.177 29.5929C55.823 29.4159 55.646 29.3097 55.4336 29.1681C55.292 29.7345 54.9734 29.9469 54.5841 29.8407C54.6903 29.5929 54.8319 29.3451 54.9381 29.0973C54.9381 29.0619 54.9381 28.9912 54.9381 28.9558C54.0885 29.6283 54.3717 28.5664 54.0177 28.4602ZM83.3982 71.6814C82.9381 71.7168 82.7965 71.8938 82.8673 72.3186C82.9381 72.5664 82.8673 72.8142 82.8673 73.0974C82.7965 74.3717 82.7257 75.646 82.6903 76.9204C82.6903 77.0974 82.6903 77.2743 82.7257 77.4159C82.7611 77.4159 82.8319 77.4159 82.8673 77.4159C83.469 75.5398 82.7611 73.5929 83.3982 71.6814ZM74.7611 39.115C74.8319 39.115 74.9027 39.0797 74.938 39.0797C75.3982 37.7699 74.4425 36.7434 74.3363 35.5398C74.2655 35.5398 74.2301 35.5752 74.1593 35.5752C74.3717 36.7434 74.5841 37.9469 74.7611 39.115ZM77.9823 28.354C77.6637 28.885 77.3097 29.4159 76.9557 30.0177C77.9823 29.8053 78.0177 30.0885 77.9823 28.354ZM76.4248 31.3274C76 32.0708 76.0354 32.4248 76.531 32.9558C76.4602 32.354 76.4248 31.8584 76.4248 31.3274ZM53.3097 27.6814C53.0619 27.6106 52.8496 27.5752 52.4956 27.5044C52.6726 27.8938 52.8496 28.2478 53.0265 28.6018C53.0973 28.6018 53.1681 28.6018 53.2389 28.6018C52.9557 28.2124 52.8496 27.8938 53.3097 27.6814ZM54.4779 27.9646C54.6549 28.6726 55.0796 28.3186 55.3982 28.4248C55.3982 28.354 55.4336 28.3186 55.4336 28.2478C55.1504 28.177 54.8319 28.0708 54.4779 27.9646Z" fill="#5B40AD" stroke="#5B40AD" stroke-width="0.9452" stroke-miterlimit="10"/>
<path d="M45.5575 42.5841C45.4159 42.6903 45.2743 42.9381 45.0973 42.9735C44.7434 43.0442 44.6372 42.7611 44.5664 42.4779C44.2478 41.0619 43.9292 39.646 43.5398 38.2655C42.6195 35.0442 41.6637 31.823 40.7434 28.6018C40.6726 28.3186 40.531 28.0354 40.4248 27.7522C40.3186 27.469 40.2478 27.1504 40.6372 27.0089C40.9912 26.8673 41.2035 27.115 41.2743 27.3982C41.6283 28.4956 41.9823 29.5929 42.3009 30.7257C43.2212 33.9115 44.1062 37.0973 45.0265 40.3186C45.2743 40.9912 45.3805 41.7345 45.5575 42.5841Z" fill="#5B40AD" stroke="#5B40AD" stroke-width="0.9452" stroke-miterlimit="10"/>
<path d="M48 51.469C47.8584 51.5752 47.7168 51.823 47.5752 51.823C47.3982 51.823 47.115 51.6814 47.0796 51.5044C46.7611 50.3717 46.4779 49.2035 46.2301 48.0354C46.1947 47.8938 46.4425 47.646 46.5841 47.469C46.7611 47.6106 47.0442 47.7168 47.115 47.8938C47.3628 48.708 47.5398 49.5575 47.7522 50.4071C47.7876 50.7611 47.8938 51.0796 48 51.469Z" fill="#5B40AD" stroke="#5B40AD" stroke-width="0.9452" stroke-miterlimit="10"/>
<path d="M70.9027 23.115C70.6549 22.7611 70.4071 22.5133 70.4425 22.4425C70.5841 22.1947 70.8319 22.0177 71.0796 21.8407C71.115 21.8053 71.5044 22.1593 71.469 22.2301C71.3628 22.5133 71.1504 22.7257 70.9027 23.115Z" fill="#5B40AD" stroke="#5B40AD" stroke-width="0.9452" stroke-miterlimit="10"/>
<path d="M84.1416 66.4779C83.823 66.4425 83.5752 66.4071 83.292 66.3717C83.2566 66.3009 83.2566 66.2655 83.2212 66.1947C83.3982 66.0885 83.5752 65.8761 83.7522 65.8407C84.0354 65.8407 84.177 66.0531 84.1416 66.4779Z" fill="#5B40AD" stroke="#5B40AD" stroke-width="0.9452" stroke-miterlimit="10"/>
<path d="M53.4513 24.8142C53.6283 24.9912 53.8053 25.2035 53.9823 25.3805C53.8761 25.4867 53.7699 25.5575 53.6637 25.6637C53.4867 25.4513 53.3451 25.2389 53.1681 25.0266C53.2743 24.9558 53.3805 24.885 53.4513 24.8142Z" fill="#5B40AD" stroke="#5B40AD" stroke-width="0.9452" stroke-miterlimit="10"/>
<path d="M52.3894 25.6283C52.2478 25.4513 52.0708 25.2389 51.9292 25.0619C52.0354 25.0265 52.1062 24.9557 52.2124 24.9203C52.3186 25.1327 52.4248 25.3451 52.531 25.5575C52.4956 25.5575 52.4602 25.5929 52.3894 25.6283Z" fill="#5B40AD" stroke="#5B40AD" stroke-width="0.9452" stroke-miterlimit="10"/>
<path d="M72.531 50.938C73.4513 50.9734 74.4071 51.0088 75.3274 51.0796C75.646 51.115 75.9646 51.2212 75.9292 51.6106C75.8938 52 75.5752 52 75.2566 52C73.5575 51.8938 71.8584 51.7522 70.1593 51.7522C65.2035 51.7168 60.7434 53.2743 56.9204 56.4602C56.2832 56.9911 55.7168 57.5575 55.115 58.1239C54.8673 58.3363 54.6195 58.5841 54.3363 58.3009C54.0177 57.9823 54.2301 57.7345 54.4779 57.4513C57.5221 54.3363 61.1327 52.2124 65.4513 51.2566C67.823 50.7611 70.1593 50.8319 72.531 50.938Z" fill="#5B40AD" stroke="#5B40AD" stroke-width="0.9452" stroke-miterlimit="10"/>
<path d="M79.9646 52.3894C81.3097 52.6018 82.3009 53.1681 83.292 53.6991C83.4336 53.7699 83.5398 54.1593 83.469 54.2301C83.3628 54.3717 83.0442 54.5133 82.9027 54.4425C82.4779 54.3009 82.1239 54.0531 81.6991 53.8761C81.1327 53.6637 80.6018 53.4513 80 53.3097C79.6814 53.2389 79.3982 53.0973 79.5044 52.7434C79.5752 52.5664 79.8584 52.4602 79.9646 52.3894Z" fill="#5B40AD" stroke="#5B40AD" stroke-width="0.9452" stroke-miterlimit="10"/>
<path d="M28.0354 68.6018C27.115 69.4867 26.0885 70.4779 24.8496 71.646C23.4336 70.0531 22.0531 68.4956 20.708 67.0089C19.3628 65.5221 18.0177 64.0708 16.6372 62.7257C15.2566 61.3805 13.8053 60.0354 12.3186 58.7611C10.8319 57.4867 9.34513 56.2124 7.8584 54.9381C8.42478 54.0531 8.88495 53.2743 9.27433 52.6372C6.86725 45.4159 4.38938 38.0177 1.84071 30.4425C2.15929 30.2301 2.54867 29.9115 3.00885 29.5221C3.46902 29.1327 4.0354 28.8142 4.60177 28.6018C5.8761 28.1416 6.90265 27.4336 7.64602 26.4779C8.38938 25.5221 9.13274 24.5664 9.8761 23.6106C11.5044 21.8053 13.1681 20 14.8673 18.2655C15.1504 18.0531 15.646 17.8053 16.354 17.5221C16.4602 19.8938 16.8496 22.1593 17.5221 24.354C18.1947 26.5133 19.0088 28.6372 19.9646 30.6903C20.885 32.7434 21.7699 34.8319 22.5841 36.9204C21.4867 37.9469 20.4248 38.9735 19.3982 40C17.0973 37.9823 15.4336 35.6814 14.4071 33.0619C13.3805 30.4779 12.5664 27.7522 11.9646 24.885C10.7257 26.2655 9.30973 27.8584 7.71681 29.6637C9.66371 36.6726 11.7168 44.0708 13.8407 51.8584C15.3628 53.1681 17.1681 54.7257 19.2212 56.4956C19.0088 54.5841 18.7965 52.9558 18.5487 51.5398C18.3363 50.6903 18.2655 49.9469 18.2655 49.3097C18.2655 48.2832 18.5841 47.469 19.1858 46.8673C19.823 46.2655 20.8496 45.7345 22.3363 45.2743C24.2124 52.708 26.0885 60.4956 28.0354 68.6018Z" fill="white"/>
<path d="M58.3717 76.177C57.1327 77.3097 55.8938 78.4779 54.6903 79.6814C51.6814 76.7788 48.5664 74.1593 45.2743 71.8584C42.0177 69.5575 38.6903 67.3274 35.3274 65.1681C33.2035 63.7522 31.0443 62.5487 28.8142 61.4867C26.5841 60.4602 24.2478 59.6814 21.8053 59.1858C20.6372 58.9734 19.4336 58.9027 18.1947 58.9027C16.9912 58.9027 15.7522 58.9027 14.5133 58.9381H13.9115C13.5575 58.9381 13.1681 58.9381 12.7788 58.9735L12.531 58.5133C12.9558 58.2301 13.3805 57.9115 13.8053 57.5929C14.2301 57.2743 14.6549 57.0266 15.115 56.8496C16.708 56.2124 18.3363 55.646 19.9646 55.1858C21.5929 54.7257 23.292 54.5133 25.0619 54.5133H25.4159C27.1858 54.5487 28.8496 54.8673 30.4071 55.3628C31.9646 55.8938 33.5221 56.4956 35.0442 57.1681C37.6991 58.3009 40.2124 59.646 42.6195 61.2035C45.0266 62.7611 47.3274 64.4602 49.5575 66.2655C49.7699 66.4071 50.1239 66.5487 50.5841 66.7257C49.6637 63.8584 48.2124 61.4513 46.1947 59.4336C43.823 56.9911 41.4159 54.5841 38.9735 52.177C34.9381 48.1062 30.8673 44.1062 26.7611 40.1416C25.0973 38.6549 23.2212 37.1327 21.0973 35.5752C21.0973 35.3628 21.0619 35.115 21.0619 34.9027C21.0619 33.7345 21.3451 32.708 21.8761 31.7876C22.4071 30.8673 23.0796 30.0177 23.8938 29.2389C24.708 28.4602 25.5575 27.7168 26.4071 27.0089C25.6991 24.6018 25.3451 22.6903 25.3451 21.2389C25.3451 19.6814 25.8407 18.5487 26.7965 17.7345C27.7522 16.9204 29.3097 16.2124 31.469 15.5044C31.7522 16.177 31.9646 16.8496 32.1062 17.5575C32.4956 22.8673 34.3717 27.6106 37.7699 31.7522C39.115 33.4867 40.531 35.3982 42.0177 37.5221C40.9911 38.5841 39.8584 39.6814 38.6549 40.885C36.4248 39.292 34.4071 37.5929 32.5664 35.7522C30.6903 34.0531 29.0266 32 27.6106 29.7699C27.1504 31.2212 26.7257 32.4248 26.4425 33.3805C30.6903 37.3451 34.8319 41.2389 38.9027 45.0619C42.1593 48.0708 45.3451 51.1504 48.3894 54.3363C49.6637 55.6814 50.7965 57.0973 51.823 58.6195C52.8496 60.1416 53.6637 61.8053 54.2655 63.5752C55.3628 66.6195 56.4248 69.6637 57.4513 72.708C57.7345 73.6637 57.9469 74.6903 58.0885 75.7168C58.1947 75.823 58.2655 76 58.3717 76.177Z" fill="#5B40AD"/>
</svg>
