<svg width="465" height="325" viewBox="0 0 465 325" fill="none" xmlns="http://www.w3.org/2000/svg">
<path d="M464.412 18.8263C462.477 25.4601 457.503 29.3989 450.179 29.6753C442.233 30.0208 434.219 29.1225 426.826 33.7523C417.154 39.8332 409.899 47.9872 405.201 58.1451C402.092 64.848 397.808 70.2379 392.005 74.5913C387.997 77.6318 383.783 80.534 379.775 83.5745C371.692 89.6554 367.063 97.6712 365.543 107.829C363.815 119.231 367.961 129.596 370.241 140.307C372.245 149.774 374.248 159.241 373.005 168.984C371.83 178.382 365.059 183.91 355.317 183.634C345.852 183.426 340.808 178.52 339.979 168.569C339.496 162.558 340.117 156.615 340.67 150.672C341.637 141.067 343.434 131.531 341.223 121.857C339.496 114.394 333.623 107.622 327.543 107C319.459 106.102 316.488 112.321 313.517 118.056C310.063 124.759 307.092 131.807 303.637 138.51C299.768 146.111 294.103 150.396 284.845 149.428C278.627 148.806 272.547 147.839 266.536 146.25C256.587 143.555 250.714 146.595 247.328 156.408C245.67 161.176 245.048 166.22 244.841 171.264C243.943 198.49 245.947 225.371 251.474 252.113C254.514 266.694 257.139 281.412 256.034 296.546C254.998 310.78 244.91 322.804 232.059 324.67C218.518 326.674 207.463 319.487 201.936 304.976C196.339 290.395 199.379 275.953 202.765 261.58C210.365 229.448 213.889 196.832 212.645 163.871C212.092 149.566 210.227 135.332 202.005 123.031C195.994 114.048 183.834 114.186 177.685 123.031C175.129 126.694 173.885 130.771 172.987 135.124C170.845 145.489 172.572 155.717 173.747 165.944C175.06 177.069 178.1 188.125 176.649 199.458C175.543 208.165 171.536 212.656 163.729 214.384C149.358 217.562 141.758 211.689 140.998 196.901C140.238 182.735 143.831 169.053 146.249 155.302C148.183 144.591 145.903 134.779 137.958 127.523C127.871 118.333 122.827 107.691 124.071 94.0088C124.278 91.5212 123.794 88.9644 123.449 86.4768C122.62 81.0177 119.994 76.457 115.849 73.002C107.005 65.539 96.5033 68.6486 93.1179 79.7048C91.1833 85.993 90.9761 92.3504 92.6343 98.7768C94.8452 107.276 96.5033 115.776 96.5033 124.552C96.4342 133.673 90.7688 140.514 82.4779 140.929C73.0816 141.482 66.9325 135.884 66.3107 126.072C65.8961 119.162 67.347 112.39 68.5216 105.549C70.5252 94.147 72.8743 82.1234 62.7179 73.2784C52.838 64.6407 45.3071 54.5518 38.8125 43.2883C33.7689 34.5124 26.5835 28.8461 15.3217 29.5371C7.23807 30.0208 1.84899 25.0455 0.398082 17.9971C-1.74373 7.35548 4.88898 0.0307118 17.118 0.0307118C89.0415 -0.0383898 160.965 0.0307118 232.888 0.0307118C232.888 0.0307118 390.554 0.099807 448.659 0.099807C452.183 0.099807 455.499 0.445315 458.539 2.51836C463.79 6.24985 466.208 12.7454 464.412 18.8263Z" fill="#1F1A27"/>
</svg>
