<?xml version="1.0" encoding="utf-8"?>
<!-- Generator: Adobe Illustrator 26.5.0, SVG Export Plug-In . SVG Version: 6.00 Build 0)  -->
<svg version="1.1" id="Слой_1" xmlns="http://www.w3.org/2000/svg" xmlns:xlink="http://www.w3.org/1999/xlink" x="0px" y="0px"
	 viewBox="0 0 401.5 666.3" style="enable-background:new 0 0 401.5 666.3;" xml:space="preserve">
<style type="text/css">
	.st0{fill:#FFC69C;}
	.st1{fill:#191919;}
	.st2{fill:#121212;}
	.st3{fill:#313131;}
	.st4{fill:#060606;fill-opacity:0.7;}
	.st5{fill:#8A4A43;}
	.st6{fill:#263238;}
	.st7{fill:#1C1C1C;}
	.st8{fill:#455A64;}
	.st9{fill:#FFFFFF;}
	.st10{opacity:0.3;}
	.st11{fill:#0C0C0C;}
	.st12{fill:#060606;}
	.st13{fill:#141414;}
	.st14{clip-path:url(#SVGID_00000006677136896708848910000002669254707848371116_);}
</style>
<path class="st0" d="M89.8,545.4c0.9,0.3,9.7,8.1,13.9,13.9c4.2,5.8,17,19.8,15.3,23.1c-1.6,3.3-7.8,4.7-12.6,0.8
	c-4.8-3.9-15.9-12.3-15.9-12.3l-17.3,36.5l-3.4-2.8l-13.1-30.6l-9.2-14.7l26.2-26.4C70.9,531.8,82,542.3,89.8,545.4z"/>
<path class="st1" d="M323,601.1l-21.8-78.6L96.4,535.4c0,0-29.6,60.5-29.6,66c0,3.7,7,28.7,14.2,64.9h119.7l-0.9-19.3l6.7,1.4
	c0,0,1.2,6.7,3.6,17.9l119.2-0.9L323,601.1z"/>
<path class="st2" d="M309.1,531c0,0-0.3-22-0.3-53.5c0-31.5,2.2-121.7,2.2-121.7l24.5-120.7L287,209.2L141.6,197l-24.5,8.9
	c0,0-49.6,19.3-55.5,33.1c-5.8,13.7,27.8,126.8,27.8,126.8s-3.1,69.6-4.5,87.8c-3.1,39.2,1.1,68.6,1.1,68.6L81.7,539
	c0,0,61.3,32.9,134,31.2c69.9-1.6,95.6-25.1,95.6-25.1L309.1,531z"/>
<path class="st2" d="M0.4,415.6c-0.6-1.7-1.6-29.5,5.5-47.1c7-17.6,55.5-129.6,55.5-129.6l46.8,87.2l-19,39.8l-19.5,46.3l-3,99.7
	l9.5,24.6l-34.5,28.4l-14.2-40.7c0,0-8.7-2.8-12.8-16.5C10.7,493.9,0.4,415.6,0.4,415.6z"/>
<path class="st3" d="M131.5,427.6c0,0-0.2,0.9-0.6,2.7c-0.5,1.7-1.2,4.2-2.2,7.2c-2,5.9-5.5,14-10.3,22.3
	c-4.8,8.4-10.1,15.3-14.2,20.1c-2,2.3-3.7,4.2-5,5.5c-1.2,1.2-1.9,1.9-2,1.9c0,0,0.6-0.8,1.7-2c1.2-1.2,2.8-3.3,4.8-5.6
	c4.1-4.8,9.2-11.9,13.9-20.1c4.8-8.3,8.3-16.2,10.5-22.2c1.1-3,1.9-5.3,2.5-7C131.2,428.4,131.5,427.4,131.5,427.6z"/>
<path class="st4" d="M130.2,322.6c2.1,0.4,4.6,0.5,4.9,3.5c0.1,1,1.6,1.9,1.4,2.7c-0.3,2.2-0.7,4.2,0.9,6c0.1,0.1,0.1,0.4,0.1,0.6
	c-0.8,3.3,1.1,5.3,3.5,7c1.7,1.2,2.7,2.7,3.2,4.7c1,4,2.9,7.3,5.7,10.5c2.2,2.5,3.6,5.8,5.4,8.7c0.1,0.2,0.3,0.8,0.1,0.9
	c-1.8,1.8-1.4,3.8-0.8,5.8c-2,0.9-4.2,1.5-5.7,2.7c-1.9,1.6-3.8,2.3-6.1,2.7c-2.2,0.4-3.5,1.7-4.4,3.6c7.6,0.8,15.3,1.6,22.9,2.3
	c-1.4-1.7-2.7-3.5-4.1-5.2c-0.9-1.2-1.3-2.3,0.8-2.7c-0.3-0.8-0.6-1.5-1-2.7c1,0.7,1.6,1.1,2.5,1.7c1.6-2.4-0.6-4.1-1-6.4
	c0.6,0.4,1.2,0.7,1.5,1.1c4.2,4,8.3,8,12.4,12.1c0.8,0.8,1.5,1.7,2.4,2.4c0.5,0.4,0.8,0.8,1.1,1.2c1.8,0.2,3.6,0.4,5.5,0.6
	c17.6,1.8,35.2,3.6,52.8,5.5c-0.2-0.3-0.6-0.6-0.8-0.9c-1.6-1.6-2.7-3.8-4-5.6c4-2.6,4.1-2.9,2.5-7.2c-0.2-0.5,0-1.2,0.2-1.8
	c0.2-0.5,0.7-1.1,0.8-1.6c1.7-7.4-1.1-13.2-6.1-18.2c-0.4-0.4-0.9-0.6-1.5-0.7c-1.8-0.3-2.3-1.5-1.9-3.1c0.5-1.8,1.2-3.5,1.7-5.3
	c0.8-2.6,1.4-5.2,2.1-8c3.5,1.8,6.7,2.1,9-1.5c1.3-2.1,3.2-3.2,5.7-3.6c3.6-0.6,4.5-2,4.7-5.6c0.1-0.7,0.7-1.6,1.4-1.8
	c4.3-1.8,4.9-4.5,1.6-7.8c-0.3-0.3-0.5-0.4-0.8-0.7c0.8-1,1.5-1.9,2.1-2.7c2.1-2.7,2-5.5-0.2-8.1c-1.9-2.2-4.3-3.4-7.2-3.8
	c-0.9-0.2-1.9-0.4-3-0.6c1-2.3,1.3-4.2,0-6.2c-0.2-0.3-0.1-0.9-0.1-1.4c-0.1-1.4-0.1-2.9-0.5-4.3c-0.8-2.7-2.3-5.3-2-8.3
	c0.1-0.9-0.5-2-1.1-2.8c-3-4.3-6-8.6-9.2-12.7c-1.5-2-3.6-3.6-5.7-5c-2.8-2-5.9-3.8-9-5.4c-2-1.1-4.3-2.3-6.5-2.6
	c-7.5-0.9-15-1.5-22.5-1.9c-5.3-0.3-10.1,1.7-14.3,4.7c-9.5,6.7-17.7,14.9-25.2,23.8c-2.2,2.6-3.2,5.5-2.9,8.9
	c0.4,4.7-1.9,8.2-5.5,10.7c-4.1,2.7-4.2,2.6-3.2,7.1c0,0.1-0.1,0.2-0.3,0.5c-2.4-0.1-3.6,1.4-4.3,3.4c-0.7,1.9-1.3,3.8-1.6,5.8
	C126.3,320.5,127.6,322,130.2,322.6z M202.7,318.5c-0.3,0.4-0.3,0.9-0.6,1.3c-2.7,3.3-3.8,7.1-3.5,11.4c0.1,0.6-0.3,1.1-0.6,1.7
	c-2.2,5.2-4.3,10.4-6.4,15.5c0.2,0.1,0.4,0.3,0.6,0.4c0.6-0.2,1.2-0.3,1.7-0.4c0.2,0.2,0.3,0.3,0.2,0.4c0.4,5.4,0.5,5.9-5.4,7.9
	c-4.7,1.6-9.7,2.4-14.5,3.5c-1,0.2-2,0.5-2.9,0.9c-7.6,3.7-12.5,2.4-18.2-2.6c-2.8-2.5-4.4-5.6-5.2-9.3c-0.8-4-2.6-7.8-3.2-11.8
	c-1-7.2-0.5-14.4,1.5-21.5c0.7-2.5,0.8-5.1,1.2-7.7c0.1-0.6,0.2-1.2,0.5-2.2c2.5,2.4,2.7-0.5,4-1.2c0.3,0.5,0.6,1,0.8,1.4
	c0.7,1.6,1.9,2.2,3.6,1.6c0.5-0.2,1-0.3,1.6-0.3c1.4-0.1,2.2,0.3,1.5,2c-0.6,1.4-1,2.9-1.5,4.4c-0.2,0.5-0.1,1.2-0.2,1.7
	c0.2,0.1,0.4,0.2,0.6,0.3c0.5-0.6,1.3-1.2,1.5-1.9c0.8-3.2,1.7-6.4,2.1-9.7c0.2-2-0.5-4.1-1.1-6.1c-0.1-0.4-0.9-0.8-1.5-0.9
	c-3.3-0.7-6.6-1.4-9.8-2.1c-0.3,0-0.5-0.1-0.6-0.2c0.7-12.3,5.8-21.4,18.1-25.6c0.1,0.1,0.3,0.3,0.5,0.5c0.5,0.8-0.1,2.4,1.4,2.5
	c1.7,0.1,3.7,0.5,5.1-0.3c2.5-1.4,5-1.4,7.5-1.6c3-0.3,6-0.9,9,0.5c0.2,0.1,0.4,0.2,1.1,0.6c-1.1,0-1.6,0.1-2.3,0
	c2.1,2.6,3.9,3.1,6.5,1.4c2.2-1.5,4-1.7,5.9,0.5c0.6,0.6,1.4,1,2.1,1.6c0.3-0.4,0.5-0.7,0.7-1.1c1.5,1.2,0.4,2.5,0.4,3.9
	c-0.6-0.3-1-0.5-1.4-0.8c-0.2,0.1-0.4,0.2-0.5,0.3c0.3,1,0.8,1.9,0.9,2.9c0.2,1.7,0.2,3.4,0,5.2c0,0.8-0.3,1.7-0.7,2.5
	c-2.2,5.1-1,10.1,0.8,15c0.9,2.4,1.6,4.8,2.3,7.3c0.6,2.4-0.7,4.1-2.1,5.7C203.9,316.8,203.3,317.7,202.7,318.5z M149.6,299.9
	c-0.4,0.7-1,1.2-1.5,1.8c-0.2-0.1-0.3-0.1-0.5-0.2c0-0.8,0-1.6,0.1-2.3c0-0.4,0.4-0.9,0.7-1c0.2-0.1,0.8,0.1,1,0.4
	C149.7,299,149.8,299.6,149.6,299.9z M156.2,300.2c0.5,0.2,1.1,0.9,1.1,1.1c-0.2,0.5-0.8,0.9-1.3,1.3c-0.1,0.1-0.2,0.1-0.4,0.1
	c-1.4,0.2-2.8,0.2-4.1,0.6c-1.2,0.4-2.3,1.3-3.5,2.1c-1.1-1.8,0.6-2.2,1.3-3C151.1,300,154,299.2,156.2,300.2z M135.8,306.7
	c1.7-1.2,3.5-2.2,5.2-3.3c0.6-0.4,1.3-1,1.4-1.5c0.3-1.4,0.3-2.8,0.2-4.2c-0.1-1.9,0.4-3.3,1.7-4.8c0.9-1,1.5-2.3,2.1-3.6
	c0.9-2.4,1.6-4.9,2.4-7.1c-0.1-0.7-0.6-1.6-0.4-1.9c4.5-4.8,9.1-9.6,14-14.6c0.5,1.1,0.7,1.7,1.3,2.9c0.7-1.4,1.1-2.5,1.6-3.5
	c0.4-0.9,0.8-1.9,1.5-2.6c7.3-7.3,16.4-8.5,26.2-7.4c3.8,0.4,7.7,0.5,11.4,1.5c2.7,0.7,5.2,2.7,7.9,4.1c-0.6,0.7-1,1-1.4,1.4
	c1.6,0.5,3.1,1,4.9,1.5c-0.8,0.3-1.3,0.5-2,0.8c0.7,0.2,1.1,0.4,1.6,0.6c-0.3,0.3-0.5,0.5-0.7,0.7c1.2,0.6,2.4,1.1,3.6,1.7
	c-0.1,0.2-0.2,0.4-0.2,0.6c-0.6,0-1.3,0-1.7,0l-0.3,2.9c1.1,0.7,2.4,1.6,3.8,2.5c-0.5,0.2-1,0.4-1.6,0.7c0.5,0.3,1,0.5,1.6,0.9
	c-0.7,0.2-1.1,0.2-1.7,0.3c3.5,3.6,8.1,3.6,11.6,0.1c0.9,2.9,0.4,3.7-5.8,8.9c0.1,0.2,0.2,0.4,0.3,0.5c2-1.1,4-2.3,5.9-3.4
	c-0.2,0.6-0.6,1.5-1,2.4c1.8-0.5,1.8-0.5,3.6-5c2.9,1.9,4.1,4.5,3.6,7.4c-0.5,3-2.7,3.9-5.3,3.7c0.9,1,1.5,2,2.4,2.9
	c0.3,0.3,0.9,0.5,1.4,0.5c2-0.1,2.6,1,3,2.7c0.3,1.3,1.2,2.4,2.1,3.4c0.8,2.8-2.1,3.8-2.9,5.7c2.5,0.3,5,0.3,7.4,0.8
	c2.5,0.5,4.6,1.9,6,4.2c-1.1,0.7-2.2,1.5-3.1,2.1c-0.1-0.7-0.2-1.6-0.4-3c-0.4,0.7-0.6,1-0.8,1.3c-0.9,3.1-3.9,4.9-7.2,4.7
	c-1.3-0.1-2.7,0.3-4.1,0.5c0,0.3,0.1,0.5,0,0.8c3.1,0.3,6.2,0.8,9.4,0.9c2,0.1,3.4,1,4.3,3c-3.7-0.1-5.7,2.9-8.4,4.7
	c-1,0.6-1.8,1.2-3.2,0.3c2.4-1,2.3-2.5,1.1-4.3c-3,1.5-6,2.9-9,4.5c-1.6,0.9-2.8,0.7-3.4,0.4c-1.2,0.5-2.4,0.9-3.4,1.3
	c-0.7-0.7-1.4-1.4-2-2.1c-0.9-0.9-1.2-1.8,0.1-2.8c2.7-2.1,5.9-3.6,7.7-6.7c0.2-0.3,0.8-0.4,1.2-0.5c3.3-0.8,4.4-2,4.8-5.3
	c0.3-2.1,0.2-4-0.8-5.8c-0.2,0-0.5,0-0.7,0c-0.1,0.8-0.2,1.6-0.2,2.4c-0.1,1.1,0.1,2.4-0.3,3.4c-0.4,1.1-1.3,2.2-2.3,2.7
	c-0.7,0.3-1.8-0.4-3.1-0.8c0.5,3.5-2.3,4.9-4.3,6.7c-1.1,0.9-1.7,2.6-3.7,2.2c-0.2-0.1-1.3,1.6-1.2,2.3c0.3,2.4-1.4,3.1-3,3.9
	c-1,0.5-2,0.7-3.2,1.1c2.8,1.1,3.1,2.7,1.1,4.6c-1.9,1.8-3.8,3.7-5.9,5.6c1,0.2,1.8,0.3,2.5,0.4c0,0.1,0,0.2,0,0.2
	c-0.9,0.1-1.7,0.3-2.8,0.4c0,1.5,0,3.1,0,5.1c-0.7-0.2-1.9-0.1-2.2-0.7c-0.4-0.6-0.4-1.8-0.1-2.5c1.9-4.6,4-9.2,5.7-13.9
	c0.6-1.7,0.5-3.8,0.5-5.7c0-2.3-0.2-4.6-0.3-6.9c0.2-0.1,0.5-0.2,0.7-0.3c1.4,1.1,2.7,2.2,4.1,3.3c0.2-0.1,0.3-0.2,0.5-0.3
	c-0.1-1.7-0.9-3.1-2-4.4c-0.9-1-2.2-1.7-3.2-2.7c-0.7-0.7-1.1-1.6-1.7-2.4c0.2-0.1,0.4-0.4,0.6-0.5c1.3,0.8,2.7,1.6,4,2.5
	c0-4.5-4.6-5.9-6.2-9.5c1-0.3,2-0.5,2.8-0.7c-1.2-1.9-2.5-3.8-3.6-5.8c-0.3-0.6-0.3-1.4-0.2-2.2c0.2-2.1,0.9-4.2,0.8-6.3
	c-0.2-2.3,0.1-4.5,0.7-6.7c0.4-1.4,0.4-3,0.6-4.5c0-0.4,0.2-1.2,0.5-1.3c2.7-0.9,2.1-3.2,2.3-5l-0.5-0.4c-0.7,0.9-1.4,1.8-2.1,2.7
	c-0.2-0.2-0.4-0.4-0.6-0.6c0.4-1.5,0.9-3.1,1.3-4.6c-1-0.3-1.8-0.6-2.6-0.9c-1.3,1.7-2.6,3.5-3.9,5.2c-0.2-0.1-0.4-0.3-0.6-0.4
	c1.2-1.6,2.7-3.1,2.3-5.5c-1.5,1.9-2.8,3.5-4.1,5.2c-0.2-0.1-0.3-0.2-0.4-0.3c0.3-1.1,0.7-2.3,1.2-3.9c-1.8,0.6-3.2,0.8-4.4,1.5
	c-1.1,0.7-2,1.8-3.1,2.9c0.6-2.1,1-3.9,1.4-5.8c-0.1,0-0.3,0-0.4-0.1c-1.3,1.8-2.6,3.7-3.9,5.5c-0.1-0.1-0.2-0.1-0.3-0.1
	c0.4-1.9,0.8-3.7,1.1-5.7c-1.7,0.4-3.2,0.6-4.5,1c-0.5,0.1-0.9,0.8-1.1,1.2c-1.5,2.7-3.7,4.6-7,4.7c-0.8,0-1.6,0.2-2.4,0.3
	c-4.2,0.5-4.3,0.4-6.2-3.4c0.1,1.1,0.1,2.2,0.1,3.2c-1.6-1.7-1.6-2,1.1-8.1c-0.9,0.9-1.9,1.7-2.9,2.6c-0.2-0.1-0.5-0.4-1-0.8
	c-0.3,0.9-0.7,1.7-0.6,2.4c0.3,1.6-0.5,2.1-1.7,2.7c-6.5,3-10.7,8.4-14.6,14.1c-0.5,0.8-0.9,1.8-1.1,2.8c-1.3,7.5-3.4,14.9-3.1,22.7
	c0.1,2.1-0.7,4.4-0.9,6.5c-0.6,5.2-1.3,10.4-1.9,15.5c-0.2,1.7-0.2,3.5-0.3,5.4c-3.9-1.1-0.5-3.1-1-4.7c-0.4-0.1-1-0.3-1.6-0.4
	c1-1.8,1.9-3.4,2.8-5c-0.2-0.2-0.4-0.3-0.6-0.5c-1.1,0.5-2.3,0.9-3.4,1.6c-1.5,0.9-2,0.6-2.6-1.1c-0.3-1.1-0.9-2.1-1.2-2.8
	c1.4,0,3.1,0.3,4.9,0.1c0.6,0,1.2-1,1.7-1.6c0.4-0.4,0.8-0.8,1.3-1.3c-0.4-2.5-2.4-3.1-4.6-3.4c-2.7-0.4-2.7-0.4-2.3-3.1
	c0.1-0.6,0.1-1.2,0.2-2.2c-0.7,0.7-1.1,1.1-1.4,1.4C134.1,311.2,134.8,307.5,135.8,306.7z M132.6,310.2c0.7,1.3,0.8,2.5-0.2,3.7
	c-0.8,1.2-1.5,2.4-2.2,3.6C128.6,315.1,129.6,311.2,132.6,310.2z"/>
<path class="st4" d="M189.1,300c-0.4,0.3-0.6,0.6-0.9,0.8c2.8,2.9,7.8,1.7,9.8,5.9c-0.8,0.2-1.4,0.4-2.4,0.6
	c1.3,0.9,2.4,1.5,3.7,2.3c-3.1,3-5.7,0.9-8.6-0.9c-0.1,0.9-0.3,1.5-0.1,2c0.8,1.9-0.2,2.3-1.8,2.6c-1.9,0.3-3.8,1.2-6.2-0.1
	c1.6-0.6,2.9-1.1,4.2-1.6c0-0.2-0.1-0.4-0.1-0.6c-1.4,0.1-2.8,0.6-4,0.2c-1.1-0.3-2-1.6-3.1-2.3c0.1-0.2,0.2-0.4,0.3-0.6
	c-1.7,0.4-3.5,0.8-5.4,1.1c0-1,0.1-1.8,0.1-2.6c-0.2-0.1-0.4-0.2-0.6-0.3c-0.4,1-1.5,2.1-1.3,3c0.4,2.2-0.6,3-2.4,3.6
	c-0.4,0.1-0.7,0.3-1.2,0.6c0.5,0.3,0.8,0.6,0.9,0.7c-0.8,1.2-1.5,2.2-2.4,3.5c-0.7-0.2-1.3-0.1-0.9-1.7c0.7-2.4,0.6-5,1.3-7.4
	c0.6-2.1,1.7-4,2.5-6c0.3-0.8,0.6-1.6,0.9-2.4c0.1-0.3,0.3-0.8,0.5-1C175.9,296.3,185.3,296.6,189.1,300z"/>
<path class="st4" d="M155.5,321.9c0.2,0.5,0.6,0.9,0.7,1.4c0.2,0.7,0.1,1.4,0.3,2.2c0.6,3.5,3.4,4.7,6.6,2.9c0.5-0.3,1.4-0.5,2-0.3
	c3.8,1.1,4.9,0.2,4.3-3.7c0-0.2,0-0.5,0-0.7c0.2-0.1,0.4-0.2,0.5-0.2c0.8,1.4,1.5,2.7,2.4,4.5c0-0.9,0-1.4,0.1-1.9
	c0.2,0,0.3,0,0.4,0.1c0.6,1,1.5,1.9,1.7,2.9c0.1,1-0.3,2.2-0.9,3.1c-1.8,2.6-4.8,2.5-7.4,2.7c-2.6,0.2-5.1,0.1-6.9-2.2
	c-0.6-0.7-1.6-1.2-2.5-1.7c-2.8-1.7-3.3-2.9-2.5-6c0.2-1,0.5-1.9,0.8-2.8C155.1,322,155.4,321.9,155.5,321.9z"/>
<path class="st4" d="M151.4,338.3c2.1,0.2,4.3,0.3,6.4,0.7c2.5,0.5,4.8,1.8,7.3,0c0.4-0.3,1.3,0.1,1.9,0.3c1.8,0.2,3.7,0.4,5.5,0.8
	c1.3,0.2,2.7,0.6,3.9,1.2c0.5,0.3,0.6,1.5,0.5,2.4c-8.3-3.5-17.5-1.5-25.7-4.3C151.4,339,151.4,338.7,151.4,338.3z"/>
<path class="st4" d="M160.1,343.3c-1.8,1.3-3.4,1.2-5.6-0.6C156.5,342.9,158.2,343.1,160.1,343.3z"/>
<path class="st4" d="M211.8,293.7c-0.4-0.8-0.6-1.2-0.9-1.9c1.2,0.5,2.2,0.8,3.3,1.2c-0.8-1.8-1.5-3.5-2.2-5.4
	c4.2,1.1,8.3,1.6,11.9-1.4c1.4,2.6-0.6,3.9-1.9,5.4c-1.5,1.8-2.7,3.9-5.5,4c0,0.2,0.1,0.4,0.2,0.5c2.9-0.8,5.8-1.5,9.2-2.4
	c-2.1,1.9-4,3.5-5.8,5.1c-0.8,0.7-1.6,1.5-2.3,2.2c-1,1.1-3.6,1-5.6-0.2c0.7-0.2,1.2-0.3,1.8-0.5c-0.6-0.5-1.2-0.8-2-1.5
	c0.9-0.1,1.4-0.1,2.2-0.2c-1.4-1.2-2.5-2.1-4.1-3.3c1.2,0.1,2,0.2,2.8,0.3c-1.3-0.9-2.5-1.7-3.8-2.5c0.1-0.2,0.2-0.3,0.3-0.4
	C210,292.9,210.7,293.2,211.8,293.7z"/>
<path class="st4" d="M217.7,304.7c-0.2,1.4-0.4,2.5-0.6,3.8c-2.9,1-3.2,0.2-4.4-3.4C214.4,304.9,216.1,304.8,217.7,304.7z"/>
<path class="st3" d="M256,427.6c0,0.2-25.9,0.5-57.9,0.5s-57.9-0.2-57.9-0.5c0-0.2,25.9-0.5,57.9-0.5S256,427.3,256,427.6z"/>
<path class="st3" d="M297,480.2c0,0-0.6-0.5-1.7-1.2c-1.1-0.9-2.5-2.2-4.2-4.1c-1.7-1.7-3.6-3.9-5.6-6.6c-1.9-2.7-3.9-5.6-5.8-8.7
	c-1.9-3.3-3.3-6.6-4.5-9.5c-1.2-3-2-5.8-2.7-8.1c-0.6-2.3-1.1-4.4-1.2-5.6c-0.2-1.4-0.3-2-0.3-2.2c0,0,0.3,0.8,0.6,2
	c0.3,1.4,0.8,3.3,1.6,5.6c0.6,2.3,1.7,5,2.8,8.1c1.2,3,2.8,6.1,4.5,9.4c1.9,3.3,3.7,6.1,5.6,8.7c1.9,2.5,3.7,4.8,5.5,6.6
	c1.6,1.9,3,3.3,4.1,4.2C296.4,479.5,297,480,297,480.2z"/>
<path class="st3" d="M274,531c-0.2-0.2,2-1.6,5-4.2c1.4-1.4,3.1-3.1,4.7-5.3s3.1-4.5,4.5-7.3c1.4-2.8,2.3-5.5,3.1-8.1
	c0.6-2.5,1.1-5,1.4-6.9c0.5-4.1,0.2-6.6,0.5-6.6c0,0,0.2,0.6,0.2,1.7c0,0.6,0.2,1.2,0,2c0,0.8,0,1.7-0.2,2.8c-0.2,2-0.5,4.5-1.2,7
	c-0.8,2.7-1.7,5.5-3.1,8.3c-1.4,2.8-3,5.3-4.7,7.5s-3.4,3.9-4.8,5.1c-0.8,0.8-1.6,1.2-2.2,1.7c-0.6,0.5-1.2,0.9-1.7,1.2
	C274.7,530.7,274,531,274,531z"/>
<path class="st3" d="M309.1,531c0,0-0.2,0.2-0.5,0.3c-0.3,0.3-0.8,0.6-1.4,0.9c-0.6,0.5-1.4,0.9-2.5,1.6c-0.9,0.6-2,1.2-3.4,2
	c-5.1,3-12.8,6.6-22.8,9.8c-2.5,0.9-5.1,1.6-8,2.3c-2.8,0.8-5.6,1.4-8.7,2c-6.1,1.1-12.6,2.3-19.5,3c-6.9,0.6-14.2,1.1-21.8,0.9
	c-7.5,0-15.4-0.3-23.4-1.1c-32-3-60.2-10.8-80-17.6c-10-3.4-17.8-6.6-23.2-8.9c-2.7-1.1-4.8-2.2-6.2-2.8c-0.6-0.3-1.2-0.6-1.6-0.8
	c-0.3-0.2-0.5-0.3-0.5-0.3s0.2,0,0.6,0.2c0.5,0.2,0.9,0.5,1.6,0.6c1.4,0.6,3.4,1.6,6.2,2.7c5.5,2.2,13.3,5.3,23.2,8.7
	c19.8,6.7,48,14.4,79.9,17.5c8,0.8,15.8,1.1,23.2,1.1s14.8-0.3,21.7-0.9c6.9-0.6,13.4-1.7,19.5-2.8c3-0.6,5.9-1.2,8.7-2
	c2.8-0.8,5.5-1.4,8-2.3c10-3.3,17.8-6.7,22.8-9.5c1.2-0.6,2.5-1.2,3.4-1.9c0.9-0.6,1.7-1.1,2.5-1.4c0.6-0.3,1.1-0.6,1.6-0.9
	C309,531,309.1,531,309.1,531z"/>
<path class="st2" d="M361.6,269.3c-4.8-20-26.1-34.2-26.1-34.2l-27.8,123.2l24.2,60.8l-9.7,97.5l-5.6,12.2l33.7,24.6l30.3-41.7
	c0,0,20.9-72.7,20.9-94.8S366.4,289.2,361.6,269.3z"/>
<path class="st2" d="M122.1,204c0,0-5.5,0.8-5.1-12.3c0.3-13.1,6.7-26.1,6.7-26.1l25.7-12.6c0,0,79.6-9.8,108,10.9
	s35.4,21.1,32.4,33.1c-3,12.2-3,12.2-3,12.2L212.4,239L122.1,204z"/>
<path class="st3" d="M268.1,184.4c0,0,0,0.2-0.2,0.3c-0.2,0.3-0.3,0.6-0.5,0.9c-0.3,0.5-0.6,0.9-0.9,1.4c-0.5,0.5-0.9,1.2-1.6,1.9
	c-2.5,2.7-6.7,5.8-12.3,9.2c-11.2,6.7-27.8,14.4-46.8,21.8h-0.2l-0.2-0.2c-2.8-1.7-5.8-3.6-8.9-5.6c-19.3-12.2-36.8-23.2-49.6-31.4
	c-6.2-4.1-11.4-7.3-15-9.5c-1.7-1.1-3.1-2-4.1-2.7c-0.5-0.3-0.8-0.5-1.1-0.8c-0.2-0.2-0.3-0.3-0.3-0.3s0.2,0,0.3,0.2
	c0.3,0.2,0.6,0.3,1.1,0.6c0.9,0.6,2.3,1.4,4.2,2.5c3.6,2.2,8.7,5.5,15.1,9.4c12.8,8,30.4,19,49.8,31.2c3,1.9,5.9,3.7,8.7,5.6h-0.3
	c19.2-7.3,35.7-15,46.8-21.5c5.6-3.3,9.8-6.4,12.3-8.9c0.6-0.6,1.1-1.2,1.6-1.7c0.5-0.6,0.8-1.1,0.9-1.4c0.2-0.3,0.3-0.6,0.5-0.9
	C268.1,184.5,268.1,184.4,268.1,184.4z"/>
<path class="st0" d="M264.5,142.7c-0.3-14.5-3.1-44.1-6.1-71.1c-3.1-28.9-28.1-50.5-57.1-49.8l-3,0.2c-31,2.7-46.2,30.7-42.6,61.6
	l1.2,104.2l48.7,30.9l30-12.6l-0.3-28.1C235.4,178.2,265.2,172.7,264.5,142.7z"/>
<path class="st5" d="M235.4,178.2c0,0-18.9,2-39.3-10c0,0,9.8,21.2,39.6,17.8L235.4,178.2z"/>
<path class="st6" d="M248,100.5c0.2,2.2-1.7,4.2-4.1,4.4c-2.3,0.2-4.4-1.4-4.5-3.7c-0.2-2.2,1.7-4.2,4.1-4.4
	C246,96.6,248,98.3,248,100.5z"/>
<path class="st6" d="M252.8,84.9c-0.5,0.6-3.9-1.7-8.4-1.6c-4.5,0.2-8,2.5-8.4,2c-0.3-0.3,0.3-1.2,1.7-2.3c1.4-1.1,3.9-2.2,6.7-2.3
	c2.8,0,5.3,0.9,6.7,2C252.7,83.6,253.1,84.6,252.8,84.9z"/>
<path class="st6" d="M205.7,100.5c0.2,2.2-1.7,4.2-4.1,4.4c-2.3,0.2-4.4-1.4-4.5-3.7c-0.2-2.2,1.7-4.2,4.1-4.4
	C203.5,96.6,205.6,98.3,205.7,100.5z"/>
<path class="st6" d="M207,84.9c-0.5,0.6-4.1-1.2-8.6-0.6c-4.5,0.6-7.6,3.4-8.1,3c-0.3-0.2,0.2-1.2,1.4-2.5c1.2-1.2,3.6-2.7,6.4-3
	c2.8-0.3,5.3,0.3,6.9,1.2C206.7,83.6,207.3,84.6,207,84.9z"/>
<path class="st6" d="M224.9,122.3c0-0.3,2.8-0.8,7.5-1.6c1.2-0.2,2.3-0.5,2.5-1.2c0.3-0.8-0.3-2.2-0.9-3.4c-1.2-2.8-2.5-5.8-3.7-8.9
	c-5.1-12.6-9-22.9-8.4-23.2c0.5-0.2,5.1,9.8,10.3,22.5c1.2,3.1,2.5,6.1,3.6,8.9c0.5,1.2,1.2,2.8,0.8,4.5c-0.3,0.9-1.1,1.6-1.9,1.7
	c-0.8,0.3-1.4,0.3-2,0.3C227.9,122.5,224.9,122.5,224.9,122.3z"/>
<path class="st6" d="M207,65.1c-0.5,1.2-5,0.8-10.5,1.6c-5.5,0.6-9.7,2.3-10.5,1.2c-0.3-0.5,0.5-1.7,2.2-3c1.7-1.2,4.5-2.5,7.6-3
	c3.3-0.5,6.2,0,8.3,0.8C206.2,63.5,207.3,64.4,207,65.1z"/>
<path class="st6" d="M251.6,67.1c-0.8,1.1-4.1,0-7.8,0.2c-3.7,0-7,0.9-7.8-0.2c-0.3-0.5,0.2-1.6,1.6-2.7c1.4-1.1,3.6-1.9,6.2-1.9
	s5,0.9,6.2,1.9C251.4,65.5,251.9,66.6,251.6,67.1z"/>
<path class="st0" d="M158.9,105.8c-0.5-0.2-20.7-5.5-19.5,15c1.2,20.4,21.5,15,21.5,14.4C160.9,134.5,158.9,105.8,158.9,105.8z"/>
<path class="st5" d="M154.2,127.8c-0.2,0-0.3,0.3-0.9,0.6c-0.6,0.3-1.6,0.6-2.7,0.2c-2.2-0.6-4.2-4.1-4.5-7.6
	c-0.2-1.9,0.2-3.6,0.6-5.1c0.5-1.6,1.4-2.7,2.5-3c1.1-0.3,1.9,0.3,2.2,0.8c0.3,0.6,0.2,0.9,0.3,0.9c0,0,0.5-0.3,0.2-1.2
	c-0.2-0.5-0.3-0.9-0.9-1.2c-0.5-0.3-1.2-0.5-2-0.5c-1.6,0.2-3,1.7-3.6,3.4c-0.8,1.7-1.1,3.7-0.9,5.8c0.3,4.1,2.7,7.8,5.8,8.6
	c1.4,0.3,2.7-0.2,3.3-0.8C154.2,128.2,154.4,127.8,154.2,127.8z"/>
<path class="st7" d="M260.8,36.5c-0.9-3.9-4.1-7.6-8.1-8.1c0.2-0.6-4.2-2.8-7.6-5.1c-3.4-2.3-4.2-8.1-7.2-5.3
	c0-6.2-7.8-11.1-13.3-8.1c0.2-3.6-5.1-4.8-8.7-5.8c-3.6-0.9-4.8-1.4-6.6,1.7c-4.5-7.2-16.5-7.8-21.7-1.1c-8.3-2.7-18.3,2-21.4,10.1
	c-6.7,0.6-12.8,5.6-14.5,12c-4.2,0.5-5.3,3.9-7,7.8s-4.1,8.3-1.6,11.9c-5.1,2.7-5.9,10.9-1.4,14.5c-1.1,0.6-2.2,1.4-3,2.5
	c-4.4,2.7-5.6,9.4-2.3,13.4c-3.1,2.5-4.4,7-3,10.8c1.4,3.7,5.3,6.2,9.4,6.1c-3.3,4.8,0.9,11.2,3.4,12.6c0,0,8.4-3.6,9.8,2.7
	c-0.5,2.7,2.8,5,5.1,3.9c2.5-1.1,3.7-3.7,5.1-6.1c1.6-2.7,3.4-5.1,4.1-8.3c0.6-3-0.3-6.7-3.1-8c3.4-1.2,5.6-5,6.2-8.6
	c0.6-3.7-0.2-7.5-0.9-11.1c-1.1-5.5-2.2-10.8-3.4-16.2c7.5-0.5,14.4-5.3,17.3-12.2c5.5,3.9,14.2,1.6,16.8-4.7
	c2.7,7.3,11.5,11.5,18.9,8.9c-0.6,4.2,7,8,11.2,9c4.2,0.9,9.4-2,9.4-2s7.3,4.1,11.2,2.3c3.7-1.7,8.9-6.7,6.2-10.8
	C260.2,45.4,261.9,40.6,260.8,36.5z"/>
<path class="st8" d="M221.8,9.4c-0.2,0.2-0.6-0.8-2.3-1.2c-0.8-0.2-1.9-0.3-3,0.3c-1.1,0.5-2,1.6-2.3,3l-0.3,1.2l-0.6-1.1
	c-1.1-1.9-3.6-3.4-6.4-3.4c-2.8,0-5.8,2.2-6.6,5.3l-0.3,1.4l-0.9-1.1c-1.6-2-4.4-3.3-7.2-3.3s-5.6,1.7-7.2,4.2
	c-0.6,1.1-1.1,2.2-1.2,3.3l-0.2,0.8l-0.8-0.2c-4.1-0.9-8.3,1.4-9.7,4.8c-1.4,3.4-0.5,7.3,1.7,9.5l0.8,0.8l-1.1,0.2
	c-2.7,0.6-4.8,2.2-6.1,4.1c-1.2,1.9-1.6,3.9-1.6,5.5c0.2,3.3,1.4,4.8,1.2,5c0,0-0.3-0.3-0.8-1.1c-0.5-0.8-0.9-2-1.1-3.7
	c-0.2-1.7,0.2-3.9,1.4-6.1c1.2-2,3.6-4.1,6.6-4.8l-0.3,1.1c-2.5-2.5-3.9-6.9-2.2-10.9c1.7-4.1,6.6-6.7,11.2-5.8l-0.9,0.6
	c0.2-1.4,0.6-2.8,1.4-3.9c1.7-3,5.1-5,8.4-5s6.4,1.4,8.3,3.7l-1.2,0.3c1.1-3.9,4.7-6.2,8-6.2s6.1,1.9,7.3,4.1l-0.9,0.2
	c0.5-1.9,1.7-3,3.1-3.6c1.2-0.5,2.5-0.3,3.4,0c0.9,0.3,1.4,0.8,1.7,1.1C221.8,9,221.8,9.4,221.8,9.4z"/>
<path class="st7" d="M263.8,126.4c-3.1-2.3-8.3-0.6-9.5,3.1c-1.7-2.5-4.8-3.7-7.8-3.3c-3,0.5-5.5,2.8-6.2,5.6
	c-1.4-4.4-8.3-5.5-10.9-1.9c-1.1-1.9-3.4-2.8-5.6-2.2c0.3-2-0.8-4.1-2.7-5c-1.7-0.9-4.1-0.8-5.6,0.6c-2.3-4.2-8.7-5.1-12.2-2
	c-0.6-1.9-2.5-3.3-4.5-3.3c-2,0-3.9,1.6-4.2,3.6c-1.9-2.5-5.6-3.4-8.6-2.2c0-3-3.3-5.5-6.1-4.5c0.8-2.5-3-3.7-4.8-5.5
	c-0.8-0.8-1.4-1.9-2.3-2.7c-0.9-0.8-2.5-0.9-3.1,0.2c0.5-2-0.8-4.4-2.7-5c-2-0.6-4.4,0.3-5.3,2.2c-0.5,1.1-0.5,2.3-0.6,3.6
	c-0.6,3.9-2.8,8.6,0.2,11.4c0.5,0.5,1.1,0.9,1.4,1.6c0.3,1.1-0.8,2.2-0.8,3.4c-0.2,1.4,1.2,2.5,1.7,3.7c0.8,1.9,0,4.1,0,6.1
	c-0.2,2,1.1,4.7,3.1,4.5c-1.6,3-0.5,7,2.2,8.9c-1.6,3.4,0.5,8.1,4.1,9.2c-1.4,1.1-1.2,3.3-0.3,4.7c0.9,1.4,2.7,2.2,4.2,3
	c-1.4,0.8-1.6,2.8-0.8,4.2c0.9,1.4,2.5,2,4.1,2.5c0.6,0.2,1.4,0.3,1.7,0.9c0.8,1.1-0.3,2.5,0,3.7c0.3,2,3.1,2.5,3.9,4.4
	c0.8,1.6-0.2,3.9,1.1,5c0.8,0.8,2.2,0.6,3.3,1.1c1.9,0.6,2.8,2.8,4.1,4.5c2.3,3.1,6.2,4.4,10,5.3c1.9,0.5,3.7,0.9,5.8,1.2
	c3.9,0.8,7.6,1.2,11.5,1.7c1.9,0.2,4.2,0.3,5.3-1.4c2.7,3.3,8.7,2.5,10.6-1.2c3.4,0.9,7-0.5,10.3-2c1.1-0.5,2.3-0.9,3.4-1.4
	c3.4-1.4,7.2-3.4,8.1-6.9c4.4-0.6,7.3-6.2,5.3-10.1c1.6,0.5,3-1.1,3.3-2.7c0.3-1.6-0.3-3.1-0.6-4.7c-1.2-6.4,2.2-12.9,1.4-19.3
	c-0.6-4.5-3.3-9-2-13.4c0.3-0.9,0.6-1.7,0.6-2.7c0-0.9-0.9-1.9-1.9-1.6c1.1-2.7-1.4-5.9-4.2-5.5"/>
<path class="st9" d="M209.8,126.8c0.8,0,0.9,5,5.3,8.4c4.4,3.4,9.7,2.7,9.7,3.4c0.2,0.3-1.1,0.9-3.4,1.1c-2.2,0.2-5.5-0.5-8.1-2.5
	c-2.7-2-3.9-5-4.1-7C208.8,128.1,209.5,126.8,209.8,126.8z"/>
<path class="st3" d="M182.3,161c0.3-0.2-1.9-4.5-1.9-10.6c-0.2-5.9,1.7-10.6,1.4-10.6c-0.2,0-0.6,1.1-1.2,3s-1.1,4.7-1.1,7.6
	c0,3.1,0.6,5.8,1.4,7.6C181.5,159.9,182.2,161,182.3,161z"/>
<path class="st3" d="M177.6,153.8c0.2-0.2-0.6-0.8-1.1-2.3c-0.5-1.4-0.8-3.6-0.5-6.1c0.3-4.8,1.7-8.6,1.4-8.7
	c-0.2-0.2-1.9,3.6-2.3,8.6c-0.2,2.5,0,4.8,0.8,6.4C176.5,153.2,177.5,153.8,177.6,153.8z"/>
<path class="st3" d="M172.5,149.6c0.3-0.2-2-3.7-2.2-8.9c-0.3-5.1,1.7-9,1.4-9c-0.2,0-0.6,0.8-1.2,2.5c-0.6,1.6-1.1,4.1-0.9,6.7
	c0.2,2.7,0.8,5,1.6,6.6C171.9,148.8,172.5,149.6,172.5,149.6z"/>
<path class="st3" d="M256,180.2c0,0.2,1.4-0.3,2.8-1.9c1.6-1.6,2.8-4.2,3.6-7.3c0.8-3.1,0.9-6.1,0.6-8.1c-0.2-2-0.6-3.3-0.6-3.3
	c-0.3,0,0.8,5.1-0.8,11.2c-0.8,3-1.9,5.6-3.3,7.2C257,179.6,255.8,180,256,180.2z"/>
<path class="st3" d="M251.6,179.1c0,0,1.1-0.5,2.3-1.6c1.2-1.2,2.8-3.1,3.7-5.6s1.2-5,1.1-6.7c-0.2-1.7-0.5-2.8-0.6-2.8
	c-0.2,0,0,1.1,0,2.8c0,1.7-0.3,4.1-1.2,6.4c-0.9,2.3-2.3,4.4-3.4,5.6C252.4,178.3,251.4,179.1,251.6,179.1z"/>
<path class="st2" d="M259.2,53.7c0,0-6.9-10.8-20.3-14.7c-24.8-7.3-59.6-10.1-96.3,26.1l-5.3,2.5c0,0-1.1-12.3,0.8-21.4
	c1.2-6.1,12.3-41.7,52.1-45.4C190.1,0.6,250.8-9.2,259.2,53.7z"/>
<g class="st10">
	<path class="st2" d="M259.2,53.7c0,0-6.9-10.8-20.3-14.7c-24.8-7.3-59.6-10.1-96.3,26.1l-5.3,2.5c0,0-1.1-12.3,0.8-21.4
		c1.2-6.1,12.3-41.7,52.1-45.4C190.1,0.6,250.8-9.2,259.2,53.7z"/>
</g>
<path class="st11" d="M142.7,64.9c15.1-16.5,34.5-26.1,54.9-33.5s52.6-12.6,74.3-13.7c6.6-0.3,13.3-0.5,19.3,1.9
	c6.1,2.3,11.4,7.8,11.7,14.4c0.2,8.3-16.1,17.3-23.4,20.7C272,58,256.9,64,256.9,64s-4.1-18.6-18.7-23.9
	C207.7,29.2,141.6,65.5,142.7,64.9z"/>
<path class="st7" d="M260.9,41.5c-1.7-5-7.3-8.3-12.6-7.3c1.2-1.4,1.1-3.7-0.2-5.3c-1.1-1.6-3-2.3-4.8-2.8
	c-6.6-1.4-13.9,2.3-16.4,8.6c-3.1-3-7.5-4.8-13.3-3.6c-5.8,1.1-9,6.1-9,9.5c0,3.9,2,6.2,5.3,8.1c3.4,2,8.6,0.6,12-1.2
	c1.4,3.7,4.7,6.7,8.4,7.6c3.9,1.1,8.1,0,11.2-2.5c3.4,4.1,9.7,5.1,14.4,2.7C260.5,52.6,262.8,46.5,260.9,41.5z"/>
<path class="st3" d="M277.2,213.1c0,0-0.2,0-0.3,0.2c-0.3,0.2-0.6,0.3-1.1,0.5c-0.9,0.5-2.3,0.9-4.1,1.6c-3.6,1.4-8.6,3.4-15,5.9
	c-12.6,5-30.3,11.7-49.9,19.3h-0.2h-0.2c-1.9-0.5-3.9-0.9-5.8-1.6c-10.8-3.1-20.6-7.8-29.3-12.2s-16.4-8.6-22.9-12.2
	c-6.6-3.4-11.7-6.2-15.4-8.1c-1.9-0.9-3.3-1.6-4.2-2c-0.5-0.2-0.8-0.5-1.1-0.6c-0.3-0.2-0.3-0.2-0.3-0.2s0.2,0,0.5,0.2
	c0.3,0.2,0.6,0.3,1.1,0.5c0.9,0.5,2.5,1.1,4.4,1.9c3.7,1.7,9,4.4,15.6,7.8s14.2,7.6,22.9,12c8.7,4.4,18.4,8.9,29.2,12
	c2,0.6,3.9,0.9,5.8,1.6h-0.2c19.7-7.5,37.3-14.2,49.9-19.2c6.2-2.3,11.4-4.4,15-5.6c1.7-0.6,3.1-1.1,4.1-1.6
	c0.5-0.2,0.8-0.3,1.1-0.3C277,213.1,277.2,213.1,277.2,213.1z"/>
<path class="st3" d="M88.4,379.2c0-0.8,0.2-1.9,0.2-3.1c0.2-1.4,0-3,0-5c0-1.9-0.2-4.1-0.2-6.6c-0.2-4.8-0.9-10.6-1.7-17
	c-0.9-6.4-1.9-13.4-3.3-20.7c-2.5-14.7-5.1-27.8-6.9-37.4c-0.8-4.8-1.4-8.7-1.7-11.4c-0.2-1.2-0.2-2.3-0.3-3.1c0-0.8,0-1.1,0-1.1
	s0.2,0.3,0.2,1.1c0.2,0.8,0.3,1.9,0.5,3.1c0.5,2.7,1.1,6.6,2,11.4c1.7,9.5,4.5,22.8,7,37.4c1.2,7.3,2.3,14.4,3.1,20.7
	c0.8,6.4,1.2,12.2,1.4,17c0.2,2.5,0.2,4.7,0.2,6.6c0,1.9,0,3.6-0.2,5C88.6,377.4,88.4,378.5,88.4,379.2z"/>
<path class="st3" d="M320.2,265.5c0,0.3,0,0.6-0.2,1.1c-0.2,1.1-0.3,2.5-0.5,4.4c-0.5,3.9-1.1,9.2-1.9,15.9
	c-1.6,13.4-3.6,32.1-5.1,52.7c-1.6,20.6-2.7,39.3-3.1,52.9c-0.3,6.7-0.5,12.2-0.6,16.1c0,1.9-0.2,3.3-0.2,4.4c0,0.5,0,0.8,0,1.1
	c0,0.3,0,0.3,0,0.3s0-0.2,0-0.3c0-0.3,0-0.6,0-1.1c0-1.1,0-2.5,0-4.4c0-3.7,0.2-9.2,0.3-16.1c0.5-13.6,1.2-32.3,3-52.9
	c1.6-20.6,3.7-39.3,5.3-52.7c0.8-6.7,1.6-12.2,2.2-15.9c0.3-1.9,0.5-3.3,0.6-4.4C320.1,266.1,320.2,265.8,320.2,265.5z"/>
<g class="st10">
	<path class="st12" d="M107.1,393.9c12,8,24.2,15.9,37.1,22.2c13.1,6.1,27.1,10.5,41.7,10.5c17,0.2,33.9-8.4,47-19
		c13.1-10.6,20.3-16.5,31.8-33.1c7.5-10.8,14.5-24.2,14.8-37.3c0.2-11.2-3-22.2-6.2-32.8c0,0-0.6-8.1-2.2-26.1
		c-1.7-17.9-0.5-53-0.5-53l-14.4,42.6l-20,89.1l-48,43.7l-52.6-2.2L107.1,393.9z"/>
</g>
<path class="st1" d="M88.9,362.4c0,0,14.8,9.5,25.6,5s100.9-77.7,102.2-80c1.1-2.3,19.8-25,27.3-38.5c7.5-13.6,10.1-26.4,10.1-26.4
	l17.5-7l-6.1,56v24.3c0,0,19.3,51.6-16.5,82.8c-35.7,31.2-52.7,46.5-80,41.5c-27.3-5.1-80.7-33.9-80.7-33.9L88.9,362.4z"/>
<path class="st6" d="M268.1,339.9c0,0-0.2-0.8-0.8-2.2c-0.5-1.4-1.4-3.6-2.8-6.1c-2.8-5.1-7.5-12.3-14.5-20.1
	c-3.4-3.9-7.5-8.1-12.6-11.4c-1.2-0.8-2.7-1.6-4.1-2c-1.4-0.5-3.1-0.6-4.5-0.2c-3,1.2-5.8,3.1-8.7,5c-11.4,7.8-23.2,17.5-35.6,27.9
	c-12.2,10.5-23.6,20.6-33.5,30.3c-5,4.8-9.7,9.5-13.6,14.4c-1.9,2.3-3.9,4.8-3.7,7.6c0.2,2.8,1.1,5.5,2.3,7.6
	c2.3,4.7,5.3,8.4,7.8,11.7c2.7,3.3,5,5.9,7,8.1c2,2.2,3.6,3.7,4.7,4.8c0.5,0.5,0.9,0.9,1.2,1.2c0.3,0.3,0.5,0.5,0.5,0.5
	s-0.2-0.2-0.5-0.3c-0.3-0.3-0.8-0.6-1.2-1.2c-1.1-1.1-2.8-2.7-4.8-4.8c-2-2.2-4.5-4.8-7.2-8c-2.7-3.3-5.6-7-8-11.7
	c-1.1-2.3-2.3-5-2.3-8c0-0.8,0-1.6,0.3-2.2c0-0.3,0.3-0.8,0.5-1.1c0.2-0.3,0.3-0.8,0.5-1.1c0.8-1.2,1.7-2.5,2.7-3.7
	c3.9-4.8,8.6-9.5,13.6-14.4c10-9.7,21.4-20,33.5-30.3c12.3-10.3,24.2-20,35.6-27.9c3-1.9,5.8-3.7,8.9-5.1c1.6-0.6,3.4-0.5,5,0.2
	c1.6,0.5,3,1.4,4.2,2.2c5.1,3.4,9.2,7.6,12.8,11.5c7,8,11.5,15.1,14.4,20.4c1.4,2.7,2.2,4.7,2.7,6.2
	C268.1,339,268.1,339.9,268.1,339.9z"/>
<path class="st6" d="M263.6,295.8c0,0-0.6-0.5-1.7-1.2c-1.1-0.8-2.5-2-4.5-3.4c-3.7-2.8-9.4-6.2-16.4-8.1c-7-1.7-13.7-0.9-17.9,0.9
	c-4.4,1.7-6.4,4.1-6.6,3.9c0,0,0.2-0.2,0.3-0.5c0.3-0.3,0.6-0.6,1.1-1.1c1.1-0.9,2.7-1.9,4.8-3c4.4-2,11.2-3,18.4-1.2
	c7.2,1.9,12.8,5.6,16.5,8.4c1.9,1.4,3.3,2.7,4.4,3.6C263.1,295.3,263.6,295.8,263.6,295.8z"/>
<path class="st6" d="M118,398.4c0,0-0.3-0.3-0.8-0.9c-0.5-0.6-1.1-1.6-1.7-2.8c-1.2-2.5-2.7-6.2-3.1-10.5c-0.5-4.4,0-8.3,0.8-10.9
	c0.3-1.4,0.8-2.5,1.1-3.1c0.3-0.8,0.5-1.1,0.6-1.1c0.2,0-0.5,1.7-1.1,4.4c-0.6,2.7-0.9,6.6-0.5,10.8c0.5,4.2,1.7,7.8,2.8,10.3
	C117.3,396.9,118.2,398.3,118,398.4z"/>
<path class="st6" d="M232.9,307.2c0.2,0.2-19.8,17.6-44.5,38.8c-24.8,21.4-44.9,38.4-45.1,38.2s19.8-17.6,44.5-38.8
	C212.6,324,232.7,306.9,232.9,307.2z"/>
<path class="st13" d="M178.3,370.7l9.8,10.6l35.3-30.1l-10.3-11.1L178.3,370.7z"/>
<path class="st6" d="M188.1,381.4l-9.8-10.8l34.9-30.6l10.3,11.1L188.1,381.4z M178.3,370.7l9.8,10.6l35.3-30.1l-10.3-10.9
	L178.3,370.7z"/>
<g class="st10">
	<path d="M206.8,240.2c27.9-1.2,56.6-11.2,77.4-30c-11.1,4.4-21.2,8.7-32,12.8C237.1,228.9,221.9,234.5,206.8,240.2z"/>
</g>
<g class="st10">
	<path class="st12" d="M116.8,518.1c51.3,18.6,110,28.2,161.5,10c-15,12.2-35.4,17.9-54.8,18.3C186.2,546.9,148.3,537.9,116.8,518.1
		z"/>
</g>
<path class="st0" d="M305.7,536.8c-0.9,0.3-9.7,8.1-13.9,13.9c-4.2,5.8-17,19.8-15.3,23.1s7.8,4.7,12.6,0.8
	c4.8-3.9,15.9-12.3,15.9-12.3l17.3,36.5l3.4-2.8l13.1-30.6l8.7-13.9l-27.8-20.3C319.6,531,311.5,535.1,305.7,536.8z"/>
<g class="st10">
	<path class="st12" d="M313,363c10.3-10.3,15.3-25.1,15.6-39.6s-4.7-30.6-10.3-44c-4.8,29.6-6.2,60.7-8.1,90"/>
</g>
<g>
	<defs>
		
			<rect id="SVGID_1_" x="111.4" y="74.9" transform="matrix(0.9942 -0.1072 0.1072 0.9942 -9.4288 22.395)" width="184.4" height="48"/>
	</defs>
	<clipPath id="SVGID_00000130640894211182054030000014027205540256904081_">
		<use xlink:href="#SVGID_1_"  style="overflow:visible;"/>
	</clipPath>
	<g style="clip-path:url(#SVGID_00000130640894211182054030000014027205540256904081_);">
		<path d="M135.1,89l1,8.9l5-0.5l5-0.5l5-0.5l5-0.5l5-0.5l5-0.5l1,8.9l5-0.5l1,8.9l5-0.5l1,8.9l5-0.5l1,8.9l5-0.5l5-0.5l5-0.5l5-0.5
			l5-0.5l5-0.5l-1-8.9l5-0.5l-1-8.9l5-0.5l-1-8.9l5-0.5l5-0.5l1,8.9l5-0.5l1,8.9l5-0.5l5-0.5l5-0.5l5-0.5l5-0.5l5-0.5l5-0.5l-1-8.9
			l5-0.5l-1-8.9l5-0.5l-1-8.9l-1-8.9l-5,0.5l-5,0.5l-5,0.5l-5,0.5l-5,0.5l-5,0.5l-5,0.5l-5,0.5l-5,0.5l-5,0.5l-5,0.5l-5,0.5l-5,0.5
			l-5,0.5l-5,0.5l-5,0.5l-5,0.5l-5,0.5l-5,0.5l-5,0.5l-5,0.5l-5,0.5l-5,0.5l-5,0.5l-5,0.5l-5,0.5l-5,0.5l-5,0.5L135.1,89z M136,97.9
			l-5,0.5l-5,0.5l1,8.9l5-0.5l5-0.5L136,97.9z"/>
		<path class="st9" d="M175.9,93.6l1,8.9l5-0.5l-1-8.9L175.9,93.6z M181.9,102l1,8.9l5-0.5l-1-8.9L181.9,102z M186.9,101.5l5-0.5
			l-1-8.9l-5,0.5L186.9,101.5z M191.9,100.9l1,8.9l5-0.5l-1-8.9L191.9,100.9z M197.8,109.3l1,8.9l5-0.5l-1-8.9L197.8,109.3z
			 M192.8,109.8l-5,0.5l1,8.9l5-0.5L192.8,109.8z"/>
		<path class="st9" d="M235.8,87.2l5-0.5l1,8.9l5-0.5l-1-8.9l5-0.5l1,8.9l5-0.5l1,8.9l-5,0.5l-1-8.9l-5,0.5l1,8.9l-5,0.5l-1-8.9
			l-5,0.5L235.8,87.2z"/>
	</g>
</g>
</svg>
