<?xml version="1.0" encoding="utf-8"?>
<!-- Generator: Adobe Illustrator 26.5.0, SVG Export Plug-In . SVG Version: 6.00 Build 0)  -->
<svg version="1.1" id="Слой_1" xmlns="http://www.w3.org/2000/svg" xmlns:xlink="http://www.w3.org/1999/xlink" x="0px" y="0px"
	 viewBox="0 0 2395 345.3" style="enable-background:new 0 0 2395 345.3;" xml:space="preserve">
<style type="text/css">
	.st0{fill:#171717;}
	.st1{fill:#282233;}
	.st2{fill:#FFFFFF;filter:url(#Adobe_OpacityMaskFilter);}
	.st3{mask:url(#mask0_255_1424_00000124129346515511347230000006021923011101104559_);}
	.st4{fill:#191919;}
	.st5{fill:#1F1A27;}
	.st6{fill:#FFFFFF;}
	.st7{fill:#5B40AD;}
</style>
<path class="st0" d="M2103.3,183c-419.7,246-436.8-217.5-636.2,0c-199.5,217.5-445.5-283.5-636.3,0s-784.7-396.5-647.5,0
	c21.5,62,36.2,116.6,45.8,164.5c88.4-0.4,176.8-0.4,265.2-0.5c152.7-0.1,305.5,0.3,458.2,1.9c44.7,0.2,89.3,0.9,134,2.1
	c11.3-0.1,22.6,0.2,33.8,0.8c81.7,0.2,163.4,0.6,245.1,1.3c25.8-1.9,51.7-2.7,77.7-2.4c33.8-0.4,67.5-0.9,101.3-1.3
	c152.7-1.8,305.5-1.8,458.2-1.9c84.5,0,168.9,0.1,253.4,0.4C2313,189.2,2319.2,56.5,2103.3,183z"/>
<path class="st1" d="M2103.5,219c-282,225-556-241.5-636.2,0C1387,460.5,891.5,0,831,219s-576-416.5-647.5,0
	c-8,46.9-14.3,89.4-19,127.9c109.9-0.7,219.9-0.7,329.8-0.8c152.7-0.1,305.5,0.3,458.2,1.9c44.7,0.2,89.3,0.9,134,2.1
	c11.3-0.1,22.6,0.2,33.8,0.8c81.7,0.2,163.4,0.6,245.1,1.3c25.8-1.9,51.7-2.7,77.7-2.4c33.8-0.4,67.5-0.9,101.3-1.3
	c152.7-1.8,305.5-1.8,458.2-1.9c71.2,0,88.9-56.1,213.6,0.3S2234.4,114.6,2103.5,219z"/>
<defs>
	<filter id="Adobe_OpacityMaskFilter" filterUnits="userSpaceOnUse" x="343.5" y="0" width="860.5" height="352.1">
		<feColorMatrix  type="matrix" values="1 0 0 0 0  0 1 0 0 0  0 0 1 0 0  0 0 0 1 0"/>
	</filter>
</defs>
<mask maskUnits="userSpaceOnUse" x="343.5" y="0" width="860.5" height="352.1" id="mask0_255_1424_00000124129346515511347230000006021923011101104559_">
	<path class="st2" d="M1219.7,0H343.5v367.9h876.2V0z"/>
</mask>
<g class="st3">
	<path class="st4" d="M1024.1,228.1c3.2,1.6,6.7,3.7,10.3,6.3c8.3,6.2,13.9,13.2,17.3,18.5c-28.8-8-57.6-16.2-86.3-24.3l9.9-10.7
		L1024.1,228.1z"/>
	<path class="st5" d="M1020.8,342.7c25.5,0.1,51,0.5,76.5,1.2c7.7,0,15.4,0.2,23.1,0.7c-3.2-4.2-6.2-7.7-8.7-10.5
		c-82.3-11-164.6-21.9-247-32.9l-2,32.2l5.5,8.4C919.1,341.9,970,342.2,1020.8,342.7z"/>
	<path class="st6" d="M636.6,341.8c-0.3-0.3-0.5-0.6-0.7-0.9c-0.9-0.7-1.9-1.2-3-1.4c-0.5,0-1.1-0.1-1.6-0.1c-0.4,0-0.7,0.1-1,0.2
		c-0.5-5.7-9.3-8.8-12.4-2.4c-0.7,1.5-1.2,3.1-1.6,4.7C623,341.9,629.8,341.8,636.6,341.8z"/>
	<path class="st5" d="M628.8,341.8c-2.5-4.1-4.8-7.9-10.7-7.6c-4.3,0.2-5.1,5.2-2.8,7.7C619.8,341.9,624.3,341.9,628.8,341.8z"/>
	<path class="st4" d="M1130,294.1c-14.1-9.2-29.2-15.7-45.9-18.2c-1.3-4.8-4.8-8.8-9.5-11.9c-13.4-8.8-28.8-14.8-44.6-18
		c1.2-4.8,0.6-10-2.5-14.1c-2.7-3.7-6.6-6.2-10.7-7.2c-6-4-13.9-4.6-20.2-0.3c-2.4,1.6-4.4,3.9-5.7,6.5c-0.9,0-1.8,0-2.7,0
		c-1-0.4-2.1-0.8-3.1-0.9c-0.3-0.1-0.6-0.1-0.8-0.2c-1.5-0.8-3.1-1.4-4.9-1.7c-0.3-0.1-0.6-0.2-0.9-0.3c-3.6-1.9-7.8-2.7-11.7-2
		c-3.5-5.2-9.3-8.9-15.8-7.9c-1.9,0.3-3.7,0.6-5.7,0.8c-0.1-3.3-0.9-6.7-3-9.4c-2.7-3.6-6.8-7.1-11.5-7.5c-4-0.4-8.1-0.8-12.2-1.2
		c-0.9-0.1-1.8-0.1-2.6-0.2c-0.5-1.4-1.1-2.7-2.1-4c-1.1-1.2-2.1-2.4-3.2-3.6c-2.4-2-5.2-3.4-8.2-4c-3.4-0.9-6.6-1.8-10-2.6
		c-0.6-0.2-1.4-0.3-2-0.3c-0.2-0.1-0.3-0.1-0.5-0.2c-21.8-8.4-44.3-17-67.3-21.7c-0.1-0.2-0.2-0.2-0.2-0.5c-1.8-2.6-4.2-4.8-7.2-6.1
		c-1.4-0.5-2.9-0.9-4.3-1.4c-3.1-0.6-6.2-0.4-9.1,0.6c-1.3,0.3-2.5,0.6-3.8,0.9l-0.1-0.1c-1.8-4.4-4.8-8.6-9.3-10.5
		c-2.1-0.9-4.2-1.4-6.4-1.6c2.8-11.1,5.7-22,9-32.8c0.1-0.4,0.2-0.6,0.2-0.8c0.2-0.8,0.5-1.6,0.7-2.3c0.6-1.6,1.1-3.3,1.7-4.9
		c1.4-3.8,2.8-7.6,4.4-11.3c1.3-3.1,2.7-6.2,4.2-9.3c3.9,0.2,8.1-0.5,11.2-3c3.1-2.5,6.2-5.1,9.4-7.6c3.7-3,6.7-6.6,7.5-11.5
		c0.8-4.3,0-9.9-2.7-13.5c-2.8-3.8-6.7-6.9-11.5-7.5c-4.6-0.7-9.8-0.2-13.5,2.7c-1.4,1-2.6,2.1-3.9,3.1c-8.9-3-17.7,0.9-22.3,9.1
		c-2,3.4-3.9,7-5.6,10.5c-1.3,0.2-2.5,0.5-3.8,1.2c-9.7,4.8-19,10.1-27.7,16.1c-5.9-3.9-14-4.9-20.1-0.2
		c-14.2,11.2-28.8,22-42.7,33.6c-4.6,3.9-8.8,8.1-12.3,12.7c-4.2,0.6-8.2,2.5-11.5,6c-5.8,5.9-11.6,11.9-17.5,17.7
		c-0.7,0.7-1.4,1.5-1.9,2.4c-1.5,1.1-2.9,2.5-3.9,4.2c-4.1,2.8-6.8,7.5-7.6,12.5c-9.7,3.3-19.4,7.1-28.9,10.9
		c-18.6,7.4-37.3,14.8-56,22.2c-4,1.6-7.4,4.5-9.6,8.2c-2.5,0.4-4.9,1.3-7.2,2.7c-15.5,9.5-30.9,19-46.4,28.7
		c-6.9,4.3-13.3,8.9-19.1,14.5c-3.2,3-5.7,6.3-7.8,9.7c-1,1-2.1,2-3.2,3c-0.5,0.5-0.9,0.8-1.2,1.1c-0.2,0.2-0.5,0.5-0.9,0.7
		c-1.5,1.2-2.9,2.3-4.5,3.4c-0.9,0.6-1.7,1.2-2.7,1.7c-0.3,0.1-0.6,0.3-1.2,0.5c-4.2,1.8-7.9,5-10.1,8.9c-6.6,3.1-12.8,7-18.1,10.6
		c-14.2,9.6-27,21.7-39.4,33.6c-2.8,2.7-5.6,5.5-8.4,8.3c42.8,0,85.7,0.1,128.5,0.3c0.5-0.5,1.1-1.1,1.6-1.6
		c6.8-7.1,13.5-14.2,20.2-21.3c2.4-1.8,4.5-3.8,6.6-6c0.7,1.4,1.5,2.6,2.5,3.7c6.4,7.1,15.3,7.3,23.4,3c21.1-11,42-21.9,63.1-33
		c4.8,4.8,10.3,9,14.5,12.4c0.8,0.7,1.6,1.3,2.4,1.9c-1.1,0.2-2,0.5-3,0.9c-1.7-2.3-4.1-4.4-6.6-5.4c-4.2-1.7-9.2-2.5-13.6-0.8
		c-1.4,0.7-2.9,1.5-4.3,2.2c-2.6,1.8-4.8,4.2-6.1,7.2c-1.9,3.2-3.2,7-3.9,10.8c-0.8,3.7-1,7.7-0.5,11.4c0.4,3.1,1.2,6.3,3,8.9
		c1.8,2.7,4.3,4.7,7.2,6c5.2,0,10.4,0,15.6-0.1c2.3-1,4.4-2.5,5.8-4.4c0.7-0.9,1.4-1.8,2.1-2.8c1.4,0.6,2.8,1.1,4.3,1.4
		c1.9,0.4,4,0.7,5.9,1.2c1,0.2,2,0.5,2.9,0.8c0.2,0.1,1.3,0.3,2.1,0.5c0.6,0.2,1.4,0.4,1.6,0.5c0.9,0.3,1.9,0.7,2.8,1.1
		c1.2,0.5,2.4,1,3.6,1.5c6.8,0,13.5,0,20.3-0.1c2-1.3,3.8-3.1,5.2-5.2c0.4-0.5,0.6-1,0.9-1.6c4.5,3.4,10.4,4.5,16.5,2.7
		c35.1-10.2,70.1-20.6,105.3-30.9c0.2,0.6,0.4,1.3,0.9,1.8c0.5,0.7,1.1,1.3,1.9,1.7c0.7,0.5,1.4,0.8,2.3,1c0.5,0,1.1,0.1,1.6,0.1
		c1.2-0.1,2.2-0.4,3.2-1.1c0.4-0.4,0.9-0.8,1.3-1.1c0.7-0.9,1.2-1.9,1.4-3c0.1-0.6,0.2-1.1,0.3-1.7c0.1-0.6,0.1-1.1,0.1-1.6
		c9.1-2.6,18.2-5.3,27.3-8c3.2,2.3,7.4,3.6,11.9,3.9c78.3,4.5,156.5,9.1,234.8,13.5c1.5,0.1,3-0.1,4.4-0.6c2.2,0.3,4.5,0.7,6.6,1.2
		c1.6,0.4,3.2,0.8,4.7,1.3c0.4,0.1,0.8,0.2,0.9,0.2c0.2,0.1,0.5,0.2,0.9,0.4c3.1,1.2,6.1,2.4,9,3.8c1.3,0.6,2.4,1.3,3.6,1.9
		c0.6,0.4,5.5,3.3,2.3,1.2c7.8,5.1,18.9,6.3,25.4-2C1137.4,312.6,1138.5,299.6,1130,294.1z M483.4,291.8c-1.5,1-3.1,2.1-4.6,3
		c-1.1,0.6-2.2,1.4-3.3,2c-0.1-0.1-0.2-0.2-0.2-0.3c1.7-2.1,2.9-4.8,3.5-7.5c1.2-0.9,2.3-1.8,3.5-2.7c0.7-0.5,1.6-1.1,2.3-1.6
		l0.1-0.1c1,0.9,2.1,1.7,3.2,2.4C486.4,288.6,484.9,290.2,483.4,291.8z"/>
	<path class="st5" d="M390,341.4c3.4-2.9,6.8-5.8,10.1-8.6c2.7-7.8,5.4-15.5,8.1-23.3c-10.6,9.5-21.6,20.1-32.9,31.8
		C380.3,341.4,385.2,341.4,390,341.4z"/>
	<path class="st5" d="M429.5,309.1l18.3-32.1l14.2-8.6c-3.9,6-8.3,12.3-13.3,18.8C442.2,295.6,435.7,302.9,429.5,309.1z"/>
	<path class="st5" d="M635.7,160.7c0.5-0.3,17-3.4,17-3.4c7.2-8,15.4-16.5,24.7-24.9c18.2-16.6,36.3-29.5,52.3-39.3
		c-17.1,9.3-36.1,21-55.9,35.7C659.3,139.5,646.6,150.4,635.7,160.7z"/>
	<path class="st5" d="M510.5,230.9c14.8-7.4,36.1-16.8,62.5-25.3c31.2-10,85-26.8,153.6-21.6c68.4,5.2,121,29.9,152.4,48.2
		c17.6-4.4,35.2-8.9,52.7-13.3c-32.9-22.7-80.8-47.9-141.9-57.2c-91.7-14-165.8,15.1-205.9,31.3C552.4,205.9,527.6,220,510.5,230.9z
		"/>
	<path class="st5" d="M903.6,250.3c6.8-4.8,15.6-10.1,26.4-14.6c7.3-3,14.2-5.1,20.1-6.5c23.3,3.7,54,11.1,87.4,26.9
		c21.3,10.1,39,21.3,53,31.7c-24-9.8-53.8-19.7-88.5-26.9C964.5,253.1,931,250.5,903.6,250.3z"/>
	<path class="st4" d="M594.1,264.3c14.2,5.6,25,12.1,32.4,17.1c8.3,5.6,14.4,11,19.2,15.1c8,6.9,14.2,13.2,18.9,18.1
		c-7.4-12.2-17.7-26.4-31.6-40.6c-6.9-6.9-13.7-12.9-20.1-17.9c-2.8,0.7-6.2,1.7-9.8,3.3C599.4,260.9,596.4,262.7,594.1,264.3z"/>
	<path class="st5" d="M646.7,255c2.7-0.7,6.4-1.4,10.9-1.2c3.2,0.1,5.9,0.7,8.1,1.3c3.6,3.4,7.3,7,10.9,11
		c8.4,9,15.4,17.8,21.3,26.1c-1.1-0.7-2.7-1.8-4.7-3.2c-11.2-7.9-17.6-14-22.5-18.2C665.6,266.3,657.9,260.6,646.7,255z"/>
	<path class="st5" d="M682.9,256.7l19.3,1.2c3.4,3.5,7,7.2,10.5,11.5c7.8,9.2,14,18.3,18.8,26.5c-6.8-7.1-15-14.8-24.7-22.5
		C698.5,266.6,690.3,261.2,682.9,256.7z"/>
	<path class="st5" d="M714.4,259.6l20.2,2.2c2.1,2.4,5,5.8,8.2,10c9.5,12.3,16.5,24.1,15.8,24.6c-0.7,0.5-7.2-11-20.2-22
		C729.4,266.8,720.6,262.3,714.4,259.6z"/>
	<path class="st1" d="M692.1,341.8H759c77.9,0,155.9,0.1,233.8,0.8c-2.2-1.5-4.8-2.7-7.3-3.3c-39.5-8.7-79.6-12.8-119.9-15.6
		c-1.1-0.1-2.3-0.4-3.5-0.5c103.6-7.8,204.9,2.1,304.2,28.8c12.6,0,25.1,0.1,37.7,0.1c-64.5-64-139.3-110.7-231.1-128.6
		c17.3-1.8,34.3,0.5,51.1,4.6c-0.7-1-1.5-1.5-2.3-2c-36.6-20.3-74.3-38.3-113.7-52.5c-33.2-11.9-66.9-21.4-102.6-22.3
		c-0.6,0-1.2-0.4-2.9-0.8c7.6-2.6,14.2-4.7,20.6-7.2c1.2-0.5,2.8-2.8,2.7-4.1c-1.6-14.3,1.3-27.9,6.2-41.2
		c9.4-25.2,24.2-47.4,40.6-68.4c7.9-10.1,16.3-19.7,24.7-29.6c-0.9,0.1-1.6,0.1-2.2,0.4C825.5,22.3,759.6,51.9,700,94.7
		c-19.9,14.3-38.5,30.1-55.6,47.7c-3.2,3.4-6.4,6.8-9.5,10.3c-2.9,3.3-5.6,6.8-8.5,10.3c29.1-25.3,59.3-48.8,93.1-67.2
		c47.8-26,94.1-45,105.5-44.3c-12.3,13.8-22.3,28.8-30.4,45.2c-8,16.4-13.3,33.7-16.4,51.4c-12.7,0.3-25,0.7-37.3,1v1.4
		c1.2,0.2,2.2,0.3,3.4,0.4c64.6,4.8,124.6,24.5,180.7,56.6c12.7,7.2,24.3,15.9,39.5,19.3c52.7,11.5,99.7,35.9,142.7,68.2
		c7,5.3,13.7,11,20.5,16.5c-93.7-24.8-188.8-31.5-286.2-29.3c24.2-20.4,50.2-35,76.8-48.9c-1.2-0.2-2.3-0.2-3.4,0.1
		c-27.5,8.4-55.4,15.9-82.5,25.5c-16.4,5.8-31.7,14.6-47.2,22.5c-5.7,2.9-5.5,3.5-1.8,8.6c1.9,2.7,3.9,5.4,5.6,8.3
		c1.7,2.6,3,5.5,4.5,8.3c-15.5-15.7-31.2-30.8-51-41.1c7.8,12.8,17.7,24.4,21.4,39.5c-15.4-17.1-32.4-32.1-51.6-44
		c4.9,7.2,10,14.2,14.4,21.5c4.5,7.4,8.4,15.2,12.5,22.9c-0.5,0.3-1,0.7-1.5,1c-17.7-21.1-39.1-37.3-63.6-49.3
		c13,13.7,25.6,27.4,33.1,45c-26.1-21-52.7-40.5-86.7-46.5C648.9,281.3,674.3,308.9,692.1,341.8z"/>
	<path class="st1" d="M565,342.2c17.6-0.1,35.2-0.2,52.9-0.3c-0.1-1.7-0.1-3.4-0.2-5.1c0.4-0.3,1-0.5,1.4-0.8
		c1.7,1.9,3.4,3.9,5.2,5.9c5.5,0,11,0,16.5,0c-9.1-7.4-19-13.9-31-18c-0.7,5.6-1.3,10.5-2,15.6c-0.4,0-0.7,0.1-1,0.1
		c-1.6-8.8-3.3-17.5-5.2-27.8c17.9,6.8,31.7,17.5,43.9,30.1c12,0,24-0.1,36-0.1c-6.3-7.8-13.1-15.3-20.3-22.5
		c-20.7-20.7-44.1-37.1-72.4-45.5c-4.6-1.4-7.7-0.6-11.4,2.5c-10.3,8.8-19.2,18.8-26.3,30.5c-0.5,0.8-1.3,1.5-2,2.3
		c4.4-19.7,13.8-36.3,29.1-49.3c15.3-13,33.5-18.6,53.1-21.3c-22.6-6.2-44.5-4.9-66,4.4c-6.3,2.7-11.1,6.7-14.1,12.7
		c-7.2,14.4-14.5,28.9-21.7,43.3c-1.3,2.6-2.3,5.2-3.4,7.8c-0.3-0.1-0.7-0.3-1.1-0.4c0.8-6.9,1.4-13.9,2.3-20.9
		c-14.5,23.4-29.9,45-56.5,55.3c13.3-8.9,23.8-20.3,31.1-34.7c-8.8,7.7-17.7,15-30.9,18.4c2.9-7.7,5.2-14.4,7.9-20.9
		c0.4-1,3.1-1.9,4.1-1.4c3.7,1.7,7.1,3.9,10.9,6.1c2.5-4.1,2.8-9.2,1.2-14.6c-0.3-1.2,0.4-3.7,1.4-4.3c5.2-3.4,10.5-6.4,15.9-9.3
		c6-3.3,12-6.5,18.2-9.7c-3.2-0.8-6.1-0.7-9.1-0.4c-19.7,1.9-39.5,4.2-57.8,12.6c-3.7,1.7-7.3,4.9-9.3,8.4
		c-9.5,16.8-18.9,33.8-28.3,50.7C472.5,341.6,518.8,341.8,565,342.2z"/>
	<path class="st1" d="M370.2,341.4c25.4-28.2,47.8-50.2,57.7-54.4c-4.4,10.6-8.6,20.9-13,31.3c1.9-0.7,2.6-1.8,3.5-3
		c8.4-12.3,16.8-24.8,25.5-37.1c2.1-2.8,4.7-5.9,7.8-7.4c12.5-6.4,25.1-12.2,37.7-18.2c1.1-0.5,2.3-0.9,3.3-1.4
		c-3.4-0.9-6.7-1-9.9-0.8c-3.4,0.3-6.8,0.9-10.2,1.4c60.8-43.8,129.2-71.6,199.6-95c-1.9-0.2-3.7,0-5.5,0.5
		c-16.1,4-32.5,7.3-48.3,12.4c-20.4,6.6-40.7,13.8-60.4,21.9c-35.2,14.5-68.2,33.2-100,54c-40.2,26.3-77.5,55.8-110.2,91.1
		c-1.4,1.6-2.9,3.1-4.3,4.7C352.4,341.4,361.3,341.4,370.2,341.4z"/>
	<path class="st5" d="M470.9,324.2c0.6-4.4,1.9-10.1,5-16.2c1.4-3,3.4-5.9,3.4-5.9c0.2-0.4,0.4-0.6,0.5-0.8c1.2-0.2,2.8-0.3,4.5-0.1
		c5.6,0.9,8.8,5.3,9.6,6.4c-1,2-2.3,4.1-4.2,6.3C483.2,321.4,474.6,323.5,470.9,324.2z"/>
	<path class="st7" d="M475,309.7c-0.9,1.9-1.7,4.2-2.4,6.7c-0.8,2.9-1.4,5.4-1.6,7.8c1.9-0.3,4.4-0.9,7.2-2.1c2.8-1.2,5-2.4,6.6-3.6
		C481.5,315.6,478.2,312.6,475,309.7z"/>
</g>
<path class="st5" d="M2103.5,254C1893,534.5,1678,27,1467.3,254C1256.5,481,1095,66,831,254s-262-333-647.5,0
	C145,287.2,81.5,336.5,9,347.1s350.6,0,485.3,0c152.7-0.1,305.5,0.3,458.2,1.9c44.7,0.2,89.3,0.9,134,2.1
	c11.3-0.1,22.6,0.2,33.8,0.8c81.7,0.2,163.4,0.6,245.1,1.3c25.8-1.9,51.7-2.7,77.7-2.4c33.8-0.4,67.5-0.9,101.3-1.3
	c152.7-1.8,305.5-1.8,458.2-1.9c62.2,0,329.7-0.2,391.9,0C2235,335.5,2198.4,127.5,2103.5,254z"/>
</svg>
