<svg width="618" height="705" viewBox="0 0 618 705" fill="none" xmlns="http://www.w3.org/2000/svg">
<path d="M130.161 188.635C129.966 188.505 127.235 187.14 123.463 185.384C120.342 183.953 117.741 182.783 115.921 182.003C125.479 181.873 137.769 181.352 152.009 179.727C159.552 178.881 169.631 177.711 181.726 174.98C206.89 169.323 226.008 160.219 259.885 144.158C261.706 143.313 263.137 142.598 263.982 142.207C263.592 142.923 263.007 143.898 262.291 145.069C245.255 172.704 212.222 180.312 183.091 187.075C183.091 187.075 146.027 196.698 130.161 188.635Z" fill="#5B40AD"/>
<path d="M427.064 586.522C426.999 584.831 426.544 583.141 425.894 581.71C426.609 580.214 426.934 578.589 426.934 576.898V576.768C426.999 575.142 426.674 573.647 425.894 572.281C425.634 571.566 425.309 570.851 424.918 570.266C425.309 569.095 425.569 567.795 425.504 566.494C425.504 566.364 425.504 566.299 425.504 566.169C426.154 564.738 426.479 563.178 426.414 561.552C426.349 560.772 426.284 559.992 426.089 559.276C426.609 557.976 426.869 556.545 426.804 555.115C426.804 554.79 426.739 554.465 426.739 554.204C426.804 553.684 426.869 553.099 426.869 552.514V552.449C426.869 551.864 426.869 551.343 426.804 550.758C426.869 550.173 426.934 549.588 426.869 549.002C426.869 548.937 426.869 548.937 426.869 548.872C426.869 548.677 426.869 548.482 426.869 548.287C426.869 548.222 426.869 548.157 426.869 548.092L426.609 538.013L421.927 538.859C420.042 537.428 417.701 536.583 415.165 536.583C409.833 536.583 404.631 540.679 403.655 545.946C403.525 546.727 403.46 547.507 403.46 548.287C403.46 548.352 403.46 548.417 403.46 548.482C403.46 548.612 403.46 548.807 403.46 548.937C403.46 549.458 403.525 549.978 403.655 550.433C403.525 551.083 403.46 551.734 403.46 552.384V552.449C403.46 552.839 403.46 553.164 403.46 553.489C403.395 554.009 403.395 554.465 403.395 554.985C403.46 555.765 403.525 556.545 403.72 557.261C403.2 558.561 402.94 559.992 403.005 561.422C403.005 561.552 403.005 561.617 403.005 561.747C402.355 563.178 402.03 564.738 402.095 566.364C402.225 568.705 402.94 570.916 404.175 572.802C403.72 574.037 403.525 575.338 403.525 576.703V576.833C403.46 578.459 403.785 579.954 404.566 581.32C404.631 581.45 404.631 581.515 404.696 581.645C403.98 583.14 403.59 584.766 403.655 586.457C403.72 587.497 403.85 588.473 404.175 589.448C403.265 590.488 402.615 591.659 402.095 592.959C400.859 590.423 399.494 587.952 398.063 585.546C389.35 570.851 379.336 556.74 369.907 542.435C371.663 540.549 372.769 538.143 373.094 535.607C376.28 530.991 379.401 526.374 382.587 521.757C384.343 519.741 385.448 517.075 385.318 514.279C385.058 509.012 381.677 504.461 376.8 503.03L379.271 498.478C366.591 492.236 347.214 484.563 322.569 481.767C297.99 478.971 276.792 482.092 261.056 486.058C257.349 484.108 253.578 482.287 249.481 481.572C243.499 480.401 236.542 483.262 235.111 489.765C233.811 495.552 236.867 502.965 243.304 504.135C244.41 504.33 245.385 504.656 246.49 504.916C246.75 504.981 246.946 505.046 247.076 505.046C247.141 505.111 247.336 505.241 247.726 505.436C249.937 506.671 252.213 507.842 254.423 509.012L268.014 516.36C272.435 518.766 278.287 518.246 281.929 514.864L303.257 519.156C303.842 520.262 304.623 521.237 305.468 522.082C300.656 522.928 295.909 523.773 291.097 524.618C293.958 527.154 296.429 528.585 297.275 528.975C298.38 529.495 299.616 529.885 299.616 529.885C299.681 529.95 299.811 529.95 299.811 529.95C301.436 530.47 304.688 533.136 308.979 537.363C309.109 537.363 309.304 537.428 309.434 537.428C311.06 537.818 312.165 538.338 313.466 539.249C314.051 539.639 314.506 540.224 314.896 540.939C320.424 543.605 325.3 547.897 329.592 552.189C330.112 552.709 330.567 553.294 330.893 553.944C332.258 554.204 333.559 554.985 334.599 556.48C339.216 563.178 345.653 568.25 351.115 574.167C354.171 577.483 356.837 581.06 359.178 584.896C361.324 588.277 363.99 591.789 364.966 595.755C365.421 597.446 365.291 599.137 364.64 600.567C370.558 606.94 375.5 613.052 379.596 618.709L387.919 639.647C390.13 645.109 394.552 648.881 400.729 648.035C406.776 647.19 410.353 642.443 410.873 636.526C411.783 626.382 410.548 616.498 407.687 607.07C409.312 607.98 411.133 608.5 413.149 608.5C419.261 608.5 425.113 603.103 424.853 596.796C424.788 595.755 424.658 594.78 424.398 593.87C426.154 591.854 427.194 589.318 427.064 586.522Z" fill="#5B40AD"/>
<path d="M562.771 197.934C563.941 199.949 565.047 202.355 566.022 205.086C568.233 211.459 568.688 217.246 568.558 221.343C556.008 206.517 543.459 191.626 530.974 176.801L540.207 174.655L562.771 197.934Z" fill="#5B40AD"/>
<path d="M571.224 312.507C572.134 306.005 572.2 299.958 572.2 299.958C572.2 294.756 571.744 290.334 571.224 287.018C530.909 251.059 490.593 215.165 450.278 179.207L437.468 195.788L432.981 510.898C433.827 515.905 435.647 522.082 440.134 523.773C448.522 526.959 461.137 512.329 467.9 504.331C510.426 454.066 531.689 428.902 546.32 396.714C560.82 353.798 569.859 321.741 571.224 312.507Z" fill="#5B40AD"/>
<path d="M302.022 142.988C301.761 141.817 301.241 140.972 300.591 140.257C300.786 139.281 300.591 138.306 300.071 137.461C300.136 136.615 300.006 135.77 299.551 134.86C298.705 133.104 297.47 132.389 296.169 132.194C296.104 132.064 296.039 131.934 295.779 131.999C298.055 131.673 299.225 128.812 298.705 126.797C298.055 124.326 295.779 123.545 293.503 123.87C290.057 124.326 289.472 127.057 288.171 129.658C287.716 130.568 286.806 131.088 286.025 131.934C285.115 132.909 284.855 134.535 283.88 135.38C283.164 136.03 282.774 136.745 282.579 137.526C280.303 137.396 277.962 139.086 277.962 141.557C277.832 141.622 277.767 141.687 277.637 141.752C276.792 142.272 276.012 142.858 275.166 143.378C273.866 144.223 272.565 145.069 271.265 145.914C270.94 146.109 270.615 146.369 270.289 146.564C268.339 147.865 268.014 149.88 268.599 151.636C268.404 151.571 268.209 151.506 268.014 151.441C261.121 149.165 258.715 156.448 253.968 159.634C253.578 159.699 253.253 159.829 252.863 160.024C252.148 160.414 251.497 160.739 250.782 161.13C249.091 162.04 248.571 163.731 248.831 165.291C247.986 165.096 247.011 165.226 246.035 165.681C242.459 167.437 238.882 169.193 235.306 170.948C231.925 172.574 228.739 173.549 228.283 177.711C228.088 179.597 229.714 181.157 231.34 181.742C230.624 184.278 231.99 187.4 235.241 187.205C236.281 187.14 237.387 187.01 238.362 186.814C238.232 188.05 238.687 189.48 239.598 190.261C240.963 191.561 243.044 191.886 244.735 190.911C245.97 190.196 247.206 189.48 248.441 188.7C250.327 187.53 251.562 185.839 251.692 183.563C251.757 182.393 251.172 181.222 250.262 180.442C251.042 178.166 249.742 175.435 247.791 174.655C247.726 174.525 247.661 174.395 247.596 174.265C248.506 173.809 249.482 173.354 250.392 172.899C252.017 172.119 252.668 170.753 252.538 169.388C253.253 170.688 254.488 171.664 255.919 172.119C257.545 172.574 259.235 172.314 260.861 171.794C260.731 171.989 260.601 172.249 260.471 172.444C258.585 175.695 261.706 179.532 265.217 178.621C266.518 178.296 267.818 177.971 269.184 177.646C272.825 176.736 272.89 172.639 270.875 170.558C271.395 169.258 271.785 167.892 271.85 166.592C271.85 166.592 271.915 166.592 271.915 166.527C275.686 164.251 273.801 159.049 270.029 158.724L270.55 157.488C271.07 156.318 271.135 155.147 270.875 154.107C271.07 154.172 271.265 154.237 271.46 154.302C271.59 156.253 273.411 157.618 275.426 157.878C275.687 158.464 276.077 158.984 276.597 159.439C275.621 162.82 280.108 165.421 282.904 163.796L287.976 160.87C291.097 159.049 290.252 155.212 287.976 153.652C288.171 153.197 288.366 152.676 288.496 152.286C289.342 149.815 288.041 148.06 286.155 147.474C285.96 147.019 285.7 146.564 285.31 146.174C286.025 145.264 286.546 144.353 286.806 143.378C287.521 145.199 289.472 146.629 291.553 146.304V146.369C291.878 149.295 293.958 150.921 296.885 150.466C300.461 150.01 302.802 146.434 302.022 142.988Z" fill="white"/>
<path d="M312.23 125.756C312.295 124.846 312.1 124 311.645 123.22C311.58 122.83 311.45 122.44 311.255 122.05C311.775 121.465 312.165 120.749 312.295 120.034C312.295 119.969 312.36 119.904 312.36 119.839C312.621 119.319 312.751 118.798 312.751 118.213C312.686 117.823 312.621 117.433 312.621 117.108C312.425 116.393 312.035 115.742 311.515 115.222C311.255 115.027 310.93 114.767 310.67 114.572C310.475 114.442 310.28 114.377 310.085 114.312C311.905 111.061 308.264 106.184 304.297 108.525C302.217 109.76 300.591 111.386 299.03 113.271C297.405 115.222 295.259 117.238 295.519 119.969C295.779 122.96 298.445 124.586 301.241 125.756C300.591 127.902 301.826 130.373 303.647 131.218C303.712 131.803 303.842 132.389 303.972 132.974C305.078 137.331 310.735 136.615 312.1 132.974C312.49 131.999 312.881 130.958 313.271 129.983C314.051 128.097 313.401 126.666 312.23 125.756Z" fill="white"/>
<path d="M228.934 195.593C228.804 195.203 228.609 194.812 228.348 194.422C228.999 193.057 228.804 191.496 228.023 190.261C228.804 188.05 227.698 185.254 225.292 184.669C225.552 184.539 225.812 184.409 226.073 184.213C230.819 181.547 226.528 174.2 221.781 176.931C217.619 179.337 213.263 180.897 208.581 181.808C206.11 182.263 205.2 184.734 205.72 186.879C203.834 184.669 200.778 185.254 198.047 185.709L187.708 187.53C185.952 187.855 184.977 189.155 184.782 190.651C184.132 190.196 183.351 189.936 182.506 190.001C181.986 190.066 181.531 190.131 181.075 190.261C179.97 190.521 179.06 190.976 178.279 191.821C177.824 191.626 177.239 191.496 176.719 191.626C175.938 191.756 175.158 191.821 174.378 191.951C174.118 192.016 173.858 192.016 173.598 192.081C172.947 191.626 172.167 191.366 171.257 191.366C169.631 191.431 168.005 192.472 167.355 193.967C166.705 193.512 165.925 193.252 165.014 193.187C163.064 193.122 161.113 193.057 159.162 192.992C154.87 192.862 153.96 197.999 156.366 200.34C156.366 200.47 156.431 200.665 156.431 200.795C156.431 201.38 156.626 201.9 156.951 202.355C157.081 202.615 157.211 202.811 157.406 203.006C157.406 203.266 157.471 203.591 157.536 203.851C157.927 204.956 158.512 205.672 159.487 206.387C160.007 206.777 160.528 207.102 161.048 207.492C161.503 209.248 162.088 210.874 162.543 212.304C164.299 217.441 172.427 215.23 170.671 210.028C170.151 208.598 169.761 207.167 169.371 205.672C169.436 205.151 169.371 204.696 169.241 204.176C169.176 203.916 169.046 203.656 168.916 203.396C168.786 202.55 168.656 201.705 168.591 200.86C168.591 200.535 168.526 200.145 168.526 199.819C168.526 199.689 168.526 199.624 168.526 199.559C168.591 199.494 168.591 199.364 168.656 199.299C169.436 200.079 170.476 200.535 171.712 200.665C171.842 200.86 171.972 201.055 172.102 201.185C170.932 203.266 171.387 206.062 173.533 207.102C173.923 207.752 174.508 208.273 175.223 208.663C175.483 210.093 176.459 211.394 178.149 211.784C180.165 212.239 182.116 212.694 184.132 213.149C189.008 214.255 191.284 207.492 187.578 205.477C187.838 203.721 187.253 201.835 185.497 201.12C185.627 200.079 185.367 199.039 184.652 198.259C184.977 198.064 185.302 197.869 185.562 197.544C185.952 197.153 186.277 196.698 186.407 196.178C186.538 195.918 186.668 195.658 186.733 195.333C188.358 196.373 189.984 197.348 191.609 198.389C191.349 199.039 191.284 199.689 191.349 200.47C191.544 202.16 192.78 203.461 194.34 203.981C194.471 204.111 194.601 204.306 194.731 204.436C195.056 205.932 196.161 207.362 197.722 207.687C198.047 207.752 198.372 207.817 198.762 207.882C198.957 207.947 199.152 207.947 199.347 207.947C199.477 208.078 199.542 208.208 199.673 208.273C200.063 208.663 200.518 208.988 201.038 209.118C201.558 209.378 202.078 209.508 202.664 209.508L203.769 209.378C204.484 209.183 205.135 208.793 205.655 208.273C205.85 208.013 206.11 207.687 206.305 207.427C206.695 206.777 206.89 206.062 206.89 205.281V205.216C206.89 204.631 206.76 204.111 206.5 203.591C206.37 203.266 206.24 202.941 205.98 202.68C206.37 201.835 206.5 200.925 206.175 199.949C205.85 198.974 205.33 198.259 204.614 197.739C204.874 197.283 205.135 196.763 205.33 196.178C206.175 193.902 207.345 191.366 206.695 188.96C206.955 189.22 207.215 189.415 207.476 189.61C207.606 189.676 207.736 189.741 207.866 189.806C208.191 191.756 210.011 193.577 212.157 193.772C212.222 196.308 214.238 198.714 217.294 197.739C217.619 197.609 217.944 197.544 218.205 197.478C219.31 200.47 222.821 202.16 225.812 200.925C228.153 199.949 229.584 197.999 228.934 195.593Z" fill="white"/>
<path d="M168.331 215.88C166.64 214.645 166.835 211.004 165.795 209.183C164.689 207.297 162.023 206.387 161.243 204.501C160.853 203.461 161.178 202.16 160.983 201.055C160.853 199.884 160.463 198.844 159.877 197.804C158.707 195.723 156.886 194.552 154.74 193.707C151.229 192.342 149.733 197.999 153.18 199.364C156.041 200.47 154.87 203.396 155.326 205.737C155.781 207.947 157.146 209.313 158.902 210.614C161.113 212.239 161.113 213.995 161.958 216.401C162.673 218.416 163.649 219.782 165.339 221.017C168.396 223.163 171.322 218.091 168.331 215.88Z" fill="#EAEAEA"/>
<path d="M314.897 132.454C310.345 129.918 309.174 123.415 308.524 118.668C308.004 114.377 310.085 109.76 305.533 107.029C302.282 105.078 299.356 110.15 302.607 112.101C303.452 112.556 302.542 116.067 302.542 116.913C302.542 117.888 302.672 118.929 302.802 119.904C303.192 122.44 303.712 124.911 304.493 127.382C305.793 131.608 308.004 135.38 311.905 137.591C315.287 139.346 318.213 134.274 314.897 132.454Z" fill="#EAEAEA"/>
<path d="M304.037 148.385C300.526 147.995 300.071 142.793 299.616 140.127C299.16 137.461 298.9 134.99 297.73 132.519C296.039 128.942 298.25 122.18 292.008 122.245C289.082 122.245 289.082 126.797 292.008 126.797C292.853 126.797 292.398 130.243 292.463 130.763C292.528 131.999 292.918 133.039 293.438 134.079C294.739 136.745 294.869 139.476 295.454 142.402C296.429 147.474 298.445 152.286 304.102 153.002C306.898 153.327 306.898 148.775 304.037 148.385Z" fill="#EAEAEA"/>
<path d="M289.992 161.975C287.846 160.739 287.131 158.204 285.7 156.318C285.44 155.928 285.18 155.603 284.92 155.212C286.221 155.082 287.326 154.042 286.806 152.481C285.44 148.515 283.555 144.418 283.099 140.192C282.904 138.371 280.693 137.07 279.198 138.566C277.832 139.997 275.882 141.427 275.361 143.443C275.166 143.378 274.906 143.313 274.711 143.313C271.85 142.728 270.615 147.149 273.476 147.67C276.402 148.255 277.377 149.1 278.353 151.961C279.003 153.782 279.458 155.733 280.563 157.293C282.644 160.154 284.465 163.991 287.651 165.811C290.252 167.372 292.593 163.471 289.992 161.975Z" fill="#EAEAEA"/>
<path d="M271.72 169.323C271.07 166.006 270.094 162.885 269.769 159.504C269.509 156.773 269.249 154.627 267.493 152.416C265.608 150.14 262.421 153.392 264.307 155.603C265.998 157.618 265.478 161.975 265.998 164.511C266.323 166.006 266.973 167.697 267.103 169.258C267.233 171.143 267.233 170.883 265.868 171.924C264.502 173.029 263.202 173.809 263.072 175.76C262.942 177.906 264.632 178.946 265.608 180.507C267.168 182.978 271.07 180.702 269.509 178.231C269.314 177.906 267.753 176.345 267.753 176.085C267.753 175.825 269.639 175.045 270.029 174.785C271.915 173.484 272.11 171.534 271.72 169.323Z" fill="#EAEAEA"/>
<path d="M252.083 187.79C250.652 181.808 249.286 175.89 247.856 169.908C248.961 168.607 249.026 166.917 248.116 165.486C246.685 163.275 243.304 164.901 243.889 167.112C243.824 167.112 243.629 167.112 243.304 167.112C242.849 167.112 242.069 167.437 241.679 167.697C240.833 168.152 240.118 168.803 239.793 169.778C238.752 172.444 240.898 175.045 242.199 177.191C242.849 178.296 243.694 179.467 244.215 180.702C244.865 182.263 244.345 183.693 244.67 185.319C245.125 187.66 246.685 189.545 248.831 190.456C250.522 191.171 252.603 189.936 252.083 187.79Z" fill="#EAEAEA"/>
<path d="M228.283 198.259C227.893 194.878 227.373 192.081 226.203 189.22C227.048 188.895 227.763 188.115 227.828 187.14C227.958 186.164 227.763 185.319 227.308 184.408C227.048 183.953 226.463 183.433 226.073 182.913C225.942 182.653 225.877 182.393 225.747 182.133C225.812 181.547 226.398 180.767 226.528 180.247C226.853 179.272 226.788 178.296 226.463 177.321C226.073 176.15 224.967 175.695 223.992 175.76C223.081 174.525 221.001 174.98 220.22 176.41C219.895 176.085 219.44 175.825 218.855 175.76C217.229 175.565 215.864 176.996 215.994 178.621C216.059 179.402 216.384 179.857 216.839 180.507C217.619 181.482 217.749 181.287 218.074 182.718C218.595 185.059 219.765 187.075 220.936 189.155C222.691 192.146 223.211 194.943 223.602 198.324C224.057 201.12 228.609 201.185 228.283 198.259Z" fill="#EAEAEA"/>
<path d="M187.188 215.165C181.596 207.492 182.311 195.983 172.947 191.171C171.777 190.586 170.736 191.041 170.086 191.821C168.201 190.976 165.99 193.707 167.68 195.658C170.606 199.039 173.337 202.55 175.808 206.257C176.589 207.427 177.889 207.492 178.865 207.037C180.1 210.744 181.271 214.515 183.416 217.506C184.977 219.847 188.943 217.571 187.188 215.165Z" fill="#EAEAEA"/>
<path d="M214.563 201.38C212.482 200.665 210.337 199.949 208.451 198.779C207.801 198.389 205.265 196.568 204.289 195.203C204.809 194.747 205.2 194.162 205.265 193.252C205.33 192.602 204.94 191.756 204.549 190.911C204.549 190.001 204.484 189.025 204.224 188.115C205.98 186.034 203.119 183.108 201.103 184.799C199.673 184.929 198.372 186.424 199.217 188.05C198.957 189.155 199.022 190.326 199.542 191.431C199.608 191.626 199.738 191.821 199.868 192.081C199.803 192.537 199.738 192.927 199.608 193.382C199.347 193.837 199.217 194.292 199.282 194.812C199.217 195.008 199.217 195.203 199.152 195.398C198.762 197.544 198.632 199.494 199.282 201.64C199.933 203.591 200.453 205.151 200.843 207.232C201.168 209.248 201.818 210.744 203.249 212.174C205.33 214.255 208.516 211.069 206.435 208.988C204.809 207.297 205.265 204.696 204.614 202.615C204.484 202.16 204.354 201.77 204.224 201.38C204.289 201.445 204.354 201.445 204.354 201.51C206.955 203.591 210.142 204.696 213.263 205.737C216.124 206.712 217.294 202.29 214.563 201.38Z" fill="#EAEAEA"/>
<path d="M415.36 471.883C413.994 467.722 412.954 463.495 412.174 459.203C412.108 458.943 412.108 458.683 412.043 458.423C412.043 458.358 412.043 458.293 412.043 458.163C411.978 457.188 411.848 456.212 411.783 455.172C411.653 453.676 411.588 452.181 411.588 450.685C412.369 449.124 412.824 447.434 412.759 445.548C412.239 433.518 411.783 421.489 411.263 409.459C411.133 406.923 410.223 404.452 408.727 402.437C409.247 401.136 409.507 399.706 409.312 398.21C408.727 393.983 408.207 389.757 407.622 385.53C407.232 382.279 406.581 379.678 404.175 377.272C404.11 377.207 404.045 377.142 403.98 377.077C403.98 377.012 403.915 376.947 403.915 376.882L399.364 364.137C398.843 362.641 397.998 361.211 397.023 359.975C395.007 356.464 391.366 353.993 386.944 353.993C380.832 353.993 374.979 359.39 375.239 365.698C375.369 368.169 376.15 370.509 377.515 372.46L381.287 383.059C381.937 384.945 383.107 386.701 384.473 388.131C384.928 391.512 385.318 394.829 385.773 398.21C386.164 401.006 386.619 403.412 388.374 405.558C387.919 406.793 387.659 408.094 387.724 409.524C388.179 420.774 388.635 432.088 389.09 443.337C388.439 444.768 388.049 446.393 387.984 448.149C387.919 458.293 389.415 468.502 392.601 478.125C394.487 483.913 400.794 488.334 406.972 486.319C413.019 484.433 417.441 478.125 415.36 471.883Z" fill="#5B40AD"/>
<path d="M595.739 272.127C591.512 262.048 585.725 253.01 577.662 245.597C578.702 242.541 578.312 239.094 576.881 235.713C572.85 226.089 566.802 217.246 559.455 209.768C561.861 207.622 563.421 204.566 563.226 201.25C563.096 198.259 561.926 195.528 560.105 193.447C558.349 189.09 554.318 185.904 549.311 185.904C547.425 185.904 545.539 186.424 543.849 187.335C543.394 187.01 542.873 186.684 542.418 186.359C542.028 185.774 541.573 185.189 541.053 184.734C540.923 184.604 540.793 184.474 540.663 184.343C540.142 183.368 539.492 182.458 538.647 181.677C538.517 181.482 538.387 181.352 538.257 181.157C537.021 178.816 535.07 176.866 532.664 175.825C532.664 171.729 530.909 167.632 527.007 165.811C525.902 165.291 524.797 164.771 523.626 164.186C524.797 162.365 525.577 160.219 525.447 158.008C525.317 155.082 524.341 151.701 522 149.75C519.985 148.06 517.904 146.369 515.888 144.678C515.433 144.288 514.978 143.963 514.588 143.638C514.848 142.728 514.978 141.752 514.913 140.712C514.783 139.671 514.653 138.631 514.523 137.591C513.937 135.64 512.962 133.884 511.531 132.454C510.036 130.763 508.605 129.072 507.11 127.382C506.85 127.057 506.46 126.732 506.134 126.471C506.069 126.341 506.004 126.276 505.939 126.146C497.291 113.662 488.318 100.852 477.588 89.9275C477.588 89.7975 477.589 89.7324 477.654 89.6024C477.654 87.5216 477.133 85.5058 476.028 83.6851C475.443 82.9048 474.792 82.1245 474.207 81.3442C472.777 79.9137 471.021 78.8733 469.07 78.3531C468.29 78.028 467.51 77.7679 466.729 77.4427V77.3777C467.38 74.3866 467.25 71.0053 465.559 68.3393C464.779 67.1038 463.803 66.0634 462.698 65.153C468.225 60.2112 473.752 55.3993 479.539 50.7826C479.734 50.5875 479.864 50.5225 479.929 50.4574C480.32 50.1323 480.775 49.8072 481.165 49.4821C482.075 48.8318 482.986 48.1166 483.896 47.4663C486.042 45.9057 488.188 44.4101 490.398 42.9796C492.219 41.8091 494.105 40.6387 496.056 39.5333C498.071 41.0939 500.607 42.1993 503.143 42.0042C505.744 41.8091 508.345 41.549 510.946 41.354C514.067 41.0939 516.928 40.2486 519.204 37.9077C521.22 35.8919 522.781 32.5756 522.651 29.6495C522.521 26.5933 521.545 23.4722 519.204 21.3914C516.993 19.3756 514.002 17.6849 510.946 17.945C509.841 18.0101 508.8 18.1401 507.695 18.2052C503.989 13.3283 497.876 12.2229 492.349 14.9539C490.008 16.0593 487.732 17.2948 485.522 18.5953C484.741 18.2051 483.961 17.9451 483.051 17.88C476.093 16.9047 469.135 16.3845 462.243 16.4495C460.487 12.1578 456.455 8.71153 451.514 9.03665C439.809 9.88197 427.975 10.3372 416.27 11.5726C412.369 11.9628 408.597 12.7431 405.021 13.9135C402.55 12.678 399.689 12.2879 396.633 12.9381C391.366 13.9785 386.034 15.084 380.767 16.1244C380.116 16.2544 379.466 16.4495 378.881 16.7096C377.645 16.7746 376.41 17.0347 375.239 17.5549C371.988 17.5549 368.802 19.1155 366.591 21.5214C360.154 19.7657 353.586 18.2702 347.084 16.8396C334.339 14.0436 321.594 11.1825 308.849 8.3864C306.118 7.80118 303.192 8.12631 300.656 9.29676C299.16 8.58148 297.535 8.19133 295.779 8.12631C283.945 7.60611 272.175 7.08591 260.341 6.63074C255.074 6.43566 249.937 6.56571 244.735 7.47606C241.939 7.93123 239.403 8.77655 236.997 9.88198C236.086 10.012 235.111 10.2071 234.201 10.3371C233.746 10.4022 233.42 10.4672 233.16 10.5322C232.965 10.5322 232.705 10.5973 232.445 10.5973C231.21 10.7273 230.039 10.7923 228.804 10.7923C228.088 10.7923 227.438 10.7923 226.723 10.7273C226.528 10.6623 226.268 10.6623 225.878 10.5322C222.951 9.947 219.83 10.3371 217.229 11.6376C212.547 10.9224 207.801 10.7273 203.639 10.7273C192.455 10.7273 181.205 12.548 170.151 14.4337C146.027 18.5953 122.358 25.0328 99.4693 33.6811C95.5028 35.1766 92.1866 38.4279 91.1462 42.3944C79.9619 45.3855 69.0377 49.287 58.5037 54.3589C52.9766 57.0249 51.0909 65.3481 54.2771 70.355C57.9185 76.0772 64.3559 77.3777 70.2732 74.5816C71.3136 74.0614 72.419 73.5412 73.4594 73.0861C74.1747 72.7609 74.8899 72.4358 75.6052 72.1107C77.9461 71.1353 80.287 70.225 82.6279 69.3797C87.6348 67.624 92.7067 66.0634 97.7787 64.6979C107.662 62.0969 117.806 60.2112 127.95 58.7806C128.21 58.7806 129.706 58.5855 130.096 58.5205C131.266 58.3905 132.437 58.2604 133.607 58.1304C136.338 57.8052 139.069 57.5451 141.8 57.285C147.523 56.7648 153.245 56.3097 158.902 55.9195C169.891 55.1392 180.945 54.554 191.935 53.8387C198.892 53.3836 205.98 52.9934 213.003 52.2781C213.068 52.6033 213.133 52.9934 213.198 53.3185C214.303 57.9353 218.14 61.3816 222.496 62.8122C226.008 63.9826 229.649 63.2673 233.16 62.5521C239.403 61.1865 245.645 59.821 251.822 58.4555C253.773 58.3254 255.659 58.0653 257.545 57.6102C257.415 58.5855 257.415 59.5609 257.545 60.5363C258.39 66.7136 263.137 70.0299 269.054 70.6802C284.4 72.4358 299.681 74.1915 315.026 75.9472C315.872 80.3038 317.302 84.5304 318.278 87.9117C318.473 88.562 318.668 89.2122 318.863 89.7974C318.213 89.5373 317.628 89.3423 316.912 89.2122C316.847 87.3265 316.327 85.3758 315.352 83.8802C313.726 81.4092 311.32 79.1984 308.329 78.4831C307.289 78.3531 306.248 78.223 305.208 78.093C303.127 78.093 301.111 78.6132 299.291 79.7186C297.08 80.759 294.999 82.3196 293.243 84.0753C291.488 85.7659 289.927 87.8467 288.822 90.0575C287.911 91.8782 287.196 93.894 287.196 95.9748C287.196 98.5758 288.106 101.047 289.732 103.062C291.032 104.688 292.463 105.859 294.414 106.639C296.69 107.614 299.616 108.069 302.022 107.224C302.737 106.964 303.452 106.769 304.167 106.509C304.688 107.354 305.273 108.134 305.988 108.85C306.898 109.76 307.874 110.67 308.719 111.646C309.174 112.101 309.629 112.621 310.02 113.141C310.085 113.271 310.605 113.792 310.93 114.182C311.19 114.507 311.515 114.897 311.58 115.027C311.97 115.547 312.361 116.132 312.686 116.653C313.531 117.888 314.311 119.124 315.026 120.424C317.953 125.496 324.325 127.447 329.657 125.236C330.047 125.106 330.372 124.911 330.698 124.716C331.868 128.162 334.664 130.958 338.565 132.194C361.194 139.476 383.823 146.694 406.516 153.977C406.386 154.367 406.256 154.822 406.321 155.277C406.321 155.863 406.451 156.383 406.711 156.903C406.907 157.423 407.167 157.878 407.557 158.269C407.817 158.464 408.142 158.724 408.402 158.919C409.052 159.309 409.768 159.504 410.548 159.504C410.938 159.439 411.328 159.374 411.653 159.374C412.369 159.179 413.019 158.789 413.539 158.269C413.799 158.008 414.059 157.748 414.319 157.488C414.579 157.228 414.775 156.968 414.97 156.643C420.822 158.529 426.674 160.414 432.591 162.3C433.502 164.706 435.257 166.917 437.598 168.738C478.109 199.689 518.554 230.706 559.065 261.658C559.845 262.243 560.69 262.698 561.666 262.958C562.706 263.934 563.811 264.974 564.787 266.015C565.502 266.795 566.217 267.575 566.868 268.421C567.063 268.616 567.193 268.811 567.258 268.876C567.323 269.006 567.453 269.136 567.583 269.396C568.818 271.152 569.989 272.907 571.029 274.728C571.484 275.508 571.874 276.289 572.265 277.069C572.46 277.524 574.02 280.84 573.045 278.564C575.386 284.157 580.913 288.838 587.415 286.758C592.943 284.742 598.274 278.174 595.739 272.127ZM248.506 35.0466C247.336 35.0466 246.1 35.0466 244.93 34.9815C244.084 34.9165 243.239 34.9165 242.459 34.8515C242.459 34.7865 242.459 34.6564 242.459 34.5914C244.149 34.0712 245.775 33.0958 247.076 31.7953C248.051 31.7303 248.961 31.6653 249.937 31.6003C250.522 31.6003 251.172 31.6003 251.757 31.6003H251.822C252.017 32.4456 252.343 33.2909 252.668 34.0712C251.237 34.3963 249.872 34.7214 248.506 35.0466Z" fill="#5B40AD"/>
<path d="M100.12 44.3451C114.945 38.3628 132.047 32.3806 151.294 27.3086C169.501 22.4968 186.407 19.3106 201.558 17.2298C197.267 20.416 192.975 23.6022 188.683 26.7884C176.589 27.9589 163.584 29.7145 149.864 32.2505C131.592 35.6318 115.01 39.7934 100.12 44.3451Z" fill="white"/>
<path d="M213.133 24.7076L234.656 14.1086L245.45 14.6288C241.158 16.4495 236.477 18.2051 231.405 19.8958C224.902 22.0416 218.725 23.6022 213.133 24.7076Z" fill="white"/>
<path d="M378.231 20.0259C378.621 20.0259 388.635 24.3825 388.635 24.3825C395.462 22.6919 402.94 21.1313 411.003 19.9608C426.869 17.685 441.305 17.2948 453.529 17.88C440.914 16.6446 426.414 15.9943 410.418 16.7096C398.713 17.2298 387.919 18.4653 378.231 20.0259Z" fill="white"/>
<path d="M285.245 12.1578C295.909 13.5884 310.8 16.2544 328.161 21.3263C348.579 27.3086 383.693 37.9077 418.741 65.7383C453.659 93.5039 472.972 125.951 483.181 147.279C494.235 151.311 505.354 155.342 516.408 159.374C506.98 135.12 490.398 104.103 460.877 76.8575C416.595 35.8919 366.136 24.5126 338.63 18.5953C316.977 13.9785 298.445 12.548 285.245 12.1578Z" fill="white"/>
<path d="M489.813 165.941C495.21 165.811 501.908 166.202 509.386 167.697C514.393 168.738 518.879 170.103 522.586 171.534C533.77 182.003 547.62 197.218 559.845 217.896C567.648 231.096 573.045 243.581 576.816 254.31C567.453 240.265 555.033 224.074 538.972 207.557C521.61 189.676 504.509 176.085 489.813 165.941Z" fill="white"/>
<path d="M524.211 260.162L553.017 287.018C552.302 305.68 549.441 330.259 541.053 358.025C531.624 389.042 518.424 413.101 507.565 429.812C515.433 409.264 524.081 380.393 527.398 345.085C530.714 310.687 527.918 281.491 524.211 260.162Z" fill="white"/>
<path d="M249.286 492.756C255.204 492.496 263.527 492.171 273.541 492.171C291.878 492.171 307.939 492.106 326.341 495.097C337.785 496.983 353.586 500.494 371.923 508.037C372.769 505.501 373.614 502.965 374.459 500.429C360.739 496.072 343.963 491.976 324.52 489.83C294.154 486.449 268.209 489.18 249.286 492.756Z" fill="white"/>
<path d="M318.083 60.6013C323.675 68.7944 327.121 76.2073 329.267 81.6043C331.673 87.6516 333.038 92.7886 334.079 96.7551C335.834 103.388 336.94 109.045 337.655 113.401C338.11 104.103 337.785 92.7236 335.444 79.9787C334.274 73.7363 332.778 68.0792 331.153 63.0072C329.397 62.357 327.186 61.6417 324.65 61.1865C322.179 60.7314 319.903 60.6013 318.083 60.6013Z" fill="white"/>
<path d="M349.815 74.7767C351.505 75.3619 353.781 76.3373 356.122 78.093C357.813 79.3284 359.048 80.6289 360.024 81.7344C360.739 84.8556 361.389 88.1718 361.909 91.6181C363.145 99.4861 363.73 106.834 363.86 113.466C363.535 112.686 363.08 111.516 362.495 110.02C359.373 101.697 358.138 96.0398 357.033 92.0083C355.862 87.7817 353.781 81.8644 349.815 74.7767Z" fill="white"/>
<path d="M368.672 88.8871L378.621 96.56C379.206 99.6812 379.791 102.997 380.116 106.574C380.962 114.377 380.962 121.53 380.572 127.707C379.531 121.399 377.905 114.247 375.5 106.574C373.419 99.9413 371.013 94.0241 368.672 88.8871Z" fill="white"/>
<path d="M384.538 101.957L394.617 110.54C394.877 112.621 395.202 115.482 395.397 118.929C396.047 129.007 395.462 137.916 394.942 137.916C394.422 137.916 395.072 129.333 392.081 118.668C390 111.321 386.944 105.663 384.538 101.957Z" fill="white"/>
<path d="M444.231 514.279C443.906 514.084 443.646 513.889 443.32 513.629C443.906 512.914 444.491 512.133 445.141 511.418C461.202 493.146 474.272 472.923 484.546 450.88C500.672 416.287 509.451 379.873 511.987 341.834C514.002 310.752 512.117 279.93 504.769 249.563C504.249 247.483 503.078 245.337 501.583 243.776C483.506 224.659 463.413 207.882 442.735 191.691C442.15 191.236 441.63 190.651 441.045 190.131C510.166 229.731 568.558 281.425 617.067 344.565C606.663 280.84 583.254 223.358 536.891 176.801C546.905 182.133 555.163 189.545 562.706 197.934C562.706 197.153 562.446 196.568 562.186 195.983C549.896 171.729 536.176 148.255 520.115 126.211C506.589 107.679 491.894 90.2526 473.037 76.7925C472.712 76.5974 472.517 76.1422 471.801 75.2969C476.808 76.6624 481.165 77.9629 485.521 78.9383C486.367 79.1334 488.057 78.4831 488.448 77.7028C492.804 69.4447 499.307 63.1373 506.785 57.8052C521.025 47.6614 537.086 41.0939 553.602 35.8269C561.535 33.2909 569.599 31.2101 577.727 28.9342C577.206 28.6741 576.816 28.414 576.426 28.349C530.974 14.7588 484.676 6.63073 437.013 7.93123C421.082 8.3864 405.281 10.077 389.675 13.3283C386.684 13.9785 383.758 14.6288 380.832 15.4091C378.035 16.1244 375.304 17.0347 372.508 17.88C397.413 14.8889 422.252 13.2633 447.157 15.6692C482.27 19.0505 514.132 25.748 519.985 30.2997C508.345 33.2259 497.486 37.6476 487.147 43.5648C476.873 49.4821 467.705 56.8949 459.577 65.2831C452.619 60.7964 445.856 56.5047 439.159 52.2131C438.964 52.4732 438.834 52.7333 438.639 52.9934C439.224 53.5136 439.744 53.9688 440.329 54.489C473.362 80.6289 498.461 113.141 516.993 150.856C521.22 159.374 524.276 168.282 531.234 175.63C555.423 201.055 571.809 231.356 583.189 264.389C585.009 269.786 586.57 275.313 588.196 280.71C546.84 233.177 498.071 194.878 444.816 160.544C465.299 158.399 484.611 160.024 503.988 162.235C503.403 161.715 502.818 161.26 502.103 161.065C484.221 155.537 466.469 149.425 448.392 144.678C437.468 141.817 426.024 140.972 414.774 139.541C410.678 139.021 410.548 139.411 410.678 143.508C410.743 145.654 410.808 147.865 410.678 150.01C410.613 152.026 410.288 154.042 410.093 156.123C407.492 142.012 404.501 128.162 397.608 115.417C397.153 125.171 398.258 134.99 394.747 144.483C392.666 129.658 389.025 115.417 383.042 101.957C383.042 107.614 383.237 113.206 382.977 118.798C382.717 124.456 381.937 130.048 381.352 135.705C380.962 135.705 380.571 135.705 380.181 135.705C378.361 117.888 372.768 101.372 363.925 85.961C365.941 98.0556 367.697 110.02 365.356 122.245C358.983 101.437 351.765 81.2142 335.639 65.6082C343.767 98.8359 347.539 131.999 337.265 165.356C336.94 164.836 336.94 164.316 336.94 163.796C338.24 147.279 337.33 130.893 334.144 114.637C330.567 95.9748 323.935 78.6132 311.775 63.7225C309.824 61.3166 307.809 60.6013 304.753 60.9264C295.974 61.9018 287.521 64.0476 279.458 67.754C278.873 68.0141 278.222 68.0792 277.572 68.2742C287.131 59.3008 298.25 53.7737 311.255 52.3432C324.26 50.9126 336.095 54.554 347.604 60.2762C337.72 48.7018 325.43 41.419 310.475 38.5579C306.118 37.7126 302.087 38.1027 298.25 40.2485C289.082 45.3855 279.913 50.5225 270.745 55.6594C269.119 56.5698 267.623 57.6102 266.063 58.5855C265.933 58.3905 265.803 58.1954 265.608 58.0003C268.534 54.554 271.46 51.0427 274.451 47.5964C258.13 54.8791 241.939 60.9264 223.862 56.7649C234.266 56.8299 244.084 54.554 253.253 49.417C245.71 50.3924 238.232 51.0427 229.909 48.0515C234.266 44.9303 237.972 42.1993 241.809 39.6633C242.394 39.2732 244.149 39.7934 244.54 40.3786C245.905 42.6545 246.945 45.0604 248.181 47.6614C251.042 46.3609 253.058 43.7599 254.163 40.2485C254.423 39.4682 255.724 38.4278 256.504 38.4278C260.536 38.4929 264.502 38.818 268.469 39.2082C272.89 39.5983 277.312 40.1185 281.799 40.6387C280.368 39.0781 278.743 38.0377 277.052 37.1274C265.738 30.95 254.228 24.9677 241.353 22.8219C238.752 22.3667 235.631 22.8219 233.29 23.9273C216.319 32.3155 199.477 41.0288 182.506 49.5471C180.75 50.4574 178.604 50.9126 176.654 50.9126C165.079 50.9776 153.505 50.6525 141.865 50.9126C119.432 51.3678 97.1284 53.5136 74.8899 56.6348C68.8426 57.4801 62.8603 58.4555 56.2928 59.4309C78.2712 43.7599 201.038 8.45143 220.35 12.2229C214.108 16.3194 208.061 20.351 201.948 24.3175C203.184 24.6426 204.029 24.3175 204.939 23.9923C213.978 20.416 223.016 16.7746 232.185 13.3283C234.331 12.548 236.867 11.8977 239.077 12.1578C248.116 13.2633 257.024 14.7588 265.998 16.1244C266.778 16.2544 267.558 16.4495 268.274 16.5795C266.778 14.8239 265.022 13.5884 263.202 12.548C261.251 11.4426 259.235 10.5322 257.219 9.55685C305.923 8.19133 352.871 18.1401 399.299 31.2101C398.323 30.4298 397.283 29.8446 396.177 29.4544C386.034 25.748 376.02 21.5214 365.681 18.5303C352.286 14.6288 338.761 11.1174 325.17 8.32138C300.916 3.31447 276.337 1.2987 251.627 0.908549C220.415 0.38835 189.529 2.66422 159.097 9.75192C103.956 22.6919 52.5214 44.6052 3.55773 72.7609C2.58236 73.3462 1.60699 73.9964 0.566589 74.7117C0.956738 75.6871 1.28186 76.3373 1.60698 77.0526C25.4711 126.797 63.3805 161.455 114.555 181.807C116.766 182.718 119.432 182.978 121.838 182.848C133.412 182.003 144.987 181.417 156.431 179.857C193.755 174.72 228.934 163.08 261.381 143.703C262.161 143.248 263.007 142.858 263.787 142.402C263.202 143.768 262.356 144.678 261.381 145.394C256.569 148.905 251.887 152.611 246.815 155.668C216.839 174.005 183.676 182.588 149.148 186.879C142.646 187.66 136.143 188.245 130.031 188.83C157.992 207.622 171.322 233.632 169.826 268.095C220.285 268.03 266.778 256.001 305.078 220.367C298.51 229.926 290.447 237.859 281.149 244.556C252.668 264.909 220.155 272.842 185.822 274.598C183.481 274.728 182.051 275.313 180.88 277.329C168.135 299.502 155.326 321.611 142.516 343.719C141.345 345.8 140.24 347.946 139.134 350.092C138.809 349.962 138.484 349.832 138.159 349.636C142.516 337.347 146.742 324.992 151.229 312.702C155.651 300.543 160.398 288.448 165.014 276.354C156.171 288.968 142.646 319.465 132.307 347.491C132.632 347.686 132.957 347.816 133.282 348.011C138.549 351.392 142.126 359.585 138.614 365.568C138.029 366.608 137.444 367.648 136.924 368.689C136.729 369.144 136.533 369.599 136.403 370.054C136.338 370.509 136.338 371.03 136.208 371.355C136.208 371.485 136.143 371.55 136.143 371.68C136.208 372.07 136.403 373.37 136.468 374.086C136.533 374.281 136.598 374.476 136.663 374.671C136.663 374.801 136.728 374.866 136.728 374.931C136.859 375.126 136.989 375.256 137.054 375.451C137.704 375.386 138.289 375.386 138.939 375.386C139.134 375.386 139.329 375.386 139.59 375.386C155.651 359.715 172.102 344.565 189.789 330.649C210.402 314.458 231.925 299.893 257.024 291.309C257.349 291.179 257.545 290.919 258.13 290.399C239.533 290.334 221.976 287.148 204.744 281.816C262.486 291.309 319.318 286.302 375.695 271.867C364.38 276.614 353.066 281.295 340.971 286.367C344.028 289.163 346.824 291.569 349.36 294.235C367.762 313.873 379.271 337.347 386.814 362.902C394.682 389.562 397.933 416.937 398.063 444.703C398.128 455.822 397.673 466.876 397.478 477.995H396.177C396.177 469.477 396.503 460.894 396.112 452.376C395.137 428.707 391.301 405.428 384.408 382.734C374.329 349.506 358.073 319.855 332.778 295.601C331.608 294.495 330.437 293.39 329.332 292.35C329.332 293.325 329.722 293.845 330.112 294.365C360.934 331.82 380.441 374.151 385.188 422.789C387.984 450.945 385.643 478.516 375.89 505.306C370.623 519.676 363.86 533.136 353.456 544.581C353.131 544.971 352.936 545.426 352.611 545.946C377.45 574.102 389.87 607.265 393.121 644.134C385.773 619.034 374.654 595.82 358.333 575.208C341.947 554.595 321.854 538.924 297.145 529.43C297.795 530.34 298.64 530.926 299.551 531.511C313.206 540.809 325.951 551.148 337.33 563.178C370.298 598.161 385.578 640.753 390.845 687.635C391.496 693.228 391.886 698.885 392.471 704.737C392.861 704.412 393.056 704.347 393.186 704.152C395.137 699.925 397.088 695.698 398.973 691.472C412.304 661.43 424.593 631.129 427.454 597.901C428.885 581.32 428.56 564.869 426.869 548.352C425.308 566.559 423.553 584.701 419.391 602.388C419.391 586.392 419.716 570.266 419.196 554.139C419.001 548.612 419.261 544.516 424.983 542.305C426.154 541.85 426.999 540.679 428.04 539.964C449.173 525.529 468.42 508.947 485.977 490.35C528.633 445.093 557.894 392.813 568.558 330.974C569.599 324.992 570.314 318.88 571.159 312.832C552.887 395.024 508.215 460.764 444.231 514.279ZM281.799 138.566C282.969 146.694 284.075 154.042 285.245 162.235C279.458 157.878 274.451 154.107 269.249 150.205C273.281 146.434 277.117 142.858 281.799 138.566ZM266.323 152.676C266.973 160.284 267.493 167.372 268.144 175.11C261.836 171.339 256.114 167.892 250.002 164.251C255.399 160.479 260.471 156.903 266.323 152.676ZM246.685 166.397V187.985C240.833 183.953 235.046 179.922 228.869 175.695C235.111 172.444 240.638 169.583 246.685 166.397ZM203.574 185.319C203.119 192.537 202.664 199.559 202.208 207.557C196.551 201.705 191.414 196.308 185.627 190.326C192.26 188.505 197.852 186.944 203.574 185.319ZM166.705 212.564C161.698 207.622 158.187 201.77 155.131 194.877C159.162 194.487 162.673 194.097 166.705 193.707V212.564ZM167.42 193.707C173.858 192.537 179.06 191.496 184.587 190.456C184.067 197.413 183.611 204.111 183.091 210.809C182.831 210.939 182.571 211.069 182.246 211.264C177.564 205.607 172.817 200.014 167.42 193.707ZM175.678 232.397C180.23 237.144 184.522 241.695 188.683 246.117C181.986 248.523 176.849 243.451 175.678 232.397ZM192.975 246.572C192.325 246.572 191.284 245.597 191.154 244.947C189.984 239.745 190.374 234.543 191.219 228.755C195.966 234.673 200.193 240.005 204.939 245.922C200.583 246.182 196.746 246.507 192.975 246.572ZM225.292 177.256C224.967 184.669 224.642 191.561 224.252 199.429C218.075 194.357 212.352 189.676 206.175 184.604C212.938 182.003 218.92 179.727 225.292 177.256ZM206.37 245.727C207.15 238.964 207.931 232.787 208.711 225.959C213.458 231.551 217.684 236.493 222.366 242.085C217.034 243.256 212.027 244.426 206.37 245.727ZM223.667 241.76C224.707 234.933 225.617 228.82 226.658 221.798C231.665 226.545 236.021 230.706 240.963 235.388C235.046 237.599 229.714 239.55 223.667 241.76ZM242.849 234.608C244.345 227.715 245.71 221.408 247.336 213.93C251.107 218.612 254.293 222.708 257.935 227.26C252.603 229.796 247.921 232.137 242.849 234.608ZM260.601 225.764C261.641 218.742 262.551 212.434 263.592 205.086C267.428 209.248 270.745 212.759 274.516 216.856C269.574 220.042 265.283 222.838 260.601 225.764ZM276.402 215.685C276.142 215.49 275.947 215.295 275.686 215.1C276.207 208.728 276.727 202.355 277.247 195.788C277.832 195.983 278.157 195.983 278.287 196.113C281.149 199.429 284.01 202.745 286.871 206.062C283.359 209.248 279.913 212.499 276.402 215.685ZM297.015 196.958C294.544 199.494 291.878 201.835 288.821 204.696V185.124C292.658 187.79 295.324 191.106 297.47 194.747C297.86 195.268 297.535 196.503 297.015 196.958ZM283.424 136.81C287.066 132.454 290.642 128.162 294.219 123.935C294.544 123.935 294.804 123.935 295.129 123.935C296.104 131.868 297.015 139.736 298.055 148.515C292.723 144.223 288.236 140.647 283.424 136.81ZM306.378 187.92C304.557 190.196 302.607 192.342 300.656 194.487C300.396 194.227 300.201 194.032 299.941 193.772C299.551 187.855 299.16 181.938 298.77 175.76C302.737 177.971 305.338 181.287 307.158 185.254C307.484 185.904 306.963 187.205 306.378 187.92ZM296.559 120.619C298.705 117.173 301.566 112.751 304.362 108.264C304.688 108.264 305.078 108.329 305.403 108.329C306.443 116.458 307.484 124.651 308.589 133.494C304.232 128.812 300.591 124.911 296.559 120.619ZM304.818 98.3807C302.412 101.112 300.266 103.583 298.055 106.054C297.86 105.924 297.665 105.859 297.47 105.729C299.811 100.396 302.087 95.1295 304.818 88.8871C316.002 104.818 318.343 122.375 319.773 140.322C316.717 125.821 314.376 111.126 304.818 98.3807Z" fill="#282233"/>
<path d="M373.029 496.723C329.722 484.823 286.155 482.417 242.199 492.171C242.134 492.496 242.069 492.756 242.004 493.081C242.784 493.471 243.564 493.992 244.345 494.317C254.358 498.933 263.592 504.786 271.525 512.394C273.281 514.084 275.101 514.409 277.377 514.279C288.821 513.499 299.486 516.36 309.759 521.172C310.02 521.302 310.215 521.562 310.605 521.952C305.663 522.602 300.851 523.058 296.169 523.773C287.001 525.203 278.352 528.195 270.094 532.356C268.664 533.071 267.753 533.266 266.453 531.966C245.32 511.093 220.22 496.853 191.935 488.074C191.479 487.944 191.024 487.684 190.439 486.774C198.242 485.018 205.915 482.937 213.783 481.507C238.622 476.955 263.657 475.785 288.821 477.02C310.475 478.06 331.933 480.661 352.676 487.424C359.699 489.7 366.461 492.886 373.354 495.617C373.289 496.072 373.159 496.397 373.029 496.723Z" fill="#282233"/>
<path d="M229.909 47.9215C231.86 45.7757 234.656 43.1747 238.492 41.0288C240.378 39.9234 242.459 39.0781 242.459 39.0781C242.719 38.9481 242.914 38.883 243.044 38.818C243.759 39.1431 244.67 39.6633 245.515 40.4436C248.181 42.9796 248.311 46.4909 248.311 47.4013C247.076 48.1166 245.58 48.7668 243.759 49.287C237.582 50.9126 232.185 48.8969 229.909 47.9215Z" fill="white"/>
<path d="M237.452 41.6141C236.281 42.3293 234.981 43.2397 233.68 44.3451C232.185 45.5806 230.949 46.751 229.974 47.9215C231.145 48.4417 232.705 49.0269 234.591 49.417C236.477 49.8072 238.167 49.9372 239.468 49.8722C238.752 47.1412 238.102 44.3451 237.452 41.6141Z" fill="#5B40AD"/>
<path d="M424.073 214.515C422.903 208.208 421.732 201.965 420.562 195.658C420.432 195.008 420.237 194.357 420.041 193.707C419.976 192.016 419.716 190.261 419.261 188.57C419.066 187.985 418.936 187.4 418.741 186.814C418.026 183.823 416.66 181.222 414.644 179.011C414.319 177.776 413.864 176.541 413.214 175.37C412.759 173.874 412.108 172.574 411.263 171.274C411.263 171.208 411.263 171.208 411.198 171.143C410.418 169.323 409.638 167.437 408.857 165.616C407.492 163.275 405.801 161.325 403.785 159.634C401.77 155.212 398.843 151.441 394.552 148.905C392.666 146.629 390.39 144.678 387.789 143.313C386.554 142.142 385.253 141.167 383.758 140.257C382.457 138.956 380.962 137.851 379.336 136.875C378.881 136.615 378.491 136.355 378.035 136.095C377.645 135.835 377.32 135.64 376.93 135.445C373.614 132.324 369.387 130.243 364.575 129.593C359.178 125.756 350.27 126.797 345.913 131.543C345.718 131.803 345.523 131.999 345.263 132.259C338.565 130.373 331.738 128.877 324.78 127.837C319.253 126.992 313.401 126.146 307.549 125.951L308.524 133.559L301.436 126.016C299.746 126.081 298.055 126.276 296.364 126.536C296.039 126.536 295.649 126.471 295.324 126.471L297.99 148.58L283.88 137.331C283.685 137.656 283.424 137.981 283.229 138.306C282.774 138.891 282.384 139.541 281.929 140.127L285.18 162.43L270.484 151.376C269.704 151.961 268.859 152.546 268.079 153.132C267.558 153.522 266.973 153.912 266.453 154.302L268.209 175.305L251.822 165.291C250.197 166.527 248.441 167.632 246.75 168.673V187.92L230.364 176.606C229.129 176.996 227.958 177.386 226.723 177.711C226.268 177.841 225.747 177.971 225.292 178.166L224.317 199.299L206.76 184.864C206.305 184.994 205.85 185.124 205.395 185.254C204.809 185.449 204.224 185.579 203.639 185.774L202.274 207.492L186.212 190.781C185.692 190.911 185.172 191.041 184.652 191.171L183.221 210.679L182.441 211.134L168.266 194.422C167.94 194.422 167.615 194.487 167.29 194.487C167.16 194.487 166.965 194.487 166.835 194.487V212.434C165.6 211.199 164.364 209.833 163.194 208.338C160.007 204.371 157.797 200.405 156.171 196.893C155.065 198.129 153.96 199.364 152.79 200.73C151.554 202.16 150.449 203.526 149.343 204.891C147.978 203.396 146.482 201.835 144.922 200.275C144.076 199.494 143.296 198.714 142.516 197.999C140.565 200.925 139.004 204.111 138.029 207.427C134.128 209.378 130.616 212.434 127.885 216.401C126.78 218.026 125.739 219.652 124.699 221.408C119.562 224.919 116.831 227.52 113.32 232.657C111.109 235.843 109.808 239.485 108.378 242.996C106.492 247.548 104.671 252.099 102.851 256.716C101.03 261.463 99.2742 266.21 97.7787 271.087C95.7629 277.524 95.1127 283.636 95.5678 290.074C90.4959 311.727 94.2023 335.526 105.712 354.513C106.102 355.164 106.492 355.749 106.947 356.334C108.443 360.561 110.979 364.462 114.1 367.453C114.36 367.713 114.62 367.908 114.88 368.169C115.791 370.054 116.701 372.005 117.676 373.891C119.757 377.922 123.333 381.043 127.495 382.994C129.966 386.506 133.477 389.172 137.379 390.797C139.134 393.203 141.345 395.284 143.946 396.519C158.057 403.022 172.492 408.874 187.318 413.686C193.755 415.767 200.193 417.782 206.76 419.278C217.229 421.749 227.048 422.269 237.582 420.253C242.979 419.278 248.701 414.206 251.367 409.654C251.887 408.744 252.408 407.704 252.798 406.598C272.5 403.477 291.487 395.804 308.524 385.595C317.497 380.198 326.016 374.086 334.274 367.583C335.899 367.518 337.525 367.193 339.151 366.738C356.967 361.276 369.517 348.921 380.506 334.551C389.285 323.041 396.893 310.557 403.59 297.747C406.971 291.374 410.093 284.872 412.954 278.239C416.465 270.241 420.367 261.983 422.708 253.465C424.918 245.467 425.439 236.753 423.293 228.755C424.918 224.269 424.983 219.652 424.073 214.515Z" fill="#DB9300"/>
<path d="M201.363 217.896C206.63 218.612 212.092 217.311 216.839 213.67C219.7 211.459 221.846 208.663 223.342 205.412C225.422 200.86 227.438 196.308 229.844 191.951C232.315 187.465 236.151 185.969 240.313 187.075C242.524 187.66 244.149 189.025 245.385 190.846C246.816 193.057 248.311 195.268 249.547 197.609C255.399 208.988 269.509 206.712 275.101 198.779C277.442 195.463 279.393 191.886 281.604 188.57C283.164 186.229 284.66 183.888 286.546 181.873C290.252 177.971 294.934 176.866 300.136 178.036C305.988 179.337 308.524 185.969 305.013 191.106C303.712 192.992 301.826 194.552 300.266 196.243C298.77 197.804 297.08 199.169 295.779 200.86C291.878 206.127 294.544 214.32 300.916 215.815C304.297 216.661 307.939 216.466 311.45 216.466C315.872 216.466 320.294 215.815 324.715 215.946C331.608 216.141 334.794 219.652 334.859 226.545C334.924 232.527 333.624 238.314 331.413 243.776C327.836 252.555 327.641 261.398 329.462 270.566C330.567 276.159 331.088 281.881 329.787 287.538C328.942 291.244 326.666 293.52 322.96 294.365C321.009 294.821 318.993 295.146 316.977 295.536C311.775 296.576 307.874 299.502 305.923 304.444C304.492 308.151 303.842 312.117 302.737 315.889C301.957 318.555 301.241 321.286 300.006 323.692C297.925 327.788 294.609 329.219 290.187 327.788C286.936 326.748 283.88 325.187 280.823 323.692C276.857 321.806 273.086 319.595 268.599 319.335C264.697 319.075 261.576 320.31 259.43 323.822C256.374 328.633 252.017 330.129 245.645 328.764C242.199 327.983 238.817 326.878 235.371 326.163C231.08 325.252 228.804 326.748 228.153 331.169C227.828 333.185 227.958 335.331 228.153 337.412C228.609 342.874 228.023 348.011 224.317 352.433C219.7 357.895 210.142 358.74 204.679 354.253C201.233 351.392 199.933 346.58 201.883 341.769C203.054 338.907 204.744 336.241 206.5 333.77C208.971 330.324 211.832 327.008 212.222 322.586C212.938 314.978 209.101 309.646 202.989 305.745C198.632 302.949 193.56 302.168 188.618 301.193C186.147 300.673 183.611 300.283 181.205 299.567C174.248 297.487 169.826 290.594 171.257 283.961C171.972 280.515 174.118 277.914 176.784 275.768C180.555 272.777 184.522 270.046 188.358 267.12C189.789 266.015 191.219 264.844 192.455 263.479C196.291 259.187 196.811 254.83 193.365 250.214C191.024 246.962 187.903 244.296 185.237 241.24C183.481 239.289 181.596 237.274 180.425 234.998C177.304 228.82 179.32 223.423 185.562 220.367C190.374 218.156 195.511 217.636 201.363 217.896Z" fill="#FECB00"/>
<path d="M357.228 326.683C357.163 334.746 347.799 341.768 340.126 339.493C335.379 338.127 331.803 331.495 332.518 325.577C332.973 321.806 334.404 318.62 337.98 317.059C339.801 316.279 341.882 315.889 343.833 315.824C347.279 315.759 350.4 317.059 353.261 318.945C355.927 320.83 357.293 323.431 357.228 326.683Z" fill="#FECB00"/>
<path d="M174.053 313.353C175.288 313.743 177.889 314.328 180.1 315.433C183.611 317.189 184.067 321.091 181.075 323.692C179.58 324.992 177.759 326.033 175.938 326.878C173.533 327.918 170.997 328.894 168.396 329.349C166.705 329.674 164.689 329.414 163.064 328.764C158.187 326.748 157.276 321.546 161.048 317.904C164.364 314.718 168.396 313.613 174.053 313.353Z" fill="#FECB00"/>
<path d="M353.976 252.815C357.488 253.075 361.584 254.7 365.226 257.301C368.217 259.447 368.737 263.219 366.851 266.21C364.901 269.266 361.129 270.501 357.943 268.746C354.106 266.665 350.985 263.739 348.904 259.837C348.774 259.642 348.709 259.382 348.579 259.122C346.954 255.22 348.644 252.815 353.976 252.815Z" fill="#FECB00"/>
<path d="M152.465 251.774C152.465 248.783 153.96 247.027 156.301 246.767C160.202 246.247 165.079 249.823 165.795 253.66C166.185 255.806 165.339 257.366 163.649 258.537C161.893 259.772 160.007 260.943 157.862 259.642C154.675 257.756 153.18 254.7 152.465 251.774Z" fill="#FECB00"/>
<path d="M312.295 344.565C308.719 344.5 306.638 341.769 307.549 338.257C308.979 332.795 314.766 330.584 319.123 333.966C319.968 334.616 320.619 336.111 320.619 337.152C320.424 340.468 315.612 344.63 312.295 344.565Z" fill="#FECB00"/>
<path d="M437.338 244.752C436.168 219.067 426.869 196.178 426.219 194.682C422.708 186.684 418.546 178.881 414.059 171.339C405.866 157.423 394.877 145.979 381.482 137.005C358.658 121.66 333.298 115.157 306.313 114.962L308.199 129.658C312.881 130.048 317.627 130.698 322.309 131.543C331.738 133.299 341.166 135.575 350.075 139.411C352.351 140.387 354.887 140.647 357.293 141.167C360.219 141.752 362.495 140.387 364.64 138.696C364.445 133.754 359.113 132.389 357.358 128.032C358.658 128.032 359.503 127.837 360.024 128.097C366.461 131.413 372.964 134.665 379.206 138.306C391.691 145.589 400.794 156.253 408.142 168.412C415.49 180.507 419.521 193.902 420.952 208.013C422.577 223.879 420.822 239.354 416.465 254.635C412.108 269.721 405.671 283.831 397.608 297.227C391.561 307.24 384.863 316.799 377.32 325.772C368.672 336.046 359.113 345.475 348.839 354.188C339.931 361.796 330.567 368.819 320.619 374.996C313.271 379.548 305.533 383.449 297.795 387.351C276.727 398.015 254.488 404.908 231.079 408.029C214.498 410.24 197.982 410.045 181.596 406.988C164.039 403.672 147.653 397.17 133.347 386.31C124.439 379.548 116.831 371.485 110.784 361.861C97.5836 341.053 93.0319 318.295 95.3077 294.105C96.088 285.977 98.2338 277.914 100.38 269.981C102.786 261.073 105.907 252.359 110.328 244.296C117.221 231.877 124.699 219.847 135.363 210.158C138.679 207.167 141.93 203.981 145.117 200.795C144.987 200.665 144.857 200.6 144.792 200.47L144.531 200.275C144.466 200.21 144.401 200.145 144.336 200.079L144.076 199.819C143.946 199.754 143.881 199.689 143.816 199.559L143.686 199.429C143.621 199.364 143.621 199.364 143.556 199.299L139.72 195.853C139.655 195.788 139.59 195.723 139.525 195.723C138.679 195.983 137.834 196.243 136.989 196.438C118.066 218.807 103.891 243.841 96.3481 272.712C92.3816 287.928 91.2112 303.469 92.8368 319.14C94.0722 331.169 97.0634 342.809 102.005 353.863C105.452 361.601 109.678 368.949 115.14 375.386C117.806 378.507 119.887 380.718 123.073 383.905C133.022 393.918 142.516 401.071 142.581 401.136C146.807 404.452 152.985 408.809 160.918 412.971C176.524 421.099 189.724 423.57 205.72 426.431C219.96 428.967 234.396 431.568 254.033 430.527C260.341 430.202 276.077 428.967 295.519 423.18C300.526 421.684 321.594 415.116 345.913 399.25C370.753 383.059 386.164 365.438 392.211 358.22C402.81 345.605 439.939 300.868 437.338 244.752Z" fill="#B17600"/>
<path d="M139.72 195.853C139.655 195.788 139.655 195.788 139.59 195.723C139.655 195.788 139.72 195.853 139.72 195.853Z" fill="#B17600"/>
<path d="M297.145 121.269C296.82 121.725 296.494 122.18 296.169 122.635C295.844 123.155 295.454 123.61 295.129 124.131L295.714 129.072C298.705 129.072 301.696 129.137 304.753 129.333L297.145 121.269Z" fill="#B17600"/>
<path d="M167.16 194.617C167.03 194.617 166.835 194.617 166.705 194.617V204.176C168.396 202.42 170.086 200.665 171.842 198.974L168.07 194.552C167.81 194.552 167.485 194.552 167.16 194.617Z" fill="#B17600"/>
<path d="M283.945 137.201C283.75 137.526 283.489 137.851 283.294 138.176C282.839 138.761 282.449 139.411 281.994 139.997L282.514 143.768C284.14 143.573 285.765 143.443 287.391 143.313C288.691 143.248 289.992 143.118 291.292 143.118L283.945 137.201Z" fill="#B17600"/>
<path d="M386.359 182.263C382.067 174.07 376.215 167.047 376.215 167.047C368.932 158.334 359.959 151.311 349.555 145.784C333.363 137.135 315.872 133.494 297.6 133.039C297.145 133.039 296.624 133.039 296.169 133.039L297.34 142.923C310.8 142.858 324.13 144.743 337.005 149.36C346.694 152.871 364.64 161.715 379.011 180.312C383.237 185.774 390.195 195.008 393.772 208.923C397.218 222.383 395.722 233.177 394.422 241.955C389.09 277.979 368.217 303.339 358.398 315.173C352.351 322.456 346.499 328.308 345.133 329.674C337.2 337.477 328.617 344.5 319.448 350.807C311.06 356.594 302.217 361.536 293.503 366.868C271.785 377.142 249.156 383.905 225.162 385.53C210.207 386.506 195.446 385.53 181.271 380.393C170.671 376.557 161.048 371.16 152.725 363.422C150.709 361.536 148.043 360.236 146.092 358.285C142.646 354.773 139.069 351.197 136.273 347.101C122.748 327.333 119.822 305.29 123.789 282.141C127.235 261.983 135.753 244.101 147.523 227.455C152.269 220.692 157.406 214.32 162.869 208.338C159.747 204.436 157.601 200.6 156.041 197.088C155.586 197.609 155.131 198.064 154.675 198.584C154.48 198.779 154.35 198.974 154.155 199.169C153.83 199.494 153.505 199.884 153.245 200.275C152.855 200.73 152.465 201.185 152.074 201.705C151.879 201.965 151.619 202.225 151.424 202.485C150.969 203.071 150.514 203.591 150.059 204.176C149.864 204.371 149.668 204.631 149.538 204.826C146.222 208.923 143.036 213.214 140.11 217.701C126.52 238.249 117.286 260.488 115.14 285.262C113.255 306.915 117.221 327.268 129.056 345.865C139.59 362.446 154.35 373.566 172.557 380.263C189.073 386.375 206.305 388.001 223.732 386.961C248.311 385.53 271.46 378.638 293.503 367.973C298.315 365.242 303.192 362.706 307.939 359.78C312.621 356.919 317.302 353.928 321.789 350.742C354.171 327.788 372.053 299.112 372.053 299.112C388.179 273.037 394.357 243.711 394.097 219.717C393.837 204.306 390.975 191.106 386.359 182.263Z" fill="#B17600"/>
<path d="M356.512 203.071C354.952 194.097 348.059 189.61 340.516 186.034C338.37 184.994 335.769 184.864 333.429 184.343C333.298 184.604 333.168 184.799 333.038 185.059C338.305 188.505 341.101 193.317 341.036 199.494C341.036 202.095 340.841 204.696 340.451 207.232C338.761 218.091 333.038 226.74 325.105 234.087C322.699 236.298 320.163 238.314 317.888 240.59C315.287 243.126 315.547 245.467 318.408 247.678C319.578 248.588 320.879 249.433 322.114 250.344C327.641 254.375 330.828 259.967 332.193 266.535C334.079 275.573 331.673 284.026 327.836 292.09C319.253 310.101 304.688 320.635 285.31 324.407C279.133 325.577 272.825 326.033 266.583 326.553C262.682 326.878 259.951 328.308 259.105 332.34C258.91 333.315 258.52 334.226 258.195 335.136C255.854 342.159 253.578 349.116 251.302 356.139C250.392 358.935 248.701 361.146 245.645 361.146C239.598 361.211 233.55 361.016 227.243 359.325C229.129 361.601 230.819 363.487 232.315 365.568C234.461 368.559 237.387 370.314 240.833 371.095C244.28 371.94 247.791 372.915 251.302 373.175C259.755 373.696 264.697 372.46 267.493 362.902C268.599 359.065 270.029 355.294 271.785 351.717C275.231 344.695 280.303 339.753 288.757 339.688C290.837 339.688 292.853 339.363 294.934 339.233C303.452 338.582 311.19 335.461 318.343 331.169C322.504 328.699 326.341 325.642 329.917 322.326C337.2 315.498 341.882 306.98 344.288 297.292C347.604 283.766 347.734 270.826 336.225 260.422C333.103 257.626 333.103 254.765 335.769 251.579C337.265 249.758 338.891 248.003 340.646 246.377C345.263 242.151 348.319 236.949 350.4 231.161C352.611 225.179 354.497 219.067 355.992 212.889C356.772 209.833 357.098 206.257 356.512 203.071Z" fill="#B17600"/>
<path d="M375.89 181.092C361.129 163.015 341.752 153.652 318.538 150.596C316.977 148.775 314.311 148.71 311.71 148.775C307.289 148.84 302.867 149.23 298.445 149.36C293.438 149.49 288.431 149.425 283.424 149.49L285.31 162.235L273.866 153.587C273.801 154.627 273.736 155.603 273.411 156.513C271.85 161.585 269.899 166.527 268.209 171.599C268.144 171.794 268.079 172.054 268.014 172.249L268.274 175.11L267.428 174.59C267.168 175.63 266.908 176.801 266.583 178.166C273.541 178.036 280.043 177.971 286.481 177.581C287.521 177.516 288.756 176.085 289.342 174.915C291.422 171.013 293.243 166.982 295.194 163.015C296.169 161.065 297.73 159.829 299.941 159.439C302.672 158.919 305.403 158.204 308.199 157.748C310.995 157.293 312.881 155.733 314.311 153.392C314.961 152.286 315.937 151.311 316.717 150.27C316.977 150.401 317.302 150.531 317.562 150.661C317.367 151.961 317.367 153.327 316.977 154.562C315.287 159.959 313.531 165.291 311.775 170.623C310.995 172.964 310.735 175.24 312.1 177.776C317.367 178.946 322.764 180.182 328.552 181.547C328.617 176.996 331.088 174.2 333.949 171.599C334.794 170.818 335.704 169.973 336.485 169.063C338.435 166.852 340.581 166.397 343.442 167.372C360.479 173.354 373.484 184.213 383.237 199.234C384.408 201.055 385.253 203.201 387.529 204.241C387.984 200.405 382.262 188.96 375.89 181.092Z" fill="#B17600"/>
<path d="M208.451 196.828C206.63 196.633 204.744 196.698 202.859 196.568L202.143 207.557L187.643 192.472C186.212 194.682 185.107 197.153 183.871 199.494L183.676 202.355C186.407 202.16 189.008 202.095 191.609 201.705C193.95 201.38 195.121 202.03 195.446 204.371C195.641 206.062 195.641 207.817 195.836 209.573C196.486 214.45 198.047 215.685 202.989 215.295C203.834 215.23 204.679 215.035 204.744 214.97C208.581 212.369 211.767 210.158 215.408 207.687C213.263 214.125 211.442 219.977 209.426 225.764C207.41 231.486 205.265 237.144 203.184 242.866C203.444 242.996 203.704 243.061 203.964 243.191C204.354 242.216 204.744 241.24 205.135 240.265C206.305 237.144 207.475 233.957 208.646 230.836C211.312 223.488 214.238 216.271 216.579 208.858C218.79 202.225 215.408 197.544 208.451 196.828Z" fill="#B17600"/>
<path d="M246.685 168.738V177.516C248.376 176.475 249.807 174.85 250.847 172.444C252.017 169.908 253.838 168.542 256.244 167.957L251.822 165.291C250.132 166.527 248.441 167.632 246.685 168.738Z" fill="#B17600"/>
<path d="M268.079 152.937C267.558 153.327 266.973 153.717 266.453 154.107L267.233 163.926C268.274 162.885 269.249 161.65 269.964 160.154C271.005 158.008 271.785 155.733 272.63 153.587C272.695 153.392 272.825 153.197 272.89 153.002L270.485 151.181C269.704 151.766 268.924 152.351 268.079 152.937Z" fill="#B17600"/>
<path d="M230.364 176.671C229.129 177.061 227.958 177.451 226.723 177.776C226.268 177.906 225.747 178.036 225.292 178.231L225.227 179.207C228.088 179.076 230.949 179.011 233.876 179.011L230.364 176.671Z" fill="#B17600"/>
<path d="M247.401 303.014C241.613 303.014 235.761 303.144 229.974 303.079C227.958 303.079 226.008 302.754 223.602 302.559C223.927 300.543 223.927 299.047 224.382 297.682C229.064 283.961 233.876 270.306 238.622 256.586C238.817 256.066 239.143 255.611 239.533 254.96C240.313 254.765 241.288 254.375 242.199 254.375C250.587 254.635 259.105 254.05 267.363 256.196C271.2 257.171 274.646 258.862 277.117 262.113C280.693 266.73 280.498 271.672 278.808 276.874C278.873 274.013 278.938 271.152 278.938 268.291C274.516 266.665 270.68 264.909 266.388 266.925C265.608 267.25 264.697 267.38 263.852 267.445C257.805 267.9 253.513 271.347 250.782 276.289C247.791 281.751 245.58 287.603 243.239 293.39C242.069 296.251 241.288 299.307 240.248 302.494C242.719 302.689 245.06 302.884 247.401 303.014Z" fill="#B17600"/>
<path d="M247.206 234.543C247.531 232.592 247.596 230.836 248.116 229.276C251.432 219.457 254.879 209.638 258.26 199.819C258.975 197.739 260.081 196.438 262.421 196.503C268.794 196.698 275.166 196.828 281.539 197.218C283.554 197.348 285.57 197.999 287.521 198.714C295.064 201.445 298.12 207.492 295.259 214.97C292.593 221.928 287.911 227.325 281.539 231.291C276.792 234.217 271.59 235.388 266.063 235.258C260.666 235.128 255.269 235.063 249.872 234.933C249.091 234.933 248.506 234.738 247.206 234.543ZM264.567 233.372C277.572 236.233 294.349 223.228 294.674 210.418C291.748 207.622 290.122 207.297 287.066 209.573C284.855 211.199 282.579 212.369 279.783 212.824C278.157 213.084 276.467 213.93 275.166 215.035C269.574 219.847 266.063 225.894 264.567 233.372Z" fill="#B17600"/>
<path d="M237.582 326.488C235.956 331.56 234.461 336.371 232.965 341.183C232.77 341.183 232.64 341.183 232.445 341.118C232.445 340.468 232.38 339.818 232.38 338.777C231.795 339.167 231.145 339.363 230.884 339.818C228.674 343.394 226.333 346.905 224.512 350.612C222.496 354.773 221.001 359.195 219.115 363.487C217.554 367.063 214.693 368.884 210.792 369.274C204.679 369.924 199.022 368.038 193.43 365.958C192.455 365.633 191.609 364.787 190.894 364.007C188.683 361.666 186.603 359.26 184.392 356.789C188.618 357.179 192.455 357.635 196.291 357.895C201.363 358.22 203.639 356.789 205.395 351.912C207.606 345.8 209.621 339.623 211.767 333.51C212.547 331.234 213.328 329.024 214.108 326.748C214.628 325.122 215.734 324.082 217.424 324.147C223.277 324.407 229.064 324.797 234.916 325.252C235.566 325.317 236.216 325.837 237.582 326.488Z" fill="#B17600"/>
<path d="M195.186 323.366C193.885 327.398 192.78 330.649 191.805 333.705C189.854 333.38 188.033 332.99 186.212 332.795C178.8 331.885 171.452 331.104 164.039 330.194C161.373 329.869 159.162 328.568 157.406 326.488C155.521 324.147 153.505 321.936 151.554 319.595C153.7 319.92 155.651 320.375 157.601 320.505C168.396 321.221 179.19 321.806 189.984 322.456C191.414 322.521 192.845 322.976 195.186 323.366Z" fill="#B17600"/>
<path d="M110.654 239.485C103.826 253.14 98.819 267.315 95.8279 282.336C93.6821 293.13 92.9018 303.924 93.7471 314.783C94.4624 324.602 96.088 334.356 99.9245 343.589C101.16 346.58 102.265 349.702 103.436 352.758" stroke="#B17600" stroke-miterlimit="10"/>
<path d="M410.418 168.542C403.915 159.114 396.958 150.205 387.854 143.053C379.531 136.485 370.558 131.283 360.934 127.057C359.764 126.536 358.398 126.341 357.163 126.016" stroke="#B17600" stroke-miterlimit="10"/>
<path d="M333.038 184.148C334.859 185.189 336.745 186.164 338.565 187.205" stroke="#B17600" stroke-miterlimit="10"/>
<path d="M387.659 204.241C385.903 201.25 384.213 198.194 382.457 195.203" stroke="#B17600" stroke-miterlimit="10"/>
<path d="M294.284 207.427C297.015 211.264 294.934 214.905 293.113 218.026C290.187 223.228 286.351 227.845 281.084 230.966C276.142 233.957 270.745 234.933 265.087 234.478C264.177 234.413 263.332 233.502 262.486 232.917" stroke="#B17600" stroke-miterlimit="10"/>
<path d="M279.003 275.638C279.133 274.598 279.068 273.557 279.328 272.582C280.043 269.786 279.393 267.51 277.312 265.559" stroke="#B17600" stroke-miterlimit="10"/>
<path d="M151.489 318.685C152.465 320.831 154.415 321.416 156.431 322.066" stroke="#B17600" stroke-miterlimit="10"/>
<path d="M214.433 204.956C215.148 205.672 215.799 206.387 216.709 207.362C212.287 219.457 207.866 231.486 203.444 243.516L182.181 302.103" stroke="#B17600" stroke-miterlimit="10"/>
<path d="M227.308 358.74C228.088 361.016 230.559 361.146 232.12 362.511" stroke="#B17600" stroke-miterlimit="10"/>
<path d="M184.587 356.009C186.082 357.049 187.578 358.155 189.073 359.195" stroke="#B17600" stroke-miterlimit="10"/>
<path d="M318.993 153.002C318.148 151.701 317.237 150.466 316.457 149.295C315.222 150.01 314.571 150.401 313.921 150.791" stroke="#B17600" stroke-miterlimit="10"/>
<path d="M238.362 302.038C239.208 302.494 239.988 303.274 240.833 303.274C242.589 303.339 244.345 303.079 246.035 302.949" stroke="#B17600" stroke-miterlimit="10"/>
<path d="M190.894 331.43C191.024 332.47 191.154 333.445 191.349 334.486" stroke="#B17600" stroke-miterlimit="10"/>
<path d="M231.145 335.006C231.925 335.916 232.705 336.827 233.42 337.737C233.095 339.168 232.835 340.338 232.575 341.573" stroke="#B17600" stroke-miterlimit="10"/>
<path d="M167.94 376.622C175.418 379.743 182.896 382.539 190.894 384.165C206.825 387.351 222.756 387.026 238.752 384.685C248.701 383.254 258.325 380.588 267.884 377.597C279.783 373.826 290.967 368.559 301.892 362.641C309.564 358.48 316.847 353.603 323.87 348.336C332.973 341.573 341.492 334.161 349.49 326.033C358.008 317.384 365.421 307.826 372.118 297.747C380.506 285.132 386.749 271.542 391.04 257.041C394.097 246.702 395.852 236.103 395.592 225.374C395.332 216.401 394.162 207.492 390.975 199.039C390.715 198.389 390.78 197.674 390.65 197.023" stroke="#B17600" stroke-miterlimit="10"/>
<path d="M139.59 195.723C139.655 195.788 139.655 195.788 139.59 195.723C139.655 195.788 139.655 195.788 139.655 195.788C139.655 195.788 139.72 195.788 139.72 195.853C139.72 195.853 139.72 195.853 139.785 195.853C139.85 195.918 140.11 196.113 140.37 196.308C140.565 196.438 140.695 196.568 140.89 196.763C141.8 197.609 142.321 198.064 143.036 198.649C143.621 199.169 144.336 199.884 145.182 200.665L139.59 195.723Z" fill="#938B24"/>
<path d="M111.889 239.55C111.824 239.289 111.694 239.094 111.434 238.964C111.174 238.834 110.914 238.769 110.654 238.834C110.524 238.899 110.393 238.964 110.198 239.029C110.133 239.029 110.068 239.094 110.003 239.159C109.808 239.289 109.613 239.419 109.418 239.615C109.158 239.875 108.963 240.2 108.833 240.525C108.768 240.59 108.703 240.59 108.703 240.655L108.573 240.85C108.508 240.98 108.443 241.175 108.443 241.37V241.89C108.443 242.02 108.443 242.151 108.508 242.281C108.508 242.346 108.573 242.411 108.573 242.411L108.508 242.476C107.402 244.426 106.362 246.377 105.257 248.328C104.281 250.149 103.241 251.969 102.786 253.985C102.721 254.245 102.786 254.44 102.851 254.635C102.851 254.635 102.786 254.635 102.786 254.7L102.721 254.765C102.656 254.83 102.591 254.96 102.525 255.09C102.46 255.221 102.46 255.351 102.46 255.481C102.46 255.546 102.46 255.546 102.46 255.611C102.2 255.741 102.07 255.936 102.005 256.196C101.875 256.911 101.68 257.626 101.485 258.342C101.355 258.667 101.29 259.057 101.16 259.382C101.095 259.577 101.03 259.707 100.965 259.902C100.965 259.902 100.835 260.162 100.965 259.967C100.9 260.097 100.9 260.162 100.835 260.292C100.705 260.553 100.705 260.943 100.77 261.203C100.64 261.333 100.51 261.463 100.445 261.723C100.12 262.503 99.8595 263.284 99.5343 264.064C99.2092 264.844 98.8841 265.624 98.9491 266.535C98.9491 266.795 99.0792 267.055 99.2092 267.185C99.0792 267.25 99.0141 267.38 98.9491 267.51C97.9087 269.721 97.1284 272.062 96.7383 274.468C96.6082 274.468 96.5432 274.533 96.4132 274.598C96.2181 274.728 96.023 274.923 95.958 275.183C95.8279 275.833 95.7629 276.549 95.6329 277.199C95.5678 277.329 95.5678 277.459 95.6329 277.589C95.6329 277.719 95.6979 277.849 95.7629 277.979C95.8279 278.044 95.893 278.109 95.958 278.174C95.893 278.239 95.893 278.239 95.8279 278.304C95.7629 278.434 95.6979 278.499 95.6329 278.629C95.5678 278.694 95.5678 278.824 95.5028 278.955C95.4378 279.02 95.4378 279.085 95.4378 279.15C94.8526 282.011 94.3324 284.872 93.7471 287.733C93.6821 287.928 93.7471 288.123 93.8122 288.318C93.6821 288.448 93.5521 288.643 93.487 288.838C93.422 289.163 93.357 289.489 93.292 289.879C93.2269 290.009 93.2269 290.139 93.292 290.269C93.292 290.334 93.292 290.399 93.292 290.399C93.2269 290.529 93.1619 290.724 93.1619 290.854C93.0969 291.634 93.0969 292.35 93.0319 293.13C93.0319 293.26 93.0319 293.39 93.0969 293.52C93.0969 293.585 93.0319 293.65 93.0319 293.65C92.9668 294.495 92.9668 295.341 92.9018 296.186C92.9018 296.381 92.9668 296.576 93.0969 296.771C92.9018 296.901 92.7718 297.096 92.7067 297.292C92.3166 299.112 92.2516 300.933 92.5767 302.754C92.5767 302.819 92.6417 302.949 92.6417 303.014C92.5767 303.079 92.4466 303.144 92.3816 303.209L92.2516 303.404C92.1865 303.534 92.1215 303.729 92.1215 303.924V304.379C92.1215 304.509 92.1215 304.639 92.1865 304.769C92.2516 304.899 92.3166 304.964 92.3816 305.095C92.4466 305.16 92.4466 305.16 92.5117 305.225C92.4466 305.29 92.3816 305.29 92.3816 305.355L92.2516 305.55C92.1865 305.68 92.1215 305.875 92.1215 306.07V306.135C92.1215 306.265 92.1215 306.395 92.1865 306.525C92.1865 306.59 92.1865 306.59 92.1865 306.655C92.3166 308.671 92.4466 310.687 92.5767 312.702C92.5767 312.963 92.7067 313.223 92.8368 313.418C92.5767 313.613 92.3816 313.873 92.3816 314.198C92.6417 316.669 92.9018 319.14 93.1619 321.676C93.1619 321.936 93.292 322.196 93.487 322.391C93.292 322.651 93.2269 322.911 93.292 323.236C93.7471 326.488 94.5274 329.674 95.5678 332.795C95.6329 333.055 95.7629 333.185 95.958 333.315C95.893 333.38 95.8279 333.38 95.8279 333.445C95.6979 333.575 95.6329 333.705 95.5678 333.9C95.5678 333.966 95.5678 334.096 95.5028 334.161C95.5028 334.356 95.5678 334.486 95.6329 334.681C95.6979 334.811 95.8279 334.941 95.893 335.136C95.8279 335.331 95.8279 335.526 95.8279 335.721C96.1531 337.282 96.6733 338.712 97.3235 340.143C97.3235 340.208 97.3885 340.273 97.4536 340.338C97.2585 340.598 97.1284 340.923 97.2585 341.183C99.0141 345.28 100.705 349.441 102.46 353.538C102.656 353.993 103.111 354.383 103.631 354.188C104.086 354.058 104.541 353.473 104.281 353.018C102.525 348.921 100.835 344.76 99.0792 340.663C99.0141 340.533 98.9491 340.403 98.8191 340.273C99.0792 339.948 99.1442 339.558 98.9491 339.168C98.8841 338.972 98.8191 338.842 98.754 338.647C98.754 338.582 98.689 338.582 98.689 338.517C98.689 338.452 98.624 338.387 98.624 338.322C98.494 337.997 98.3639 337.672 98.2338 337.282C97.9737 336.567 97.8437 335.916 97.6486 335.201C97.6486 335.136 97.6486 335.136 97.5836 335.071C97.5836 335.071 97.5836 335.006 97.6486 335.006C97.6486 334.941 97.6486 334.811 97.7136 334.746C97.7136 334.551 97.6486 334.421 97.5836 334.226C97.5186 334.031 97.3885 333.9 97.3235 333.705C97.2585 333.575 97.1934 333.51 97.0634 333.445C97.3885 333.25 97.6486 332.86 97.4536 332.405C96.4132 329.284 95.6979 326.098 95.1777 322.846C95.1777 322.651 95.0476 322.521 94.9176 322.391C95.0476 322.196 95.1127 322.001 95.1127 321.806C94.8526 319.335 94.5925 316.864 94.3324 314.328C94.3324 314.068 94.2023 313.808 94.0072 313.613C94.2673 313.418 94.4624 313.158 94.4624 312.832C94.3324 310.817 94.2023 308.801 94.0723 306.785C94.0723 306.655 94.0072 306.525 94.0072 306.395C94.0072 306.33 94.0072 306.33 94.0072 306.265V305.745C94.0072 305.615 94.0072 305.485 93.9422 305.355C93.8772 305.225 93.8122 305.16 93.7471 305.03C93.6821 304.964 93.6821 304.964 93.6171 304.899C93.6821 304.834 93.7471 304.834 93.7471 304.769L93.8772 304.574C93.9422 304.444 94.0072 304.249 94.0072 304.054V303.599C94.0072 303.469 94.0072 303.339 93.9422 303.209C93.9422 303.144 93.8772 303.144 93.8772 303.079C94.2673 302.884 94.4624 302.429 94.3974 301.973C94.3974 301.843 94.3324 301.778 94.3324 301.648C94.3324 301.648 94.3324 301.518 94.3324 301.453C94.3324 301.453 94.3324 301.453 94.3324 301.388C94.3324 301.323 94.3324 301.258 94.3324 301.193C94.3324 301.128 94.3324 300.998 94.3324 300.933C94.3324 300.543 94.2673 300.153 94.3324 299.762C94.3324 299.372 94.3974 298.982 94.3974 298.592V298.527V298.462C94.3974 298.397 94.3974 298.267 94.4624 298.202C94.5274 298.007 94.5274 297.747 94.5925 297.552C94.6575 297.227 94.5925 296.901 94.3974 296.706C94.6575 296.511 94.7875 296.251 94.8526 295.926C94.9176 295.081 94.9176 294.235 94.9826 293.39C94.9826 293.26 94.9826 293.13 94.9176 293C94.9176 292.935 94.9826 292.87 94.9826 292.87C95.0476 292.09 95.0476 291.374 95.1127 290.594C95.1127 290.529 95.1127 290.399 95.0476 290.334C95.1127 290.269 95.1127 290.204 95.1777 290.074C95.2427 289.749 95.3077 289.424 95.3728 289.033C95.4378 288.903 95.4378 288.773 95.3728 288.643C95.3728 288.578 95.3728 288.513 95.3077 288.448C95.4378 288.318 95.5678 288.188 95.6329 287.993C96.2181 285.132 96.7383 282.271 97.3235 279.41V279.345C97.3885 279.215 97.4536 279.15 97.5186 279.02C97.5836 278.89 97.6486 278.759 97.6486 278.629C97.6486 278.499 97.6486 278.369 97.6486 278.239C97.6486 278.109 97.5836 277.979 97.4536 277.914C97.4536 277.849 97.3885 277.849 97.3235 277.849C97.4536 277.719 97.5186 277.589 97.5186 277.459C97.6486 276.809 97.7137 276.093 97.8437 275.443C98.1688 275.378 98.4939 275.118 98.559 274.728C98.9491 272.517 99.5994 270.306 100.575 268.225C100.77 267.835 100.705 267.38 100.38 267.055C100.64 266.86 100.77 266.6 100.77 266.275C100.77 266.21 100.77 266.08 100.77 265.95C100.77 265.885 100.77 265.885 100.77 265.82C100.835 265.624 100.835 265.429 100.9 265.234C101.03 264.909 101.16 264.519 101.29 264.194C101.55 263.414 101.875 262.698 102.135 261.918C102.2 261.723 102.2 261.463 102.07 261.268C102.135 261.203 102.265 261.073 102.33 261.008C102.981 259.577 103.436 258.082 103.761 256.521C103.761 256.391 103.761 256.261 103.761 256.196C103.826 256.131 103.891 256.131 103.956 256.001L104.021 255.936C104.086 255.871 104.151 255.741 104.216 255.611C104.281 255.481 104.281 255.351 104.281 255.22C104.281 255.09 104.281 254.96 104.216 254.83C104.346 254.7 104.476 254.57 104.476 254.31C104.931 252.359 105.907 250.669 106.817 248.913C107.858 247.027 108.898 245.142 109.938 243.256C110.133 242.866 110.068 242.541 109.873 242.281L109.938 242.216C110.003 242.085 110.068 241.89 110.068 241.695V241.63C110.198 241.5 110.263 241.37 110.328 241.24C110.328 241.24 110.328 241.24 110.328 241.175C110.393 241.11 110.393 241.045 110.459 240.98C110.524 240.915 110.524 240.85 110.589 240.85C110.654 240.785 110.719 240.785 110.784 240.72C110.784 240.72 110.784 240.72 110.849 240.72C111.109 240.655 111.304 240.46 111.434 240.265C111.499 240.135 111.564 240.005 111.564 239.875C111.889 239.81 111.889 239.68 111.889 239.55Z" fill="#B17600"/>
</svg>
