<svg width="140" height="140" viewBox="0 0 140 140" fill="none" xmlns="http://www.w3.org/2000/svg">
<g filter="url(#filter0_d_372_1349)">
<circle cx="70" cy="70" r="52" fill="#3CB54A"/>
</g>
<path d="M89.4342 70.4125L81.906 75.7734C81.906 75.7734 78.142 65.2797 75.2904 58.55C74.1498 55.8125 70.4998 54.9 68.7888 51.0219C65.8232 44.4063 69.3592 38.7031 72.781 42.8094C76.7732 47.6 82.7045 51.1359 83.9592 53.8734C85.8982 58.4359 89.4342 70.4125 89.4342 70.4125Z" fill="#FFDD67"/>
<path d="M95.3654 74.7469C95.9357 78.3969 95.4795 83.9859 92.2857 90.6016C92.2857 90.6016 85.7842 82.8453 84.9857 79.1953C84.9857 79.1953 83.1607 65.6219 81.2217 56.9531C80.4232 53.4172 76.317 51.3641 75.2904 46.3453C73.4654 37.6766 78.9404 31.6313 82.1342 37.4484C85.7842 44.1781 91.9436 49.8813 92.742 53.4172C94.1107 59.4625 94.6811 69.5 95.3654 74.7469Z" fill="#FFDD67"/>
<path d="M85.7843 67.9031C85.7843 67.9031 85.214 62.7703 83.2749 54.1016C82.4765 50.5656 78.3702 48.5125 77.3437 43.4937C76.6593 40.5281 76.8874 37.7906 77.6858 35.8516C75.7468 37.3344 74.1499 41.4406 75.1765 46.4594C76.203 51.4781 80.4233 53.5313 81.1077 57.0672C81.9062 60.8313 82.5905 64.7094 82.5905 64.7094L76.8874 62.5422L85.7843 67.9031Z" fill="#EBA352"/>
<path d="M92.628 73.3781C85.0998 66.5344 76.6592 62.3141 71.1842 59.6906C63.0858 55.6984 65.253 61.1734 51.4514 64.8234C49.6264 65.2797 47.4592 66.6484 49.1701 70.0703C50.767 73.3781 63.7701 70.8688 65.8233 68.9297C65.8233 68.9297 71.2983 75.6594 76.7733 75.4313C76.7733 75.4313 75.8608 79.8797 77.1155 82.0469C77.1155 82.0469 69.3592 86.0391 66.0514 89.575L56.9264 83.4156C56.242 73.9484 54.5311 71.0969 49.8545 71.5531C45.5201 72.0094 45.9764 76.1156 46.0905 79.4234C46.2045 85.4688 44.6076 86.4953 46.0905 88.8906C51.6795 98.0156 58.8655 103.719 72.0967 103.719C77.0014 103.719 80.1951 103.605 83.2748 102.122C88.2936 99.4984 100.955 81.0203 92.628 73.3781Z" fill="#FFDD67"/>
<path d="M94.1109 75.2031C96.9625 83.8719 86.8109 98.1297 82.3625 100.297C79.2828 101.78 76.2031 101.894 71.1844 101.894C58.0672 101.894 50.9953 96.3047 45.4062 87.2937C45.5203 87.75 45.7484 88.3203 45.9766 88.7766C51.6797 98.0156 58.8656 103.719 72.0969 103.719C77.0016 103.719 80.1953 103.605 83.275 102.122C87.9516 99.7266 99.2438 83.6438 94.1109 75.2031Z" fill="#EBA352"/>
<path d="M55.2154 83.6437C55.2154 83.6437 63.7701 89.1187 65.8232 89.4609L56.8123 83.4156C57.1545 73.8344 54.417 70.7547 49.7404 71.5531C49.3982 71.6672 49.0561 71.6672 48.7139 71.7812C53.3904 71.2109 55.5576 74.2906 55.2154 83.6437Z" fill="#EBA352"/>
<path d="M65.8232 68.9297C65.8232 68.9297 71.2982 75.5453 76.7732 75.4313V74.1766C71.2982 74.2906 65.8232 67.675 65.8232 67.675C63.7701 69.7281 50.767 72.2375 49.1701 68.8156C48.942 68.2453 48.7139 67.675 48.5998 67.2188C48.4857 67.9031 48.5998 68.8156 49.1701 70.0703C50.767 73.3781 63.7701 70.8688 65.8232 68.9297Z" fill="#EBA352"/>
<defs>
<filter id="filter0_d_372_1349" x="0.200001" y="0.200001" width="139.6" height="139.6" filterUnits="userSpaceOnUse" color-interpolation-filters="sRGB">
<feFlood flood-opacity="0" result="BackgroundImageFix"/>
<feColorMatrix in="SourceAlpha" type="matrix" values="0 0 0 0 0 0 0 0 0 0 0 0 0 0 0 0 0 0 127 0" result="hardAlpha"/>
<feOffset/>
<feGaussianBlur stdDeviation="8.9"/>
<feComposite in2="hardAlpha" operator="out"/>
<feColorMatrix type="matrix" values="0 0 0 0 0.235294 0 0 0 0 0.709804 0 0 0 0 0.290196 0 0 0 0.6 0"/>
<feBlend mode="normal" in2="BackgroundImageFix" result="effect1_dropShadow_372_1349"/>
<feBlend mode="normal" in="SourceGraphic" in2="effect1_dropShadow_372_1349" result="shape"/>
</filter>
</defs>
</svg>
