<svg width="24" height="24" viewBox="0 0 24 24" fill="none" xmlns="http://www.w3.org/2000/svg">
<path d="M7.96497 6.202C7.77912 6.17495 7.58961 6.21236 7.42797 6.308H7.41397C7.03897 6.528 6.70097 6.805 6.41297 7.131C6.17297 7.408 6.04297 7.688 6.00897 7.958C5.98897 8.118 6.00297 8.28 6.04997 8.433L6.06797 8.443C6.33797 9.236 6.68997 9.999 7.11997 10.717C7.67442 11.7255 8.35673 12.6582 9.14997 13.492L9.17397 13.526L9.21197 13.554L9.23497 13.581L9.26297 13.605C10.0997 14.4006 11.0346 15.0862 12.045 15.645C13.2 16.274 13.901 16.571 14.322 16.695V16.701C14.445 16.739 14.557 16.756 14.67 16.756C15.0285 16.7295 15.3679 16.5838 15.634 16.342C15.959 16.054 16.234 15.715 16.448 15.338V15.331C16.649 14.951 16.581 14.593 16.291 14.35C15.7085 13.841 15.0786 13.389 14.41 13C13.962 12.757 13.507 12.904 13.323 13.15L12.93 13.646C12.728 13.892 12.362 13.858 12.362 13.858L12.352 13.864C9.62097 13.167 8.89197 10.402 8.89197 10.402C8.89197 10.402 8.85797 10.026 9.11097 9.834L9.60297 9.438C9.83897 9.246 10.003 8.792 9.74997 8.344C9.36358 7.67476 8.91241 7.04508 8.40297 6.464C8.29186 6.32725 8.13604 6.23411 7.96297 6.201L7.96497 6.202ZM12.58 5C12.4474 5 12.3202 5.05268 12.2264 5.14645C12.1326 5.24021 12.08 5.36739 12.08 5.5C12.08 5.63261 12.1326 5.75979 12.2264 5.85355C12.3202 5.94732 12.4474 6 12.58 6C13.844 6 14.894 6.413 15.725 7.205C16.152 7.638 16.485 8.151 16.703 8.713C16.922 9.276 17.022 9.877 16.996 10.479C16.9904 10.6116 17.0377 10.741 17.1276 10.8387C17.2174 10.9364 17.3424 10.9944 17.475 11C17.6076 11.0056 17.737 10.9582 17.8347 10.8684C17.9324 10.7786 17.9904 10.6536 17.996 10.521C18.027 9.78049 17.9041 9.04159 17.635 8.351C17.3647 7.65714 16.9549 7.02612 16.431 6.497L16.421 6.487C15.39 5.502 14.086 5 12.58 5Z" fill="white"/>
<path d="M12.545 6.64407C12.4124 6.64407 12.2853 6.69674 12.1915 6.79051C12.0977 6.88428 12.045 7.01146 12.045 7.14407C12.045 7.27667 12.0977 7.40385 12.1915 7.49762C12.2853 7.59139 12.4124 7.64407 12.545 7.64407H12.562C13.474 7.70907 14.138 8.01307 14.603 8.51207C15.08 9.02607 15.327 9.66507 15.308 10.4551C15.305 10.5877 15.3547 10.7161 15.4464 10.812C15.538 10.9079 15.6639 10.9635 15.7965 10.9666C15.9292 10.9696 16.0575 10.9199 16.1535 10.8283C16.2494 10.7366 16.305 10.6107 16.308 10.4781C16.332 9.44107 15.998 8.54607 15.336 7.83207V7.83007C14.659 7.10407 13.73 6.72007 12.612 6.64507L12.595 6.64307L12.545 6.64407Z" fill="white"/>
<path d="M12.526 8.31883C12.4591 8.31293 12.3917 8.32056 12.3278 8.34129C12.2639 8.36202 12.2048 8.39541 12.1541 8.43947C12.1034 8.48353 12.0621 8.53735 12.0326 8.59773C12.0032 8.6581 11.9862 8.72379 11.9827 8.79088C11.9792 8.85796 11.9893 8.92506 12.0123 8.98817C12.0353 9.05128 12.0708 9.10911 12.1167 9.1582C12.1625 9.20729 12.2178 9.24663 12.2792 9.27389C12.3406 9.30114 12.4068 9.31575 12.474 9.31683C12.892 9.33883 13.159 9.46483 13.327 9.63383C13.496 9.80383 13.622 10.0768 13.645 10.5038C13.6463 10.5709 13.661 10.6371 13.6884 10.6984C13.7157 10.7597 13.7551 10.8148 13.8043 10.8605C13.8534 10.9062 13.9112 10.9416 13.9743 10.9645C14.0374 10.9874 14.1044 10.9974 14.1714 10.9938C14.2384 10.9903 14.3041 10.9733 14.3644 10.9438C14.4247 10.9143 14.4784 10.8731 14.5224 10.8224C14.5664 10.7717 14.5998 10.7127 14.6205 10.6489C14.6412 10.585 14.6489 10.5177 14.643 10.4508C14.611 9.85083 14.423 9.32083 14.038 8.93083C13.651 8.54083 13.124 8.35083 12.526 8.31883Z" fill="white"/>
<path fill-rule="evenodd" clip-rule="evenodd" d="M7.06705 2.38406C10.2491 1.67276 13.549 1.67276 16.7311 2.38406L17.0701 2.45906C18.0003 2.66701 18.8546 3.12879 19.5381 3.79308C20.2217 4.45738 20.7076 5.29818 20.9421 6.22206C21.7498 9.40495 21.7498 12.7392 20.9421 15.9221C20.7076 16.8459 20.2217 17.6867 19.5381 18.351C18.8546 19.0153 18.0003 19.4771 17.0701 19.6851L16.7301 19.7601C14.7371 20.2057 12.692 20.3737 10.6531 20.2591L8.00005 22.6331C7.90003 22.7226 7.77781 22.7837 7.64614 22.8099C7.51447 22.8361 7.37818 22.8265 7.2515 22.782C7.12482 22.7376 7.01239 22.6599 6.92594 22.5572C6.8395 22.4545 6.78221 22.3305 6.76005 22.1981L6.32105 19.5761C5.47924 19.3141 4.71866 18.8407 4.11202 18.2009C3.50538 17.5612 3.07295 16.7766 2.85605 15.9221C2.04831 12.7392 2.04831 9.40494 2.85605 6.22206C3.09047 5.29818 3.57645 4.45738 4.25999 3.79308C4.94353 3.12879 5.79786 2.66701 6.72805 2.45906L7.06705 2.38406ZM16.4041 3.84706C13.4373 3.18386 10.3608 3.18386 7.39405 3.84706L7.05405 3.92306C6.39477 4.07071 5.78932 4.39821 5.30493 4.86919C4.82054 5.34016 4.47616 5.93618 4.31005 6.59106C3.56377 9.53178 3.56377 12.6123 4.31005 15.5531C4.47624 16.2081 4.82077 16.8042 5.30535 17.2752C5.78993 17.7461 6.39559 18.0736 7.05505 18.2211L7.14505 18.2411C7.29065 18.2736 7.42322 18.3489 7.52583 18.4572C7.62843 18.5655 7.6964 18.7019 7.72105 18.8491L8.01505 20.6071L9.88705 18.9321C9.96181 18.865 10.0493 18.8136 10.1443 18.7809C10.2393 18.7483 10.3399 18.7351 10.4401 18.7421C12.4391 18.8839 14.4482 18.734 16.4041 18.2971L16.7431 18.2211C17.4025 18.0736 18.0082 17.7461 18.4928 17.2752C18.9773 16.8042 19.3219 16.2081 19.4881 15.5531C20.2341 12.6131 20.2341 9.53206 19.4881 6.59106C19.3219 5.93606 18.9773 5.33995 18.4928 4.86896C18.0082 4.39798 17.4025 4.07055 16.7431 3.92306L16.4041 3.84706Z" fill="white"/>
</svg>
